<svg width="321" height="700" viewBox="0 0 321 700" fill="none" xmlns="http://www.w3.org/2000/svg">
<g clip-path="url(#clip0_431_2)">
<path d="M-0.0678711 367.308V359.791C0.0675719 359.588 0.270741 359.385 0.338462 359.114C0.541627 357.963 0.541625 356.811 0.473903 355.592C0.609346 352.409 0.880232 349.227 1.15112 346.044C1.82833 338.865 3.04732 331.754 4.74036 324.779C13.5442 289.225 32.1676 259.834 60.8138 236.944C87.4961 215.612 118.106 204.167 152.238 202.203C154.134 202.339 156.03 202.203 157.859 201.865H163.209C165.308 202.203 167.407 202.271 169.439 202.203C173.57 202.474 177.633 202.813 181.764 203.354C188.943 204.302 196.054 205.725 203.097 207.621C255.175 221.91 296.552 261.459 313.28 312.792C316.056 321.325 318.088 330.061 319.375 339.001C320.187 343.877 320.593 348.82 320.729 353.832C320.729 354.373 320.661 354.847 320.661 355.389C320.661 359.927 320.661 364.396 320.661 368.933C320.661 369.678 320.661 370.356 320.729 371.101C320.729 372.184 320.729 373.268 320.661 374.419C320.255 379.566 319.645 384.713 318.765 389.792C305.898 464.421 242.578 519.817 166.933 522.729C166.527 522.729 166.121 522.661 165.714 522.661C162.328 522.797 159.01 522.797 155.624 522.661C155.218 522.661 154.811 522.729 154.405 522.729C150.613 522.526 146.82 522.255 143.028 521.849C135.917 521.104 128.874 519.817 121.966 518.056C86.4802 509.049 57.4277 490.155 34.6733 461.509C15.8467 437.671 4.26631 408.957 1.21884 378.821C0.947958 375.909 0.677066 372.997 0.609344 370.085C0.541623 369.069 0.338458 368.121 -0.0678711 367.308ZM260.05 363.177C259.915 362.771 259.78 362.364 259.644 361.89C254.7 344.351 249.825 326.811 244.881 309.339C243.323 303.785 241.766 298.3 240.208 292.747C239.869 291.596 239.869 291.596 238.718 291.596H229.169C227.273 291.596 227.544 291.528 227.07 293.221C221.72 312.183 216.37 331.145 211.088 350.175C209.937 354.306 208.785 358.437 207.634 362.5C207.566 362.839 207.499 363.177 207.092 363.313C207.025 363.042 206.957 362.839 206.889 362.635C206.009 359.114 205.196 355.66 204.316 352.139C199.981 334.328 195.647 316.449 191.313 298.639C190.771 296.539 190.297 294.508 189.756 292.408C189.552 291.663 189.485 291.663 188.807 291.596C188.469 291.596 188.063 291.596 187.724 291.596H175.534C173.028 291.596 173.367 291.46 173.909 293.627C176.956 305.411 180.071 317.262 183.187 329.046C188.604 349.836 194.022 370.627 199.507 391.417C199.575 391.756 199.711 392.027 199.778 392.297C199.846 392.568 200.117 392.704 200.388 392.704C200.726 392.704 200.997 392.704 201.336 392.704H211.833C213.39 392.704 213.255 392.839 213.661 391.214L230.185 333.921L233.233 323.425C233.3 323.154 233.368 322.951 233.504 322.68C233.571 322.612 233.639 322.544 233.707 322.544C233.775 322.544 233.91 322.612 233.91 322.68C234.045 323.086 234.181 323.492 234.249 323.899L252.466 386.541C253.007 388.37 253.481 390.13 254.023 391.959C254.226 392.636 254.362 392.704 255.039 392.704C255.378 392.704 255.649 392.704 255.987 392.704H266.01C267.974 392.704 267.635 392.839 268.042 391.078C276.575 358.437 285.107 325.795 293.64 293.153C293.708 292.814 293.844 292.476 293.911 292.07C293.979 291.663 293.844 291.528 293.437 291.46C293.302 291.46 293.234 291.46 293.099 291.46C288.358 291.46 283.618 291.46 278.877 291.46C277.929 291.46 277.929 291.46 277.726 292.34C277.184 294.44 276.71 296.607 276.168 298.706C271.834 316.517 267.5 334.395 263.166 352.206C262.353 355.525 261.54 358.911 260.728 362.229C260.525 362.703 260.525 363.109 260.05 363.177ZM89.8663 340.829C90.0695 340.423 90.5435 340.355 90.8821 340.152C92.2366 339.475 93.5233 338.662 94.6745 337.646C99.5505 333.583 102.598 327.759 103.004 321.393C103.207 318.82 103.072 316.246 102.666 313.74C101.582 307.442 98.7378 302.092 93.7264 298.097C91.0176 295.997 87.9024 294.372 84.6517 293.356C80.5885 292.137 76.3897 291.528 72.1233 291.596C59.7302 291.596 47.4049 291.596 35.0119 291.596C32.9802 291.596 33.1834 291.46 33.1834 293.492C33.1834 325.93 33.1834 358.369 33.1834 390.875C33.1834 392.907 32.9802 392.839 35.1473 392.839H72.8682C74.2904 392.839 75.7125 392.839 77.0669 392.771C80.7916 392.636 84.4486 391.891 87.9024 390.537C95.8935 387.421 101.176 381.733 103.546 373.403C104.833 368.866 105.104 364.125 104.291 359.452C102.937 351.258 98.5347 345.299 91.0853 341.574C90.6112 341.371 90.2049 341.168 89.8663 340.829ZM142.215 392.975H170.523C170.997 392.975 171.471 392.975 171.945 392.907C172.148 392.907 172.351 392.704 172.351 392.501C172.351 392.094 172.419 391.688 172.419 391.282C172.419 388.031 172.419 384.713 172.419 381.394C172.419 381.056 172.419 380.785 172.419 380.446C172.419 379.837 172.283 379.701 171.674 379.633C171.064 379.566 170.726 379.633 170.252 379.633H132.328C131.854 379.633 131.38 379.633 130.906 379.633C130.77 379.633 130.635 379.566 130.499 379.498C130.364 379.363 130.499 379.227 130.567 379.092L131.38 378.144C138.219 369.814 144.992 361.484 151.764 353.154C155.895 348.075 160.026 343.064 164.089 337.985C165.714 335.953 167.272 333.854 168.559 331.551C170.184 328.842 171.268 325.93 171.877 322.815C172.69 318.346 172.487 313.808 171.471 309.474C169.1 299.79 163.141 293.289 153.728 290.038C149.935 288.819 146.007 288.209 142.012 288.277C138.694 288.277 135.443 288.683 132.26 289.632C124.133 292.07 118.106 297.081 114.652 304.869C113.095 308.458 112.282 312.251 112.147 316.111C112.079 317.465 112.147 317.533 113.501 317.533H125.691C125.894 317.533 126.097 317.533 126.3 317.533C126.842 317.533 126.978 317.397 126.978 316.923C126.978 316.585 126.978 316.314 127.045 315.975C127.113 314.282 127.452 312.521 127.994 310.896C129.28 306.833 132.463 303.65 136.526 302.431C139.506 301.415 142.689 301.28 145.804 301.889C151.087 302.905 154.744 305.885 156.437 310.964C158.333 316.246 157.791 322.138 154.879 326.946C153.863 328.639 152.712 330.264 151.425 331.754L121.763 367.782L112.688 378.753C112.214 379.159 111.944 379.769 111.944 380.446C111.944 384.306 111.944 388.166 111.944 392.027C111.944 392.839 112.011 392.907 112.824 392.975C113.23 392.975 113.637 392.975 114.111 392.975H142.215ZM155.895 431.982C155.556 431.847 155.15 431.779 154.811 431.847H143.84C143.569 431.847 143.299 431.847 143.095 431.847C142.825 431.847 142.554 432.05 142.486 432.321C142.486 432.389 142.486 432.389 142.486 432.456V436.994C142.418 437.264 142.621 437.535 142.892 437.535C142.96 437.535 142.96 437.535 143.028 437.535C144.721 437.535 146.481 437.535 148.175 437.535C148.513 437.535 148.852 437.4 149.258 437.739C148.716 439.432 147.43 440.786 145.804 441.531C143.095 442.75 139.98 442.344 137.678 440.447C134.833 438.28 133.75 435.301 134.224 431.711C134.766 428.325 137.204 425.549 140.454 424.601C143.976 423.72 146.82 424.871 149.055 427.58C149.326 427.919 149.529 428.393 150.071 428.732C151.29 427.58 152.576 426.429 153.795 425.278C154.066 425.007 153.999 424.736 153.795 424.465C152.17 421.892 149.732 419.928 146.82 418.912C144.179 418.099 141.335 417.964 138.626 418.641C132.937 420.131 128.603 424.871 127.723 430.696C127.384 432.795 127.452 434.962 127.994 437.061C129.483 442.75 133.005 446.61 138.761 448.1C140.59 448.574 142.486 448.642 144.382 448.235C147.497 447.694 150.274 446.475 152.441 444.037C155.556 440.447 156.504 436.452 155.895 431.982ZM88.1056 433.133V446.136C88.1056 446.542 88.1056 446.949 88.1056 447.423C88.1056 447.694 88.3087 447.897 88.5796 447.897C88.7828 447.897 88.9859 447.897 89.1891 447.897H98.1283C99.3473 447.897 100.499 447.761 101.718 447.49C106.864 446.204 110.25 443.089 111.74 438.009C112.621 435.097 112.621 431.982 111.876 429.07C110.657 424.127 107.677 420.808 102.801 419.251C101.176 418.777 99.5505 418.573 97.8574 418.641C95.0131 418.641 92.2366 418.641 89.3923 418.641C89.1214 418.641 88.8505 418.641 88.6473 418.641C88.3764 418.641 88.1733 418.844 88.1733 419.115C88.1733 419.521 88.1733 419.928 88.1733 420.402L88.1056 433.133ZM190.094 447.694C190.162 447.761 190.297 447.829 190.365 447.829C192.126 447.829 193.887 447.829 195.715 447.829C196.054 447.829 196.325 447.626 196.392 447.355C197.002 445.933 197.611 444.443 198.153 443.021C198.288 442.479 198.83 442.073 199.372 442.14C202.555 442.14 205.738 442.14 208.921 442.14H209.395C209.598 442.14 209.801 442.276 209.869 442.479C210.004 442.885 210.207 443.224 210.343 443.63C210.817 444.849 211.359 446.068 211.833 447.287C211.9 447.626 212.239 447.897 212.645 447.897C214.338 447.897 216.099 447.897 217.792 447.897C218.199 447.897 218.334 447.694 218.199 447.287C218.063 446.881 217.928 446.61 217.792 446.271L207.16 420.266C207.025 419.86 206.821 419.521 206.686 419.115C206.618 418.777 206.28 418.573 205.941 418.641C204.722 418.641 203.571 418.641 202.352 418.641C201.878 418.573 201.404 418.912 201.268 419.318C200.726 420.74 200.185 422.163 199.575 423.517C196.528 431.102 193.48 438.687 190.433 446.339C190.297 446.746 189.959 447.152 190.094 447.694ZM170.658 424.533C170.861 424.736 171.2 424.804 171.471 424.804H173.976C174.857 424.804 175.737 424.804 176.618 424.804C177.092 424.804 177.227 424.939 177.295 425.481C177.362 426.023 177.295 426.429 177.295 426.903V446.001C177.295 446.407 177.295 446.813 177.295 447.287C177.295 447.829 177.43 447.965 177.972 447.965C179.462 447.965 180.884 447.965 182.374 447.965C183.864 447.965 183.728 447.965 183.728 446.542C183.728 439.906 183.728 433.269 183.728 426.632C183.728 424.601 183.525 424.804 185.625 424.804C187.047 424.804 188.469 424.804 189.823 424.804C190.162 424.804 190.433 424.668 190.433 424.262C190.433 422.569 190.433 420.808 190.433 419.115C190.433 418.844 190.23 418.641 189.959 418.641C189.959 418.641 189.959 418.641 189.891 418.641C189.552 418.641 189.146 418.641 188.807 418.641H172.283C171.945 418.641 171.538 418.641 171.2 418.641C170.861 418.641 170.59 418.777 170.59 419.183L170.658 424.533ZM229.373 441.531V420.537C229.373 420.131 229.373 419.725 229.373 419.251C229.373 418.573 229.305 418.506 228.695 418.506C227.07 418.506 225.445 418.506 223.819 418.506C223.21 418.506 223.142 418.641 223.075 419.251C223.075 419.589 223.075 419.996 223.075 420.334V446.001C223.075 446.339 223.075 446.61 223.075 446.949C223.075 447.694 223.21 447.761 223.887 447.829H237.499C237.906 447.829 238.041 447.558 238.041 447.22C238.041 445.527 238.041 443.901 238.041 442.208C238.041 441.599 237.906 441.531 237.296 441.531C235.264 441.531 233.233 441.531 231.201 441.531H229.373ZM166.798 433.269V426.835C166.798 424.465 166.798 422.027 166.798 419.657C166.798 418.573 166.798 418.573 165.647 418.573C164.495 418.573 163.344 418.573 162.193 418.573C160.229 418.573 160.432 418.438 160.432 420.334V446.271C160.432 446.61 160.432 447.016 160.432 447.355C160.432 447.694 160.703 447.897 161.042 447.897H164.766C165.24 447.897 165.714 447.897 166.188 447.897C166.527 447.897 166.798 447.761 166.798 447.355C166.798 446.949 166.798 446.61 166.798 446.271V433.269ZM117.023 433.133V446.136C117.023 446.542 117.023 446.949 117.023 447.423C117.023 447.694 117.158 447.897 117.429 447.897H117.497H122.779C123.05 447.897 123.253 447.694 123.253 447.49V447.423C123.253 447.084 123.253 446.678 123.253 446.339C123.253 437.603 123.253 428.935 123.253 420.199C123.253 419.86 123.253 419.454 123.253 419.115C123.253 418.844 123.05 418.641 122.847 418.641H122.779H117.429C117.158 418.641 116.955 418.844 116.955 419.115V419.183C116.955 419.589 116.955 419.996 116.955 420.402L117.023 433.133Z" fill="#06EAC3"/>
<path d="M320.729 353.832C320.797 353.832 320.932 353.832 321 353.832V371.033H320.865H320.729C320.729 370.288 320.661 369.611 320.661 368.866C320.661 364.328 320.661 359.859 320.661 355.321C320.661 354.847 320.661 354.306 320.729 353.832Z" fill="#8FF6E5"/>
<path d="M166.866 522.661C166.866 522.729 166.866 522.865 166.866 523H154.337C154.337 522.932 154.337 522.797 154.337 522.661C154.744 522.661 155.15 522.594 155.556 522.594C158.942 522.729 162.261 522.729 165.647 522.594C166.053 522.594 166.46 522.661 166.866 522.661Z" fill="#8FF6E5"/>
<path d="M-0.0680269 355.728L0.406032 355.66C0.541475 356.811 0.473745 358.03 0.270581 359.182C0.270581 359.385 -0.000299142 359.588 -0.135742 359.859V355.728H-0.0680269Z" fill="#8FF6E5"/>
<path d="M169.372 201.932V202.271C167.272 202.406 165.173 202.271 163.141 201.932H169.372Z" fill="#8FF6E5"/>
<path d="M152.17 202.203V201.865H157.791C155.963 202.271 154.067 202.339 152.17 202.203Z" fill="#8FF6E5"/>
<path d="M260.051 363.177C260.525 363.11 260.525 362.703 260.593 362.432C261.405 359.114 262.218 355.728 263.031 352.41C267.365 334.599 271.699 316.72 276.033 298.91C276.575 296.81 277.049 294.643 277.591 292.544C277.794 291.663 277.862 291.663 278.742 291.663C283.483 291.663 288.223 291.663 292.964 291.663C293.099 291.663 293.167 291.663 293.302 291.663C293.708 291.731 293.912 291.867 293.776 292.273C293.641 292.679 293.641 292.95 293.505 293.356C284.972 325.998 276.439 358.64 267.907 391.282C267.433 392.975 267.771 392.907 265.875 392.907H255.852C255.514 392.907 255.243 392.907 254.904 392.907C254.227 392.907 254.091 392.839 253.888 392.162C253.346 390.334 252.805 388.573 252.331 386.744L234.114 324.102C233.978 323.696 233.843 323.289 233.775 322.883C233.707 322.815 233.639 322.748 233.572 322.748C233.504 322.748 233.369 322.815 233.369 322.883C233.301 323.154 233.165 323.357 233.098 323.628L230.05 334.125L213.526 391.417C213.052 392.975 213.255 392.907 211.698 392.907H201.201C200.862 392.907 200.591 392.907 200.253 392.907C199.982 392.907 199.711 392.772 199.643 392.501C199.576 392.23 199.44 391.891 199.372 391.62C193.955 370.83 188.537 350.039 183.051 329.249C179.936 317.465 176.889 305.614 173.774 293.83C173.164 291.596 172.826 291.799 175.399 291.799H187.589C187.927 291.799 188.334 291.799 188.672 291.799C189.35 291.867 189.417 291.867 189.62 292.611C190.162 294.711 190.636 296.742 191.178 298.842C195.512 316.653 199.846 334.531 204.181 352.342C205.061 355.863 205.874 359.317 206.754 362.839C206.822 363.042 206.822 363.245 206.957 363.516C207.364 363.38 207.431 362.974 207.499 362.703C208.65 358.572 209.802 354.441 210.953 350.378C216.303 331.416 221.653 312.454 226.935 293.424C227.409 291.731 227.138 291.799 229.034 291.799H238.583C239.734 291.799 239.734 291.799 240.073 292.95C241.631 298.503 243.188 303.989 244.746 309.542C249.689 327.082 254.565 344.622 259.509 362.094C259.78 362.365 259.915 362.771 260.051 363.177Z" fill="#232021"/>
<path d="M89.8663 340.829C90.2049 341.168 90.6112 341.371 91.0853 341.506C98.5346 345.231 102.937 351.19 104.291 359.385C105.104 364.058 104.833 368.798 103.546 373.335C101.244 381.665 95.9612 387.286 87.9024 390.469C84.4486 391.823 80.7916 392.568 77.0669 392.704C75.6448 392.771 74.2226 392.771 72.8682 392.771H35.1473C32.9802 392.771 33.1834 392.907 33.1834 390.808C33.1834 358.369 33.1834 325.863 33.1834 293.424C33.1834 291.46 32.9802 291.528 35.0119 291.528C47.4049 291.528 59.7302 291.528 72.1233 291.528C76.322 291.46 80.5884 292.07 84.6517 293.289C87.9701 294.304 91.0176 295.93 93.7264 298.029C98.7378 302.092 101.582 307.375 102.666 313.673C103.14 316.178 103.207 318.752 103.004 321.325C102.598 327.691 99.5505 333.515 94.6745 337.578C93.5232 338.527 92.2366 339.407 90.8821 340.084C90.5435 340.355 90.0695 340.423 89.8663 340.829ZM48.5562 363.516C48.5562 368.256 48.5562 372.997 48.5562 377.737C48.5562 378.956 48.5562 378.956 49.7752 378.956C50.1138 378.956 50.5201 378.956 50.8587 378.956H66.9764C68.8726 378.956 70.8365 378.956 72.7327 378.956C74.6967 378.956 76.6606 378.753 78.6245 378.211C83.8391 376.654 87.2929 373.335 88.715 368.053C89.3922 365.683 89.46 363.177 89.1214 360.739C88.241 354.915 84.9226 350.987 79.3017 349.091C77.3378 348.414 75.3739 348.143 73.3422 348.143H49.8429C49.572 348.143 49.3011 348.143 49.0302 348.143C48.6239 348.143 48.4884 348.414 48.4884 348.752C48.4884 349.091 48.4884 349.565 48.4884 350.039L48.5562 363.516ZM48.5562 319.971V332.635C48.5562 333.041 48.5562 333.447 48.5562 333.921C48.5562 334.192 48.7593 334.396 49.0302 334.396C49.0302 334.396 49.0302 334.396 49.0979 334.396C49.572 334.396 50.046 334.396 50.5201 334.396H69.0758C70.1593 334.396 71.2429 334.396 72.3941 334.396C75.3739 334.328 78.2859 333.583 80.927 332.228C84.1777 330.468 86.5479 327.352 87.2929 323.763C87.6992 321.935 87.7669 320.039 87.6315 318.142C87.496 316.585 87.1574 315.027 86.4802 313.605C84.9226 310.083 82.146 307.849 78.4891 306.562C76.1865 305.817 73.8163 305.411 71.446 305.411C64.2676 305.411 57.0214 305.411 49.8429 305.411C48.4884 305.411 48.4884 305.411 48.4884 306.833C48.4884 311.235 48.4884 315.569 48.5562 319.971Z" fill="#232021"/>
<path d="M142.215 392.907H114.178C113.772 392.907 113.366 392.907 112.892 392.907C112.079 392.907 112.011 392.772 112.011 391.959C112.011 388.099 112.011 384.239 112.011 380.378C112.011 379.769 112.282 379.159 112.756 378.685L121.831 367.715L151.493 331.687C152.78 330.197 153.931 328.571 154.947 326.878C157.791 322.07 158.4 316.178 156.504 310.896C154.811 305.817 151.154 302.77 145.872 301.821C142.757 301.212 139.574 301.415 136.594 302.363C132.531 303.582 129.348 306.765 128.061 310.828C127.519 312.454 127.181 314.147 127.113 315.908C127.113 316.246 127.113 316.517 127.045 316.856C126.978 317.33 126.842 317.465 126.368 317.465C126.165 317.465 125.962 317.465 125.759 317.465H113.569C112.214 317.465 112.147 317.397 112.214 316.043C112.35 312.183 113.162 308.39 114.72 304.801C118.242 296.946 124.201 292.002 132.328 289.564C135.511 288.616 138.761 288.209 142.08 288.209C146.075 288.142 150.003 288.684 153.795 289.97C163.209 293.221 169.168 299.722 171.538 309.406C172.622 313.808 172.757 318.346 171.945 322.747C171.403 325.863 170.252 328.775 168.626 331.484C167.272 333.718 165.782 335.885 164.157 337.917C160.026 342.996 155.963 348.075 151.831 353.087C145.059 361.416 138.219 369.746 131.447 378.076L130.635 379.024C130.567 379.159 130.431 379.295 130.567 379.43C130.702 379.498 130.838 379.566 130.973 379.566C131.447 379.566 131.921 379.566 132.395 379.566H170.319C170.794 379.566 171.268 379.566 171.742 379.566C172.216 379.566 172.419 379.769 172.487 380.378C172.487 380.717 172.487 380.988 172.487 381.327C172.487 384.645 172.487 387.896 172.487 391.214C172.487 391.62 172.487 392.027 172.419 392.433C172.419 392.636 172.216 392.839 172.012 392.839C171.538 392.839 171.064 392.907 170.59 392.907H142.215Z" fill="#FDFFFE"/>
<path d="M155.895 431.914C156.572 436.452 155.556 440.447 152.509 443.969C150.342 446.407 147.565 447.558 144.45 448.168C142.621 448.506 140.658 448.506 138.829 448.032C133.005 446.542 129.551 442.682 128.061 436.994C127.52 434.894 127.452 432.727 127.79 430.628C128.739 424.804 133.005 420.063 138.694 418.573C141.402 417.896 144.247 418.031 146.888 418.844C149.8 419.86 152.238 421.824 153.863 424.397C154.066 424.668 154.134 424.939 153.863 425.21C152.644 426.361 151.358 427.58 150.139 428.664C149.597 428.325 149.461 427.919 149.123 427.512C146.82 424.804 144.044 423.652 140.522 424.533C137.204 425.481 134.766 428.257 134.292 431.644C133.818 435.165 134.901 438.145 137.746 440.38C140.048 442.276 143.163 442.682 145.872 441.463C147.497 440.718 148.784 439.364 149.326 437.671C148.92 437.332 148.581 437.468 148.242 437.468C146.549 437.468 144.789 437.468 143.096 437.468C142.825 437.535 142.554 437.332 142.554 437.061C142.554 436.994 142.554 436.994 142.554 436.926V432.388C142.554 432.118 142.757 431.847 143.028 431.779C143.096 431.779 143.096 431.779 143.163 431.779C143.434 431.779 143.705 431.779 143.908 431.779H154.879C155.218 431.711 155.556 431.779 155.895 431.914Z" fill="#000302"/>
<path d="M88.106 433.133V420.334C88.106 419.928 88.106 419.521 88.106 419.047C88.106 418.777 88.3091 418.573 88.58 418.573C88.8509 418.573 89.1218 418.573 89.3249 418.573C92.1692 418.573 94.9458 418.573 97.7901 418.573C99.4832 418.506 101.108 418.777 102.734 419.183C107.61 420.74 110.59 424.127 111.808 429.002C112.553 431.982 112.486 435.03 111.673 437.942C110.183 443.021 106.797 446.136 101.65 447.423C100.499 447.694 99.28 447.829 98.061 447.829H89.1895C88.9863 447.829 88.7832 447.829 88.58 447.829C88.3091 447.829 88.106 447.626 88.106 447.355C88.106 446.949 88.106 446.542 88.106 446.068V433.133ZM94.4718 433.133C94.4718 435.165 94.4718 437.197 94.4718 439.228C94.4041 440.177 94.4041 441.125 94.6072 442.005C95.5553 442.411 96.5711 442.14 97.5192 442.14C98.9414 442.14 100.296 441.87 101.583 441.192C103.411 440.38 104.765 438.89 105.307 436.994C105.984 434.759 106.052 432.456 105.578 430.221C105.375 429.341 105.036 428.528 104.63 427.783C103.885 426.429 102.666 425.413 101.244 424.939C99.8895 424.465 98.5351 424.194 97.1129 424.127C96.4357 424.059 95.7585 424.127 95.0813 424.127C94.6749 424.127 94.5395 424.397 94.5395 424.736C94.5395 425.075 94.5395 425.481 94.5395 425.82C94.4718 428.19 94.4718 430.696 94.4718 433.133Z" fill="#000202"/>
<path d="M190.094 447.694C189.959 447.152 190.365 446.678 190.5 446.204C193.548 438.619 196.595 430.966 199.643 423.382C200.185 421.959 200.794 420.605 201.336 419.183C201.471 418.709 201.945 418.438 202.419 418.506C203.638 418.506 204.79 418.506 206.009 418.506C206.347 418.438 206.618 418.641 206.754 418.98C206.889 419.386 207.092 419.725 207.228 420.131L217.86 446.204C217.995 446.542 218.131 446.881 218.266 447.22C218.402 447.558 218.266 447.829 217.86 447.829C216.167 447.829 214.406 447.829 212.713 447.829C212.307 447.829 212.036 447.558 211.9 447.22C211.426 446.001 210.952 444.782 210.411 443.563C210.275 443.156 210.072 442.818 209.937 442.411C209.869 442.208 209.666 442.073 209.462 442.073H208.988C205.806 442.073 202.623 442.073 199.44 442.073C198.83 442.005 198.288 442.411 198.221 442.953C197.679 444.443 197.069 445.865 196.46 447.287C196.392 447.558 196.121 447.829 195.783 447.761C194.022 447.761 192.261 447.761 190.433 447.761C190.297 447.897 190.23 447.761 190.094 447.694ZM207.431 436.858C207.431 436.655 207.363 436.384 207.295 436.181C206.347 433.743 205.331 431.373 204.383 428.935C204.316 428.732 204.113 428.596 203.909 428.596C202.894 431.305 201.742 433.946 200.659 436.858C203.029 436.858 205.128 436.858 207.431 436.858Z" fill="#000302"/>
<path d="M170.658 424.533V419.115C170.658 418.709 170.929 418.573 171.268 418.573C171.606 418.573 172.013 418.573 172.351 418.573H188.808C189.146 418.573 189.553 418.573 189.891 418.573C190.162 418.573 190.365 418.709 190.365 418.98C190.365 418.98 190.365 418.98 190.365 419.048C190.365 420.741 190.365 422.501 190.365 424.194C190.365 424.601 190.094 424.736 189.756 424.736C188.334 424.736 186.911 424.736 185.557 424.736C183.525 424.736 183.661 424.533 183.661 426.565C183.661 433.201 183.661 439.838 183.661 446.475C183.661 447.897 183.728 447.897 182.306 447.897C180.884 447.897 179.394 447.897 177.904 447.897C177.363 447.897 177.295 447.761 177.227 447.22C177.227 446.813 177.227 446.407 177.227 445.933V426.836C177.227 426.361 177.227 425.887 177.227 425.413C177.227 424.939 177.092 424.736 176.55 424.736C175.67 424.736 174.789 424.736 173.909 424.736H171.403C171.132 424.804 170.861 424.668 170.658 424.533Z" fill="#000504"/>
<path d="M229.373 441.599H231.133C233.165 441.599 235.197 441.599 237.228 441.599C237.906 441.599 237.973 441.667 237.973 442.276C237.973 443.969 237.973 445.594 237.973 447.287C237.973 447.626 237.838 447.897 237.432 447.897H223.82C223.142 447.897 223.075 447.761 223.007 447.017C223.007 446.678 223.007 446.407 223.007 446.068V420.402C223.007 420.063 223.007 419.657 223.007 419.318C223.007 418.709 223.142 418.573 223.752 418.573C225.377 418.573 227.002 418.573 228.628 418.573C229.237 418.573 229.305 418.709 229.305 419.318C229.305 419.725 229.305 420.131 229.305 420.605L229.373 441.599Z" fill="#000403"/>
<path d="M166.798 433.269V446.272C166.798 446.61 166.798 447.016 166.798 447.355C166.798 447.694 166.595 447.897 166.189 447.897C165.715 447.897 165.241 447.897 164.766 447.897H161.042C160.703 447.897 160.432 447.761 160.432 447.355C160.432 446.949 160.432 446.61 160.432 446.272V420.334C160.432 418.438 160.297 418.573 162.193 418.573C163.344 418.573 164.496 418.573 165.647 418.573C166.798 418.573 166.798 418.573 166.798 419.657C166.798 422.027 166.798 424.465 166.798 426.835V433.269Z" fill="#000907"/>
<path d="M117.022 433.134V420.334C117.022 419.928 117.022 419.522 117.022 419.115C117.022 418.844 117.158 418.641 117.429 418.641H117.497H122.847C123.117 418.641 123.321 418.844 123.321 419.047V419.115C123.321 419.454 123.321 419.86 123.321 420.199C123.321 428.867 123.321 437.603 123.321 446.339C123.321 446.678 123.321 447.084 123.321 447.423C123.321 447.694 123.117 447.897 122.914 447.897H122.847H117.564C117.293 447.897 117.09 447.694 117.09 447.49V447.423C117.09 447.016 117.09 446.61 117.09 446.136L117.022 433.134Z" fill="#000202"/>
<path d="M48.4888 363.516V350.039C48.4888 349.633 48.4888 349.227 48.4888 348.753C48.4888 348.346 48.6242 348.143 49.0305 348.143C49.3014 348.143 49.5723 348.143 49.8432 348.143H73.3426C75.3742 348.143 77.4059 348.482 79.3698 349.091C84.9907 350.987 88.2413 354.915 89.1894 360.739C89.5957 363.177 89.4603 365.683 88.7831 368.053C87.2932 373.335 83.8394 376.586 78.6248 378.211C76.7286 378.753 74.7647 379.024 72.7331 378.956C70.7691 378.956 68.8729 378.956 66.909 378.956H50.7913C50.4527 378.956 50.0464 378.956 49.7077 378.956C48.4888 378.956 48.4888 378.889 48.4888 377.737C48.4888 372.997 48.4888 368.256 48.4888 363.516Z" fill="#06E9C2"/>
<path d="M48.4888 319.971C48.4888 315.569 48.4888 311.167 48.4888 306.833C48.4888 305.411 48.4888 305.411 49.8432 305.411C57.0217 305.411 64.2679 305.411 71.4464 305.411C73.8843 305.411 76.2546 305.749 78.5571 306.562C82.1464 307.849 84.9229 310.083 86.5483 313.605C87.1577 315.027 87.5641 316.585 87.6995 318.142C87.9027 320.038 87.7672 321.935 87.3609 323.763C86.616 327.42 84.2457 330.468 80.9274 332.228C78.2862 333.583 75.3742 334.328 72.3945 334.395C71.3109 334.463 70.2274 334.395 69.0761 334.395H50.4527C49.9786 334.395 49.5046 334.395 49.0305 334.395C48.7596 334.395 48.5565 334.192 48.5565 333.989C48.5565 333.989 48.5565 333.989 48.5565 333.921C48.5565 333.515 48.5565 333.109 48.5565 332.635L48.4888 319.971Z" fill="#06E9C2"/>
<path d="M94.4717 433.134C94.4717 430.696 94.4717 428.258 94.4717 425.752C94.4717 425.413 94.4717 425.007 94.4717 424.668C94.4717 424.33 94.6748 424.059 95.0134 424.059C95.6907 424.059 96.3679 423.991 97.0451 424.059C98.4672 424.127 99.8217 424.398 101.176 424.872C102.598 425.346 103.817 426.429 104.562 427.716C105.036 428.461 105.375 429.341 105.578 430.222C106.052 432.456 105.984 434.827 105.375 437.061C104.833 438.958 103.479 440.448 101.65 441.26C100.363 441.87 99.009 442.208 97.5869 442.208C96.6388 442.208 95.6229 442.479 94.6748 442.073C94.5394 441.125 94.4717 440.244 94.5394 439.296C94.4717 437.197 94.4717 435.165 94.4717 433.134Z" fill="#06E8C1"/>
<path d="M207.431 436.858C205.128 436.858 202.961 436.858 200.659 436.858C201.675 433.946 202.826 431.305 203.909 428.596C204.113 428.596 204.316 428.732 204.383 428.935C205.331 431.305 206.347 433.743 207.295 436.181C207.363 436.384 207.431 436.587 207.431 436.858Z" fill="#06E8C1"/>
</g>
<defs>
<clipPath id="clip0_431_2">
<rect width="321" height="700" fill="white"/>
</clipPath>
</defs>
</svg>
