<svg width="705" height="700" viewBox="0 0 705 700" fill="none" xmlns="http://www.w3.org/2000/svg">
<g clip-path="url(#clip0_431_581)">
<path d="M344.217 306.899H422.857V330.756H371.463V347.451H417.945V370.029H371.463V405.103H344.217V306.899Z" fill="#003E7E"/>
<mask id="mask0_431_581" style="mask-type:luminance" maskUnits="userSpaceOnUse" x="-212" y="24" width="5608" height="3968">
<path d="M-211.433 3991.9H5395.31V24.9167H-211.433V3991.9Z" fill="white"/>
</mask>
<g mask="url(#mask0_431_581)">
<path d="M433.279 356.28V355.994C433.279 327.39 455.745 304.939 486.216 304.939C503.49 304.939 515.709 310.268 526.11 319.241L510.094 338.46C503.067 332.571 496.045 329.207 486.365 329.207C472.173 329.207 461.223 341.127 461.223 356.148V356.422C461.223 372.272 472.316 383.621 487.908 383.621C494.502 383.621 499.562 382.222 503.633 379.566V367.64H484.255V347.724H529.473V391.903C519.083 400.464 504.617 407.061 486.777 407.061C456.163 407.061 433.279 386.02 433.279 356.28Z" fill="#003E7E"/>
</g>
<path d="M531.039 306.899H561.51L583.839 369.041L606.173 306.899H636.095L596.206 405.8H570.922L531.039 306.899Z" fill="#003E7E"/>
<path d="M68.9048 306.869L155.593 405.018H231.441L144.759 306.869H68.9048Z" fill="#003E7E"/>
<path d="M253.302 365.305L318.112 306.868H242.27L207.7 338.024L253.302 365.305Z" fill="#008FD0"/>
</g>
<defs>
<clipPath id="clip0_431_581">
<rect width="705" height="700" fill="white"/>
</clipPath>
</defs>
</svg>
