<svg width="853" height="700" viewBox="0 0 853 700" fill="none" xmlns="http://www.w3.org/2000/svg">
<path d="M338.976 294.333C338.976 294.333 338.714 294.333 338.584 294.333C338.453 294.333 338.322 294.333 338.322 294.333H312.81C307.708 295.118 306.138 301.007 306.138 301.007C300.774 325.871 296.98 343.407 292.401 355.97C285.075 376.385 277.618 387.377 254.984 384.76L272.908 300.876V300.745C272.908 300.353 273.039 300.091 273.039 299.698C273.039 296.819 270.815 294.464 267.936 294.333H222.539C222.539 294.333 219.007 311.214 219.007 311.476C218.352 314.486 220.838 315.01 223.586 316.449L232.351 321.16C232.351 321.16 212.988 407.661 212.858 413.158C212.858 416.037 215.213 418.392 217.96 418.523C217.96 418.523 260.479 418.523 260.741 418.523C263.619 418.523 268.721 417.869 272.123 417.345C296.98 413.55 315.558 400.726 325.37 369.711C330.603 353.091 337.014 331.76 343.424 302.447C343.555 302.185 343.555 301.923 343.555 301.531C343.686 301.007 343.817 300.484 343.817 299.96V299.698C344.078 296.819 341.854 294.464 338.976 294.333Z" fill="#05453B"/>
<path d="M102.569 301.007L78.4971 413.55C78.4971 413.55 76.9271 418.523 83.3377 418.523H111.073C115.914 418.523 116.306 413.681 116.306 413.681L135.277 324.694C135.277 324.694 147.574 321.945 157.256 323.908C163.012 325.086 163.928 328.489 163.405 332.807C163.012 336.471 148.883 396.407 146.135 413.812C145.612 416.822 146.397 418.523 150.583 418.523H179.235C183.552 418.523 184.337 413.42 184.337 413.42C184.337 413.42 200.429 342.753 201.999 333.985C203.7 323.516 204.615 311.215 192.972 302.578C179.235 292.37 151.238 293.81 140.771 294.464C130.436 295.249 102.569 301.007 102.569 301.007Z" fill="#05453B"/>
<path d="M85.1693 258.869H57.5646C52.2006 258.869 51.6773 262.795 51.6773 262.795L47.6216 282.294C47.6216 282.294 46.8367 285.827 49.584 285.827H80.067C82.0294 285.827 83.7302 284.126 84.2535 282.163C84.3844 281.639 88.1784 263.318 88.1784 263.318C89.3558 258.869 85.1693 258.869 85.1693 258.869Z" fill="#05453B"/>
<path d="M75.8804 294.333H29.3056C29.3056 294.333 25.904 311.214 25.7732 311.476C25.1191 314.486 27.7356 315.01 30.3522 316.449L39.1177 321.16L19.3626 414.205C19.3626 414.205 18.316 418.392 23.2875 418.392H50.7614C55.9945 418.392 56.7795 413.55 56.7795 413.55L80.9827 300.614C81.6369 297.081 78.7586 294.464 75.8804 294.333Z" fill="#05453B"/>
<path d="M457.245 365.654C456.329 369.057 454.236 371.019 451.358 371.019H379.271C379.271 371.019 379.14 371.281 379.01 374.029C378.355 385.676 383.719 389.733 397.98 389.733C412.109 389.733 442.069 387.77 442.33 387.77C444.293 387.77 445.994 388.686 445.732 390.649C445.601 392.219 441.545 408.316 441.545 408.316C440.63 411.849 439.714 413.55 435.527 414.336C420.351 418 407.661 419.701 388.037 419.701C363.833 419.701 341.723 405.829 343.555 374.553C343.817 370.758 347.872 352.437 347.872 352.437C356.9 313.439 381.626 293.417 418.389 293.417C448.741 293.417 463.132 314.094 461.824 340.266C461.824 344.716 457.245 365.654 457.245 365.654ZM411.717 322.861C396.41 322.861 388.691 333.2 384.373 348.642H426.631C427.547 344.978 428.201 341.706 428.332 338.827C428.855 328.489 424.276 322.861 411.717 322.861Z" fill="#05453B"/>
<path d="M829.058 294.202H811.789C780.129 294.726 757.234 313.177 749.515 345.763L735.255 413.681C735.255 413.681 733.554 418.392 738.656 418.392H764.429C768.747 418.392 769.27 413.812 769.27 413.812L781.829 353.876C786.408 336.471 795.828 328.489 811.92 328.096C812.051 328.096 829.582 328.096 829.582 328.096L835.076 301.661C834.946 301.531 836.516 294.202 829.058 294.202Z" fill="#05453B"/>
<path d="M488.251 301.007L452.796 466.289C452.796 466.289 451.357 471.131 457.637 471.131H484.719C488.643 471.131 489.821 465.634 489.821 465.634L500.025 418.523H521.874C558.636 417.869 584.41 395.491 593.306 360.289C617.902 262.271 488.251 301.007 488.251 301.007ZM527.369 323.647C532.34 322.992 542.545 322.731 550.002 325.74C550.394 326.002 550.918 326.133 551.31 326.395C560.076 330.321 565.57 338.958 561.122 356.363C556.805 373.637 543.984 385.022 525.799 385.284H507.875L520.827 324.694C520.958 324.694 522.397 324.301 527.369 323.647Z" fill="#05453B"/>
<path d="M683.97 293.417C678.083 293.286 666.308 294.726 661.729 295.642C627.845 302.054 613.584 327.311 607.174 355.84C605.342 363.953 603.772 374.553 603.641 376.516C601.81 403.474 619.079 420.356 647.076 420.748C658.72 420.879 670.756 414.205 678.344 407.138L676.644 414.336C676.644 414.336 675.597 418.523 680.568 418.523H705.818C711.051 418.523 711.836 413.682 711.836 413.682L735.385 303.101C735.516 303.101 715.892 293.941 683.97 293.417ZM682.531 374.291C678.083 379.002 671.149 383.321 663.43 385.415C650.216 389.079 637.264 383.321 639.881 365.916C643.544 342.099 652.964 322.862 678.083 324.17C685.802 324.563 691.166 325.872 693.52 326.919L682.531 374.291Z" fill="#05453B"/>
</svg>
