<svg width="318" height="700" viewBox="0 0 318 700" fill="none" xmlns="http://www.w3.org/2000/svg">
<g clip-path="url(#clip0_431_573)">
<path d="M57.4039 286.789C67.4599 276.191 80.7989 270 96.4697 270C126.998 270 147.239 292.36 151.111 325.857C152.367 336.735 152.355 352.071 152.343 369.834C152.34 371.656 152.34 373.503 152.34 375.374V441.919H110.358V392.7C110.358 392.7 110.272 350.576 110.016 342.703C108.889 308.415 88.6538 286.87 57.3999 286.847C47.9704 296.84 42.9179 309.06 42.1728 327.743C42.0703 330.349 42.0961 339.586 42.1301 351.76C42.1477 358.067 42.1675 365.163 42.1728 372.534C42.2039 404.615 42.1728 441.926 42.1728 441.926H0.190072V366.179C0.190072 363.584 0.142886 360.966 0.0955914 358.338C0.000375397 353.052 -0.0955952 347.725 0.190072 342.451C0.664406 333.658 2.18072 325.014 6.27084 316.984C15.6331 298.588 34.8164 286.744 55.2673 286.744C55.9817 286.744 56.6967 286.761 57.4039 286.789Z" fill="#820AD1"/>
<path d="M317.81 373.55C318.096 368.276 318 362.948 317.905 357.663C317.857 355.035 317.81 352.417 317.81 349.822V274.075H275.828C275.828 274.075 275.796 311.386 275.828 343.467C275.833 350.837 275.853 357.933 275.87 364.24C275.904 376.415 275.93 385.651 275.828 388.257C275.083 406.941 270.03 419.16 260.601 429.154C229.347 429.132 209.113 407.585 207.985 373.298C207.729 365.425 207.62 345.888 207.62 323.261V274.043L165.669 274.081V340.626C165.669 342.497 165.666 344.344 165.666 346.166C165.653 363.929 165.642 379.265 166.898 390.143C170.762 423.64 191.003 446 221.531 446C237.203 446 250.542 439.809 260.598 429.211C261.304 429.239 262.019 429.255 262.733 429.255C283.184 429.255 302.367 417.411 311.73 399.015C315.82 390.984 317.336 382.341 317.81 373.548L317.81 373.55Z" fill="#820AD1"/>
</g>
<defs>
<clipPath id="clip0_431_573">
<rect width="318" height="700" fill="white"/>
</clipPath>
</defs>
</svg>
