<svg width="199" height="58" viewBox="0 0 199 58" fill="none" xmlns="http://www.w3.org/2000/svg">
<g clip-path="url(#clip0_83_29)">
<path d="M28.42 46.7803V55L13.3574 42.946L0 30.892L4.23994 32.2771C5.01097 32.529 5.75275 32.8623 6.45256 33.2716L16.2747 39.0146C17.7346 39.8683 19.2951 40.5381 20.9205 41.0089L25.348 42.2914C25.5009 42.3357 25.6492 42.3949 25.7906 42.468C27.4061 43.3036 28.42 44.9664 28.42 46.7803Z" fill="#6D6D6D"/>
<path d="M11.2152 30.2798L0 30.01L5.66829 31.6519C6.62201 31.9281 7.53528 32.3276 8.38481 32.8403L16.3625 37.6545C17.01 38.0452 17.6951 38.3705 18.4074 38.6256L24.7254 40.888L12.9871 30.9528C12.4912 30.533 11.8657 30.2955 11.2152 30.2798Z" fill="#6D6D6D"/>
<path d="M29.9924 42.165L34.22 38.68L31.9 45.82L29.58 55V43.0383C29.58 42.7005 29.7312 42.3804 29.9924 42.165Z" fill="#6D6D6D"/>
<path d="M58 30.01H45.1886C44.483 30.01 43.8027 30.2714 43.2799 30.7434L37.0504 36.3667C36.3157 37.0299 35.7677 37.8731 35.4609 38.8124L33.2081 45.7088L30.487 55L44.697 41.5438L58 30.01Z" fill="#6D6D6D"/>
<path d="M28.0352 16.8334L24.36 20.065L25.4524 17.5182C26.0181 16.1994 26.4343 14.8218 26.6931 13.4109L28.42 4V15.9836C28.42 16.3087 28.2798 16.6183 28.0352 16.8334Z" fill="#6D6D6D"/>
<path d="M0 28.99H12.8114C13.5169 28.99 14.1973 28.7286 14.7201 28.2566L20.9496 22.6333C21.6843 21.9701 22.2323 21.1269 22.5391 20.1876L24.7919 13.2912L27.513 4L13.303 17.4562L0 28.99Z" fill="#6D6D6D"/>
<path d="M43.1438 28.4914L32.5099 17.8833L32.2169 17.6057L34.2379 17.9647C36.0115 18.2799 37.7496 18.7683 39.4272 19.423C41.0624 20.0611 42.6323 20.8541 44.1154 21.7911L49.6834 25.309C51.5107 26.4634 53.4641 27.4063 55.5059 28.1192L58 28.99H44.3506C43.8979 28.99 43.4637 28.8106 43.1438 28.4914Z" fill="#6D6D6D"/>
<path d="M29.8498 14.9958L29.58 4L44.5225 16.2173L58 28.157L53.4098 25.9819C52.5656 25.5819 51.7644 25.0975 51.0185 24.5361L50.7007 24.297C45.1052 20.0859 38.5562 17.3112 31.6309 16.2173L30.8087 16.0875C30.2666 16.0018 29.8632 15.5426 29.8498 14.9958Z" fill="#6D6D6D"/>
<path d="M28.1831 36.606C27.3915 36.606 26.6614 36.5312 25.9927 36.3816C25.324 36.2456 24.7099 36.0484 24.1503 35.79L23.8023 31.9956H24.4574C24.7986 32.798 25.1466 33.4644 25.5014 33.9948C25.8699 34.5252 26.3066 34.9196 26.8115 35.178C27.3165 35.4228 27.9442 35.5452 28.6948 35.5452C29.5409 35.5452 30.2165 35.3344 30.7214 34.9128C31.2263 34.4912 31.4788 33.8928 31.4788 33.1176C31.4788 32.5736 31.356 32.1316 31.1103 31.7916C30.8647 31.4516 30.4826 31.1592 29.964 30.9144C29.4591 30.656 28.804 30.3908 27.9988 30.1188C27.18 29.8332 26.484 29.5272 25.9108 29.2008C25.3376 28.8744 24.9009 28.4732 24.6007 27.9972C24.3141 27.5212 24.1708 26.9296 24.1708 26.2224C24.1708 25.4064 24.3755 24.706 24.7849 24.1212C25.208 23.5364 25.7812 23.0944 26.5045 22.7952C27.2414 22.4824 28.0671 22.326 28.9814 22.326C29.7047 22.326 30.4007 22.3872 31.0694 22.5096C31.7381 22.632 32.3318 22.8292 32.8503 23.1012L33.0141 26.406H32.4C32.0588 25.4948 31.6972 24.8284 31.3151 24.4068C30.9329 23.9716 30.5235 23.6928 30.0868 23.5704C29.6501 23.448 29.1793 23.3868 28.6743 23.3868C27.8009 23.3868 27.1391 23.5908 26.6887 23.9988C26.2383 24.3932 26.0132 24.8828 26.0132 25.4676C26.0132 25.9708 26.1155 26.3856 26.3202 26.712C26.5249 27.0384 26.8729 27.324 27.3642 27.5688C27.8555 27.8136 28.5311 28.072 29.3908 28.344C30.196 28.6024 30.8988 28.9084 31.4993 29.262C32.1134 29.602 32.5842 30.0372 32.9118 30.5676C33.2529 31.0844 33.4235 31.7372 33.4235 32.526C33.4235 33.3556 33.1915 34.0764 32.7275 34.6884C32.2635 35.3004 31.6358 35.7764 30.8442 36.1164C30.0527 36.4428 29.1656 36.606 28.1831 36.606Z" fill="#6D6D6D"/>
</g>
<path d="M98.8409 24.1818H89.2273C89.1591 23.3864 88.9773 22.6648 88.6818 22.017C88.3977 21.3693 88 20.8125 87.4886 20.3466C86.9886 19.8693 86.3807 19.5057 85.6648 19.2557C84.9489 18.9943 84.1364 18.8636 83.2273 18.8636C81.6364 18.8636 80.2898 19.25 79.1875 20.0227C78.0966 20.7955 77.267 21.9034 76.6989 23.3466C76.142 24.7898 75.8636 26.5227 75.8636 28.5455C75.8636 30.6818 76.1477 32.4716 76.7159 33.9148C77.2955 35.3466 78.1307 36.4261 79.2216 37.1534C80.3125 37.8693 81.625 38.2273 83.1591 38.2273C84.0341 38.2273 84.8182 38.1193 85.5114 37.9034C86.2045 37.6761 86.8068 37.3523 87.3182 36.9318C87.8295 36.5114 88.2443 36.0057 88.5625 35.4148C88.892 34.8125 89.1136 34.1364 89.2273 33.3864L98.8409 33.4545C98.7273 34.9318 98.3125 36.4375 97.5966 37.9716C96.8807 39.4943 95.8636 40.9034 94.5455 42.1989C93.2386 43.483 91.6193 44.517 89.6875 45.3011C87.7557 46.0852 85.5114 46.4773 82.9545 46.4773C79.75 46.4773 76.875 45.7898 74.3295 44.4148C71.7955 43.0398 69.7898 41.017 68.3125 38.3466C66.8466 35.6761 66.1136 32.4091 66.1136 28.5455C66.1136 24.6591 66.8636 21.3864 68.3636 18.7273C69.8636 16.0568 71.8864 14.0398 74.4318 12.6761C76.9773 11.3011 79.8182 10.6136 82.9545 10.6136C85.1591 10.6136 87.1875 10.9148 89.0398 11.517C90.892 12.1193 92.517 13 93.9148 14.1591C95.3125 15.3068 96.4375 16.7216 97.2898 18.4034C98.142 20.0852 98.6591 22.0114 98.8409 24.1818ZM111.131 46H100.903L112.426 11.0909H125.381L136.903 46H126.676L119.04 20.7045H118.767L111.131 46ZM109.222 32.2273H128.449V39.3182H109.222V32.2273ZM157.724 22C157.634 20.8636 157.207 19.9773 156.446 19.3409C155.696 18.7045 154.554 18.3864 153.02 18.3864C152.043 18.3864 151.241 18.5057 150.616 18.7443C150.003 18.9716 149.548 19.2841 149.253 19.6818C148.957 20.0795 148.804 20.5341 148.793 21.0455C148.77 21.4659 148.844 21.8466 149.014 22.1875C149.196 22.517 149.48 22.8182 149.866 23.0909C150.253 23.3523 150.747 23.5909 151.349 23.8068C151.952 24.0227 152.668 24.2159 153.497 24.3864L156.361 25C158.293 25.4091 159.946 25.9489 161.321 26.6193C162.696 27.2898 163.821 28.0795 164.696 28.9886C165.571 29.8864 166.213 30.8977 166.622 32.0227C167.043 33.1477 167.259 34.375 167.27 35.7045C167.259 38 166.685 39.9432 165.548 41.5341C164.412 43.125 162.787 44.3352 160.673 45.1648C158.571 45.9943 156.043 46.4091 153.088 46.4091C150.054 46.4091 147.406 45.9602 145.145 45.0625C142.895 44.1648 141.145 42.7841 139.895 40.9205C138.656 39.0455 138.031 36.6477 138.02 33.7273H147.02C147.077 34.7955 147.344 35.6932 147.821 36.4205C148.298 37.1477 148.969 37.6989 149.832 38.0739C150.707 38.4489 151.747 38.6364 152.952 38.6364C153.963 38.6364 154.81 38.5114 155.491 38.2614C156.173 38.0114 156.69 37.6648 157.043 37.2216C157.395 36.7784 157.577 36.2727 157.588 35.7045C157.577 35.1705 157.401 34.7045 157.06 34.3068C156.73 33.8977 156.185 33.5341 155.423 33.2159C154.662 32.8864 153.634 32.5795 152.338 32.2955L148.861 31.5455C145.77 30.875 143.332 29.7557 141.548 28.1875C139.776 26.608 138.895 24.4545 138.906 21.7273C138.895 19.5114 139.486 17.5739 140.679 15.9148C141.884 14.2443 143.548 12.9432 145.673 12.0114C147.81 11.0795 150.259 10.6136 153.02 10.6136C155.838 10.6136 158.276 11.0852 160.332 12.0284C162.389 12.9716 163.974 14.3011 165.088 16.017C166.213 17.7216 166.781 19.7159 166.793 22H157.724ZM170.875 46V11.0909H196.034V18.7273H180.352V24.7273H194.739V32.3636H180.352V38.3636H195.966V46H170.875Z" fill="#6D6D6D"/>
<defs>
<clipPath id="clip0_83_29">
<rect width="58" height="51" fill="white" transform="translate(0 4)"/>
</clipPath>
</defs>
</svg>
