<svg width="352" height="51" viewBox="0 0 352 51" fill="none" xmlns="http://www.w3.org/2000/svg">
<g clip-path="url(#clip0_83_29)">
<path d="M28.42 42.7803V51L13.3574 38.946L0 26.892L4.23994 28.2771C5.01097 28.529 5.75275 28.8623 6.45256 29.2716L16.2747 35.0146C17.7346 35.8683 19.2951 36.5381 20.9205 37.0089L25.348 38.2914C25.5009 38.3357 25.6492 38.3949 25.7906 38.468C27.4061 39.3036 28.42 40.9664 28.42 42.7803Z" fill="white"/>
<path d="M11.2152 26.2798L0 26.01L5.66829 27.6519C6.62201 27.9281 7.53528 28.3276 8.38481 28.8403L16.3625 33.6545C17.01 34.0452 17.6951 34.3705 18.4074 34.6256L24.7254 36.888L12.9871 26.9528C12.4912 26.533 11.8657 26.2955 11.2152 26.2798Z" fill="white"/>
<path d="M29.9924 38.165L34.22 34.68L31.9 41.82L29.58 51V39.0383C29.58 38.7005 29.7312 38.3804 29.9924 38.165Z" fill="white"/>
<path d="M58 26.01H45.1886C44.483 26.01 43.8027 26.2714 43.2799 26.7434L37.0504 32.3667C36.3157 33.0299 35.7677 33.8731 35.4609 34.8124L33.2081 41.7088L30.487 51L44.697 37.5438L58 26.01Z" fill="white"/>
<path d="M28.0352 12.8334L24.36 16.065L25.4524 13.5182C26.0181 12.1994 26.4343 10.8218 26.6931 9.41092L28.42 0V11.9836C28.42 12.3087 28.2798 12.6183 28.0352 12.8334Z" fill="white"/>
<path d="M0 24.99H12.8114C13.5169 24.99 14.1973 24.7286 14.7201 24.2566L20.9496 18.6333C21.6843 17.9701 22.2323 17.1269 22.5391 16.1876L24.7919 9.29118L27.513 0L13.303 13.4562L0 24.99Z" fill="white"/>
<path d="M43.1438 24.4914L32.5099 13.8833L32.2169 13.6057L34.2379 13.9647C36.0115 14.2799 37.7496 14.7683 39.4272 15.423C41.0624 16.0611 42.6323 16.8541 44.1154 17.7911L49.6834 21.309C51.5107 22.4634 53.4641 23.4063 55.5059 24.1192L58 24.99H44.3506C43.8979 24.99 43.4637 24.8106 43.1438 24.4914Z" fill="white"/>
<path d="M29.8498 10.9958L29.58 0L44.5225 12.2173L58 24.157L53.4098 21.9819C52.5656 21.5819 51.7644 21.0975 51.0184 20.5361L50.7007 20.297C45.1052 16.0859 38.5562 13.3112 31.6309 12.2173L30.8087 12.0875C30.2666 12.0018 29.8632 11.5426 29.8498 10.9958Z" fill="white"/>
<path d="M28.1831 32.606C27.3915 32.606 26.6614 32.5312 25.9927 32.3816C25.324 32.2456 24.7099 32.0484 24.1503 31.79L23.8023 27.9956H24.4574C24.7986 28.798 25.1466 29.4644 25.5014 29.9948C25.8699 30.5252 26.3066 30.9196 26.8115 31.178C27.3165 31.4228 27.9442 31.5452 28.6948 31.5452C29.5409 31.5452 30.2165 31.3344 30.7214 30.9128C31.2263 30.4912 31.4788 29.8928 31.4788 29.1176C31.4788 28.5736 31.356 28.1316 31.1103 27.7916C30.8647 27.4516 30.4826 27.1592 29.964 26.9144C29.4591 26.656 28.804 26.3908 27.9988 26.1188C27.18 25.8332 26.484 25.5272 25.9108 25.2008C25.3376 24.8744 24.9009 24.4732 24.6007 23.9972C24.3141 23.5212 24.1708 22.9296 24.1708 22.2224C24.1708 21.4064 24.3755 20.706 24.7849 20.1212C25.208 19.5364 25.7812 19.0944 26.5045 18.7952C27.2414 18.4824 28.0671 18.326 28.9814 18.326C29.7047 18.326 30.4007 18.3872 31.0694 18.5096C31.7381 18.632 32.3318 18.8292 32.8503 19.1012L33.0141 22.406H32.4C32.0588 21.4948 31.6972 20.8284 31.3151 20.4068C30.9329 19.9716 30.5235 19.6928 30.0868 19.5704C29.6501 19.448 29.1793 19.3868 28.6743 19.3868C27.8009 19.3868 27.1391 19.5908 26.6887 19.9988C26.2383 20.3932 26.0132 20.8828 26.0132 21.4676C26.0132 21.9708 26.1155 22.3856 26.3202 22.712C26.5249 23.0384 26.8729 23.324 27.3642 23.5688C27.8555 23.8136 28.5311 24.072 29.3908 24.344C30.196 24.6024 30.8988 24.9084 31.4993 25.262C32.1134 25.602 32.5842 26.0372 32.9118 26.5676C33.2529 27.0844 33.4235 27.7372 33.4235 28.526C33.4235 29.3556 33.1915 30.0764 32.7275 30.6884C32.2635 31.3004 31.6358 31.7764 30.8442 32.1164C30.0527 32.4428 29.1656 32.606 28.1831 32.606Z" fill="white"/>
</g>
<path d="M87.1307 21.6364H79.9205C79.8693 21.0398 79.733 20.4986 79.5114 20.0128C79.2983 19.527 79 19.1094 78.6165 18.7599C78.2415 18.402 77.7855 18.1293 77.2486 17.9418C76.7116 17.7457 76.1023 17.6477 75.4205 17.6477C74.2273 17.6477 73.2173 17.9375 72.3906 18.517C71.5724 19.0966 70.9503 19.9276 70.5241 21.0099C70.1065 22.0923 69.8977 23.392 69.8977 24.9091C69.8977 26.5114 70.1108 27.8537 70.5369 28.9361C70.9716 30.0099 71.598 30.8196 72.4162 31.3651C73.2344 31.902 74.2188 32.1705 75.3693 32.1705C76.0256 32.1705 76.6136 32.0895 77.1335 31.9276C77.6534 31.7571 78.1051 31.5142 78.4886 31.1989C78.8722 30.8835 79.1832 30.5043 79.4219 30.0611C79.669 29.6094 79.8352 29.1023 79.9205 28.5398L87.1307 28.5909C87.0455 29.6989 86.7344 30.8281 86.1974 31.9787C85.6605 33.1207 84.8977 34.1776 83.9091 35.1491C82.929 36.1122 81.7145 36.8878 80.2656 37.4759C78.8168 38.0639 77.1335 38.358 75.2159 38.358C72.8125 38.358 70.6562 37.8423 68.7472 36.8111C66.8466 35.7798 65.3423 34.2628 64.2344 32.2599C63.1349 30.2571 62.5852 27.8068 62.5852 24.9091C62.5852 21.9943 63.1477 19.5398 64.2727 17.5455C65.3977 15.5426 66.9148 14.0298 68.8239 13.0071C70.733 11.9759 72.8636 11.4602 75.2159 11.4602C76.8693 11.4602 78.3906 11.6861 79.7798 12.1378C81.169 12.5895 82.3878 13.25 83.4361 14.1193C84.4844 14.9801 85.3281 16.0412 85.9673 17.3026C86.6065 18.5639 86.9943 20.0085 87.1307 21.6364ZM115.719 24.9091C115.719 27.8239 115.152 30.2827 114.019 32.2855C112.885 34.2798 111.355 35.7926 109.429 36.8239C107.503 37.8466 105.355 38.358 102.986 38.358C100.6 38.358 98.4435 37.8423 96.5174 36.8111C94.5998 35.7713 93.0742 34.2543 91.9407 32.2599C90.8157 30.2571 90.2532 27.8068 90.2532 24.9091C90.2532 21.9943 90.8157 19.5398 91.9407 17.5455C93.0742 15.5426 94.5998 14.0298 96.5174 13.0071C98.4435 11.9759 100.6 11.4602 102.986 11.4602C105.355 11.4602 107.503 11.9759 109.429 13.0071C111.355 14.0298 112.885 15.5426 114.019 17.5455C115.152 19.5398 115.719 21.9943 115.719 24.9091ZM108.407 24.9091C108.407 23.3409 108.198 22.0199 107.78 20.946C107.371 19.8636 106.762 19.0455 105.952 18.4915C105.151 17.929 104.162 17.6477 102.986 17.6477C101.81 17.6477 100.817 17.929 100.007 18.4915C99.2063 19.0455 98.5969 19.8636 98.1793 20.946C97.7702 22.0199 97.5657 23.3409 97.5657 24.9091C97.5657 26.4773 97.7702 27.8026 98.1793 28.8849C98.5969 29.9588 99.2063 30.777 100.007 31.3395C100.817 31.8935 101.81 32.1705 102.986 32.1705C104.162 32.1705 105.151 31.8935 105.952 31.3395C106.762 30.777 107.371 29.9588 107.78 28.8849C108.198 27.8026 108.407 26.4773 108.407 24.9091ZM119.008 38V11.8182H126.116V32.2727H136.701V38H119.008ZM146.375 38H138.705L147.347 11.8182H157.063L165.705 38H158.034L152.307 19.0284H152.103L146.375 38ZM144.944 27.6705H159.364V32.9886H144.944V27.6705ZM168.227 38V11.8182H179.579C181.573 11.8182 183.248 12.0866 184.603 12.6236C185.967 13.1605 186.994 13.919 187.684 14.8991C188.383 15.8793 188.732 17.0341 188.732 18.3636C188.732 19.3267 188.519 20.2045 188.093 20.9972C187.675 21.7898 187.087 22.4545 186.329 22.9915C185.57 23.5199 184.684 23.8864 183.67 24.0909V24.3466C184.795 24.3892 185.817 24.6747 186.738 25.2031C187.658 25.723 188.391 26.4432 188.937 27.3636C189.482 28.2756 189.755 29.3494 189.755 30.5852C189.755 32.017 189.38 33.2912 188.63 34.4077C187.888 35.5241 186.832 36.402 185.46 37.0412C184.087 37.6804 182.451 38 180.55 38H168.227ZM175.335 32.3239H178.658C179.852 32.3239 180.746 32.1023 181.343 31.6591C181.94 31.2074 182.238 30.5426 182.238 29.6648C182.238 29.0511 182.097 28.5312 181.816 28.1051C181.535 27.679 181.134 27.3551 180.614 27.1335C180.103 26.9119 179.485 26.8011 178.761 26.8011H175.335V32.3239ZM175.335 22.4034H178.249C178.871 22.4034 179.421 22.3054 179.898 22.1094C180.376 21.9134 180.746 21.6321 181.011 21.2656C181.283 20.8906 181.42 20.4347 181.42 19.8977C181.42 19.0881 181.13 18.4702 180.55 18.044C179.971 17.6094 179.238 17.392 178.352 17.392H175.335V22.4034ZM217.637 24.9091C217.637 27.8239 217.07 30.2827 215.937 32.2855C214.803 34.2798 213.273 35.7926 211.347 36.8239C209.421 37.8466 207.273 38.358 204.904 38.358C202.518 38.358 200.362 37.8423 198.435 36.8111C196.518 35.7713 194.992 34.2543 193.859 32.2599C192.734 30.2571 192.171 27.8068 192.171 24.9091C192.171 21.9943 192.734 19.5398 193.859 17.5455C194.992 15.5426 196.518 14.0298 198.435 13.0071C200.362 11.9759 202.518 11.4602 204.904 11.4602C207.273 11.4602 209.421 11.9759 211.347 13.0071C213.273 14.0298 214.803 15.5426 215.937 17.5455C217.07 19.5398 217.637 21.9943 217.637 24.9091ZM210.325 24.9091C210.325 23.3409 210.116 22.0199 209.698 20.946C209.289 19.8636 208.68 19.0455 207.87 18.4915C207.069 17.929 206.08 17.6477 204.904 17.6477C203.728 17.6477 202.735 17.929 201.925 18.4915C201.124 19.0455 200.515 19.8636 200.097 20.946C199.688 22.0199 199.484 23.3409 199.484 24.9091C199.484 26.4773 199.688 27.8026 200.097 28.8849C200.515 29.9588 201.124 30.777 201.925 31.3395C202.735 31.8935 203.728 32.1705 204.904 32.1705C206.08 32.1705 207.069 31.8935 207.87 31.3395C208.68 30.777 209.289 29.9588 209.698 28.8849C210.116 27.8026 210.325 26.4773 210.325 24.9091ZM220.926 38V11.8182H232.227C234.17 11.8182 235.87 12.1719 237.328 12.8793C238.785 13.5866 239.919 14.6051 240.728 15.9347C241.538 17.2642 241.943 18.858 241.943 20.7159C241.943 22.5909 241.525 24.1719 240.69 25.4588C239.863 26.7457 238.7 27.7173 237.2 28.3736C235.708 29.0298 233.966 29.358 231.971 29.358H225.221V23.8352H230.539C231.375 23.8352 232.086 23.733 232.674 23.5284C233.271 23.3153 233.727 22.9787 234.042 22.5185C234.366 22.0582 234.528 21.4574 234.528 20.7159C234.528 19.9659 234.366 19.3565 234.042 18.8878C233.727 18.4105 233.271 18.0611 232.674 17.8395C232.086 17.6094 231.375 17.4943 230.539 17.4943H228.034V38H220.926ZM236.267 25.983L242.812 38H235.091L228.699 25.983H236.267ZM251.774 38H244.103L252.745 11.8182H262.461L271.103 38H263.433L257.706 19.0284H257.501L251.774 38ZM250.342 27.6705H264.762V32.9886H250.342V27.6705ZM283.699 38H273.625V11.8182H283.597C286.29 11.8182 288.616 12.3423 290.577 13.3906C292.545 14.4304 294.063 15.9304 295.128 17.8906C296.202 19.8423 296.739 22.1818 296.739 24.9091C296.739 27.6364 296.206 29.9801 295.141 31.9403C294.075 33.892 292.567 35.392 290.615 36.4403C288.663 37.4801 286.358 38 283.699 38ZM280.733 31.9659H283.443C284.739 31.9659 285.842 31.7571 286.754 31.3395C287.675 30.9219 288.374 30.2017 288.851 29.179C289.337 28.1562 289.58 26.733 289.58 24.9091C289.58 23.0852 289.332 21.6619 288.838 20.6392C288.352 19.6165 287.636 18.8963 286.69 18.4787C285.753 18.0611 284.602 17.8523 283.239 17.8523H280.733V31.9659ZM325.391 24.9091C325.391 27.8239 324.824 30.2827 323.691 32.2855C322.557 34.2798 321.027 35.7926 319.101 36.8239C317.175 37.8466 315.027 38.358 312.658 38.358C310.272 38.358 308.115 37.8423 306.189 36.8111C304.272 35.7713 302.746 34.2543 301.613 32.2599C300.488 30.2571 299.925 27.8068 299.925 24.9091C299.925 21.9943 300.488 19.5398 301.613 17.5455C302.746 15.5426 304.272 14.0298 306.189 13.0071C308.115 11.9759 310.272 11.4602 312.658 11.4602C315.027 11.4602 317.175 11.9759 319.101 13.0071C321.027 14.0298 322.557 15.5426 323.691 17.5455C324.824 19.5398 325.391 21.9943 325.391 24.9091ZM318.078 24.9091C318.078 23.3409 317.87 22.0199 317.452 20.946C317.043 19.8636 316.434 19.0455 315.624 18.4915C314.823 17.929 313.834 17.6477 312.658 17.6477C311.482 17.6477 310.489 17.929 309.679 18.4915C308.878 19.0455 308.269 19.8636 307.851 20.946C307.442 22.0199 307.238 23.3409 307.238 24.9091C307.238 26.4773 307.442 27.8026 307.851 28.8849C308.269 29.9588 308.878 30.777 309.679 31.3395C310.489 31.8935 311.482 32.1705 312.658 32.1705C313.834 32.1705 314.823 31.8935 315.624 31.3395C316.434 30.777 317.043 29.9588 317.452 28.8849C317.87 27.8026 318.078 26.4773 318.078 24.9091ZM328.68 38V11.8182H339.981C341.924 11.8182 343.624 12.1719 345.082 12.8793C346.539 13.5866 347.673 14.6051 348.482 15.9347C349.292 17.2642 349.697 18.858 349.697 20.7159C349.697 22.5909 349.279 24.1719 348.444 25.4588C347.617 26.7457 346.454 27.7173 344.954 28.3736C343.462 29.0298 341.719 29.358 339.725 29.358H332.975V23.8352H338.293C339.129 23.8352 339.84 23.733 340.428 23.5284C341.025 23.3153 341.481 22.9787 341.796 22.5185C342.12 22.0582 342.282 21.4574 342.282 20.7159C342.282 19.9659 342.12 19.3565 341.796 18.8878C341.481 18.4105 341.025 18.0611 340.428 17.8395C339.84 17.6094 339.129 17.4943 338.293 17.4943H335.788V38H328.68ZM344.021 25.983L350.566 38H342.844L336.452 25.983H344.021Z" fill="white"/>
<defs>
<clipPath id="clip0_83_29">
<rect width="58" height="51" fill="white"/>
</clipPath>
</defs>
</svg>
