<svg width="368" height="362" viewBox="0 0 368 362" fill="none" xmlns="http://www.w3.org/2000/svg">
<g clip-path="url(#clip0_32_160)">
<path d="M7.20313 343.124C3.17367 343.2 -0.103381 339.81 -0.146172 335.838C-0.190746 331.729 3.20042 328.339 7.32259 328.366C11.3627 328.394 14.6006 331.641 14.6398 335.696C14.6772 339.903 11.4287 343.15 7.20848 343.124H7.20313Z" fill="#EBE9E5"/>
<path d="M26.4535 347.434C26.5195 351.526 23.1123 354.975 19.0222 354.964C15.0053 354.953 11.7229 351.69 11.6676 347.657C11.6141 343.466 14.8787 340.158 19.0615 340.165C23.1016 340.17 26.3894 343.412 26.4482 347.44L26.4535 347.434Z" fill="#EBE9E5"/>
<path d="M14.1548 362.8C11.8209 363.165 2.63876 363.16 0.502787 362.823C-1.71163 359.743 -0.119461 355.313 2.1324 353.411C4.91201 351.063 8.82201 350.833 11.7995 352.953C14.934 355.183 15.845 358.844 14.1602 362.807L14.1548 362.8Z" fill="#EBE9E5"/>
<path d="M30.6791 342.523C26.9332 342.47 23.9021 339.358 23.9895 335.641C24.0769 331.946 27.2666 328.868 30.9359 328.95C34.6765 329.032 37.6201 332.115 37.572 335.897C37.5167 339.684 34.5125 342.584 30.6845 342.529L30.6791 342.523Z" fill="#EBE9E5"/>
<path d="M35.8212 347.417C35.8747 343.619 38.8682 340.737 42.7016 340.79C46.4582 340.845 49.5231 343.947 49.3858 347.662C49.2503 351.362 46.4475 354.414 42.4555 354.316C37.8769 354.207 35.6411 350.431 35.8212 347.417Z" fill="#EBE9E5"/>
<path d="M12.2791 324.121C12.2292 320.296 15.1247 317.348 18.9295 317.25C22.4312 317.158 25.7012 319.839 25.8491 323.904C25.9793 327.571 22.8556 330.747 19.1488 330.829C15.435 330.911 12.3273 327.876 12.2791 324.126V324.121Z" fill="#EBE9E5"/>
<path d="M7.31717 318.982C3.54446 319.01 0.46353 315.975 0.468879 312.231C0.468879 308.547 3.66927 305.387 7.33857 305.441C10.9865 305.496 13.9462 308.465 14.0014 312.117C14.0567 315.936 11.1166 318.955 7.31717 318.982Z" fill="#EBE9E5"/>
<path d="M24.5565 362.866C22.4027 359.928 23.6347 355.651 26.1166 353.63C28.8802 351.378 32.7509 351.357 35.4824 353.63C36.7911 354.72 37.6968 356.093 37.9857 357.782C38.2798 359.52 38.2371 361.23 37.2333 362.725C35.2649 363.133 27.7676 363.21 24.5565 362.86V362.866Z" fill="#EBE9E5"/>
<path d="M36.9925 312.117C37.0532 315.631 34.3056 318.431 30.8004 318.431C27.4306 318.431 24.6652 315.735 24.5779 312.361C24.4923 308.978 27.4146 305.991 30.8111 305.996C34.147 306.002 36.9337 308.759 36.9925 312.117Z" fill="#EBE9E5"/>
<path d="M54.4672 341.962C50.9887 342.023 48.1164 339.21 48.1217 335.756C48.1217 332.438 50.896 329.609 54.2336 329.532C57.6569 329.451 60.5417 332.311 60.5364 335.783C60.5364 339.183 57.853 341.907 54.4672 341.962Z" fill="#EBE9E5"/>
<path d="M36.3935 324.099C36.3561 320.569 39.0822 317.822 42.6196 317.838C46 317.849 48.7475 320.551 48.8135 323.914C48.8795 327.331 45.9786 330.252 42.5429 330.218C39.1624 330.186 36.431 327.473 36.3935 324.099Z" fill="#EBE9E5"/>
<path d="M12.8514 300.597C12.7961 297.065 15.5169 294.307 19.0507 294.307C22.4312 294.307 25.1841 296.988 25.2661 300.362C25.3481 303.779 22.4633 306.705 19.0222 306.695C15.6417 306.684 12.8996 303.969 12.8461 300.597H12.8514Z" fill="#EBE9E5"/>
<path d="M59.9355 347.456C59.9801 343.947 62.7811 341.282 66.3363 341.369C69.69 341.456 72.4054 344.278 72.3502 347.62C72.2967 350.965 69.5153 353.722 66.1669 353.749C62.7009 353.776 59.8927 350.944 59.9302 347.456H59.9355Z" fill="#EBE9E5"/>
<path d="M7.23519 294.886C3.86007 294.874 1.0965 292.124 1.07511 288.75C1.04658 285.41 3.81728 282.576 7.16387 282.51C10.605 282.444 13.4773 285.328 13.4291 288.81C13.3846 292.198 10.6317 294.902 7.23519 294.886Z" fill="#EBE9E5"/>
<path d="M48.8295 363.046C47.3194 360.735 47.2659 358.583 48.2893 356.398C49.2824 354.283 51.0047 353.035 53.278 352.659C55.9007 352.224 58.0884 353.151 59.6912 355.226C61.3048 357.319 61.5009 359.656 60.4757 362.093C60.2136 362.714 59.734 363.04 59.0636 363.04C55.6885 363.046 52.3187 363.04 48.8295 363.04V363.046Z" fill="#EBE9E5"/>
<path d="M72.9563 362.916C71.7511 361.177 71.4943 359.494 71.9793 357.727C72.6336 355.334 74.2097 353.831 76.647 353.318C79.0897 352.807 81.1561 353.564 82.693 355.493C84.2352 357.427 84.4652 359.602 83.4721 361.879C83.1726 362.566 82.7144 363.046 81.9085 363.046C79.5532 363.051 77.2033 363.067 74.848 363.062C74.2472 363.062 73.6481 362.969 72.9563 362.916Z" fill="#EBE9E5"/>
<path d="M59.9694 312.487C59.8428 315.565 57.1934 318.002 54.1124 317.87C51.0333 317.74 48.6013 315.092 48.7368 312.003C48.8741 308.912 51.5503 306.449 54.5974 306.613C57.7175 306.782 60.0942 309.381 59.9694 312.482V312.487Z" fill="#EBE9E5"/>
<path d="M12.8836 265.301C12.823 268.386 10.2395 270.871 7.14784 270.81C4.06156 270.75 1.58683 268.167 1.64745 265.068C1.70629 261.982 4.32365 259.46 7.38319 259.542C10.4802 259.622 12.9442 262.205 12.8836 265.301Z" fill="#EBE9E5"/>
<path d="M83.5167 335.931C83.4347 339.014 80.8281 341.483 77.7418 341.401C74.6573 341.319 72.1986 338.715 72.2788 335.619C72.3662 332.536 74.9996 330.028 78.0538 330.138C81.1561 330.247 83.5987 332.835 83.5167 335.931Z" fill="#EBE9E5"/>
<path d="M36.4255 288.93C36.3114 292.008 33.678 294.455 30.5918 294.336C27.5073 294.22 25.07 291.584 25.1948 288.493C25.3142 285.405 27.9815 282.93 31.0286 283.082C34.1416 283.235 36.5361 285.829 36.4255 288.935V288.93Z" fill="#EBE9E5"/>
<path d="M89.634 353.122C86.4996 353.106 84.0231 350.616 84.0445 347.504C84.0677 344.404 86.5799 341.925 89.6947 341.936C92.8077 341.946 95.2985 344.453 95.2824 347.564C95.2717 350.682 92.7738 353.145 89.634 353.127V353.122Z" fill="#EBE9E5"/>
<path d="M42.6249 306.062C39.4851 306.084 36.9765 303.632 36.9551 300.526C36.939 297.414 39.4138 294.902 42.5215 294.874C45.6398 294.847 48.1591 297.311 48.1966 300.428C48.2358 303.535 45.7539 306.046 42.6249 306.068V306.062Z" fill="#EBE9E5"/>
<path d="M18.9081 282.531C15.7844 282.467 13.3471 279.927 13.4184 276.815C13.4897 273.716 16.0411 271.29 19.1648 271.345C22.2672 271.398 24.7258 273.965 24.6545 277.072C24.5832 280.194 22.0496 282.603 18.9081 282.537V282.531Z" fill="#EBE9E5"/>
<path d="M66.092 329.593C62.9558 329.575 60.4811 327.085 60.5025 323.975C60.5239 320.874 63.0378 318.394 66.1508 318.405C69.2639 318.415 71.7564 320.922 71.7404 324.034C71.7297 327.151 69.2318 329.614 66.092 329.598V329.593Z" fill="#EBE9E5"/>
<path d="M101.471 363.04C100.342 363.04 99.2138 363.046 98.0906 363.04C97.4255 363.035 96.9619 362.675 96.6232 362.125C95.2664 359.918 95.7995 356.774 97.8392 355.041C99.9555 353.243 103.172 353.307 105.222 355.188C107.233 357.03 107.626 360.103 106.148 362.299C105.827 362.778 105.395 363.019 104.851 363.035C103.723 363.062 102.594 363.04 101.471 363.04Z" fill="#EBE9E5"/>
<path d="M19.1649 248.327C21.9998 248.381 24.2516 250.773 24.1375 253.601C24.0287 256.364 21.809 258.484 19.0329 258.484C16.1713 258.484 13.8927 256.19 13.9301 253.34C13.9694 250.49 16.2854 248.267 19.1595 248.322L19.1649 248.327Z" fill="#EBE9E5"/>
<path d="M71.2269 300.367C71.2929 303.207 69.025 305.528 66.1562 305.549C63.398 305.567 61.1301 303.429 61.0213 300.706C60.9072 297.845 63.1092 295.474 65.9494 295.392C68.8128 295.31 71.1556 297.523 71.2269 300.373V300.367Z" fill="#EBE9E5"/>
<path d="M118.313 347.602C118.273 350.452 115.94 352.687 113.073 352.616C110.314 352.545 108.132 350.338 108.105 347.597C108.079 344.741 110.346 342.452 113.208 342.452C116.055 342.452 118.35 344.77 118.313 347.602Z" fill="#EBE9E5"/>
<path d="M42.7229 271.856C45.5525 271.922 47.8043 274.325 47.6795 277.148C47.5601 279.911 45.3349 282.026 42.5607 282.02C39.7026 282.015 37.4294 279.704 37.4722 276.86C37.5221 274.01 39.8453 271.797 42.7176 271.856H42.7229Z" fill="#EBE9E5"/>
<path d="M89.6768 318.923C92.5188 318.923 94.8135 321.249 94.7689 324.083C94.7261 326.836 92.5455 329.019 89.7748 329.08C86.9079 329.141 84.5793 326.9 84.558 324.057C84.5366 321.2 86.8098 318.923 89.6714 318.923H89.6768Z" fill="#EBE9E5"/>
<path d="M35.9085 265.23C35.8818 268.069 33.5265 270.347 30.6898 270.287C27.8657 270.228 25.5977 267.825 25.7012 264.996C25.7992 262.271 28.0743 260.059 30.7932 260.048C33.6014 260.037 35.9353 262.403 35.9085 265.224V265.23Z" fill="#EBE9E5"/>
<path d="M82.9979 312.329C82.9551 315.163 80.5838 317.429 77.7489 317.354C74.9301 317.277 72.6675 314.851 72.7923 312.03C72.9118 309.304 75.2011 307.102 77.9165 307.113C80.7247 307.126 83.0478 309.5 82.9979 312.329Z" fill="#EBE9E5"/>
<path d="M7.18703 246.758C4.36284 246.719 2.07711 244.332 2.15912 241.505C2.23579 238.779 4.493 236.556 7.21377 236.522C10.0166 236.49 12.3772 238.845 12.3665 241.661C12.3558 244.501 10.0219 246.795 7.18703 246.758Z" fill="#EBE9E5"/>
<path d="M106.542 335.794C106.529 338.633 104.192 340.927 101.355 340.883C98.5309 340.84 96.2523 338.453 96.3343 335.624C96.4163 332.901 98.6735 330.681 101.394 330.649C104.197 330.617 106.552 332.976 106.542 335.799V335.794Z" fill="#EBE9E5"/>
<path d="M59.4559 288.816C59.4024 291.648 57.0186 293.91 54.1837 293.818C51.3649 293.725 49.113 291.288 49.2503 288.472C49.3804 285.747 51.6876 283.55 54.3959 283.579C57.2094 283.605 59.5165 285.992 59.4559 288.816Z" fill="#EBE9E5"/>
<path d="M124.899 363.056C124.118 363.056 123.333 363.035 122.554 363.056C121.54 363.09 120.962 362.517 120.525 361.701C119.386 359.563 119.932 356.85 121.813 355.345C123.781 353.77 126.664 353.897 128.486 355.652C130.274 357.362 130.563 360.005 129.228 362.077C128.812 362.72 128.262 363.051 127.509 363.051C126.643 363.051 125.771 363.051 124.904 363.051L124.899 363.056Z" fill="#EBE9E5"/>
<path d="M101.448 307.605C103.983 307.61 106.073 309.757 106.034 312.318C105.996 314.88 103.869 316.917 101.296 316.846C98.8483 316.78 96.8478 314.753 96.814 312.302C96.7819 309.783 98.9357 307.599 101.448 307.61V307.605Z" fill="#EBE9E5"/>
<path d="M94.2893 300.383C94.3499 302.913 92.2461 305.059 89.6875 305.075C87.2128 305.086 85.1731 303.157 85.0697 300.701C84.961 298.112 86.9347 295.969 89.5093 295.9C92.0981 295.829 94.2305 297.822 94.2893 300.383Z" fill="#EBE9E5"/>
<path d="M7.33322 213.478C9.87927 213.528 11.9297 215.685 11.8637 218.246C11.7995 220.808 9.64035 222.819 7.07113 222.719C4.62849 222.627 2.64408 220.562 2.64942 218.115C2.64942 215.587 4.83175 213.43 7.33857 213.478H7.33322Z" fill="#EBE9E5"/>
<path d="M47.2053 253.313C47.2712 255.841 45.1656 257.994 42.6088 258.01C40.1341 258.026 38.0944 256.097 37.9857 253.639C37.8715 251.051 39.8506 248.91 42.4181 248.833C45.014 248.756 47.1393 250.751 47.2053 253.313Z" fill="#EBE9E5"/>
<path d="M77.9771 284.069C80.5232 284.129 82.5628 286.292 82.4915 288.853C82.4202 291.409 80.2557 293.42 77.6883 293.31C75.2456 293.207 73.2666 291.137 73.2773 288.695C73.288 286.162 75.4739 284.013 77.9771 284.069Z" fill="#EBE9E5"/>
<path d="M70.7419 277.056C70.6706 279.612 68.5008 281.644 65.944 281.541C63.3605 281.436 61.4082 279.295 61.533 276.707C61.6525 274.243 63.6761 272.348 66.174 272.369C68.7522 272.391 70.8132 274.505 70.7473 277.061L70.7419 277.056Z" fill="#EBE9E5"/>
<path d="M30.7024 246.25C28.1492 246.202 26.0774 244.006 26.1879 241.476C26.2967 239.036 28.3578 237.025 30.7772 237.009C33.3126 236.993 35.4183 239.123 35.3951 241.685C35.3737 244.25 33.2645 246.3 30.6952 246.25H30.7024Z" fill="#EBE9E5"/>
<path d="M124.947 331.134C127.477 331.112 129.593 333.243 129.576 335.804C129.56 338.273 127.597 340.29 125.143 340.377C122.581 340.464 120.422 338.426 120.356 335.87C120.297 333.359 122.428 331.157 124.947 331.134Z" fill="#EBE9E5"/>
<path d="M117.833 323.898C117.903 326.426 115.804 328.579 113.247 328.606C110.773 328.628 108.728 326.698 108.614 324.247C108.498 321.657 110.466 319.511 113.035 319.429C115.629 319.347 117.756 321.337 117.833 323.898Z" fill="#EBE9E5"/>
<path d="M54.3531 269.786C51.7964 269.792 49.6854 267.667 49.7299 265.121C49.7674 262.686 51.7732 260.643 54.2158 260.548C56.7351 260.456 58.9103 262.56 58.9442 265.11C58.9763 267.688 56.9206 269.781 54.3531 269.786Z" fill="#EBE9E5"/>
<path d="M136.768 352.137C134.188 352.148 132.129 350.071 132.15 347.493C132.177 344.916 134.254 342.91 136.861 342.96C139.325 343.008 141.32 344.992 141.375 347.45C141.434 349.978 139.319 352.125 136.768 352.137Z" fill="#EBE9E5"/>
<path d="M18.9848 225.304C21.5683 225.281 23.6633 227.342 23.6579 229.896C23.6526 232.442 21.5095 234.535 18.9527 234.485C16.4762 234.442 14.4918 232.463 14.4383 230.001C14.383 227.411 16.4013 225.325 18.9848 225.304Z" fill="#EBE9E5"/>
<path d="M148.43 363.067C148.168 363.067 147.906 363.067 147.644 363.067C145.251 363.024 143.964 361.77 143.9 359.417C143.845 357.586 145.005 355.787 146.706 355.067C148.534 354.294 150.632 354.757 151.952 356.234C153.217 357.652 153.483 359.656 152.645 361.341C152.1 362.436 151.326 363.16 149.994 363.067C149.477 363.035 148.947 363.062 148.43 363.062V363.067Z" fill="#EBE9E5"/>
<path d="M101.525 292.852C99.2299 292.897 97.3382 291.137 97.2347 288.864C97.1313 286.575 99.1585 284.484 101.466 284.505C103.723 284.526 105.559 286.39 105.57 288.673C105.586 291.005 103.837 292.809 101.519 292.847L101.525 292.852Z" fill="#EBE9E5"/>
<path d="M152.661 335.844C152.627 338.165 150.834 339.919 148.507 339.914C146.216 339.914 144.351 338.088 144.319 335.82C144.287 333.521 146.369 331.478 148.658 331.565C150.921 331.652 152.693 333.549 152.661 335.844Z" fill="#EBE9E5"/>
<path d="M129.119 312.16C129.151 314.498 127.429 316.317 125.111 316.378C122.711 316.444 120.738 314.53 120.777 312.176C120.814 309.963 122.756 308.039 124.968 308.034C127.22 308.029 129.085 309.883 129.119 312.16Z" fill="#EBE9E5"/>
<path d="M50.1489 241.373C50.3237 239.145 52.3687 237.324 54.5493 237.451C56.9206 237.586 58.6607 239.624 58.47 242.048C58.2899 244.326 56.3589 245.946 54.0037 245.787C51.7625 245.641 49.9689 243.591 50.1489 241.378V241.373Z" fill="#EBE9E5"/>
<path d="M30.8272 213.909C33.079 213.92 34.9262 215.783 34.944 218.067C34.9654 220.502 33.0951 222.322 30.6471 222.251C28.3738 222.181 26.5463 220.268 26.6069 218.017C26.6676 215.799 28.6234 213.893 30.8272 213.904V213.909Z" fill="#EBE9E5"/>
<path d="M82.0333 265.317C81.9673 267.627 80.1523 269.355 77.8077 269.318C75.5291 269.284 73.6802 267.421 73.6856 265.16C73.6963 262.848 75.8073 260.844 78.0912 260.974C80.3591 261.106 82.0939 263.012 82.028 265.312L82.0333 265.317Z" fill="#EBE9E5"/>
<path d="M136.659 319.871C138.965 319.833 140.846 321.577 140.954 323.848C141.063 326.143 139.041 328.23 136.729 328.209C134.466 328.186 132.63 326.328 132.614 324.044C132.596 321.713 134.347 319.908 136.659 319.871Z" fill="#EBE9E5"/>
<path d="M46.7845 229.787C46.8451 231.989 44.9909 233.968 42.7515 234.082C40.5157 234.196 38.5473 232.388 38.4439 230.12C38.3298 227.668 40.1234 225.767 42.5482 225.749C44.85 225.739 46.7203 227.527 46.7845 229.787Z" fill="#EBE9E5"/>
<path d="M117.412 300.383C117.473 302.585 115.619 304.564 113.378 304.673C111.142 304.787 109.175 302.977 109.07 300.711C108.956 298.258 110.749 296.358 113.176 296.34C115.478 296.329 117.346 298.118 117.412 300.378V300.383Z" fill="#EBE9E5"/>
<path d="M160.365 351.738C158.119 351.783 156.216 349.946 156.161 347.668C156.1 345.325 157.807 343.489 160.114 343.407C162.524 343.32 164.509 345.188 164.504 347.543C164.504 349.761 162.594 351.69 160.365 351.733V351.738Z" fill="#EBE9E5"/>
<path d="M23.2425 206.285C23.2871 208.487 21.4114 210.453 19.1756 210.551C16.9344 210.644 14.9875 208.831 14.8965 206.563C14.7967 204.115 16.5975 202.226 19.0276 202.226C21.3241 202.226 23.1944 204.028 23.2372 206.29L23.2425 206.285Z" fill="#EBE9E5"/>
<path d="M70.3283 253.411C70.3283 255.629 68.4312 257.563 66.2007 257.618C63.8508 257.672 61.9199 255.7 61.9805 253.302C62.0358 250.992 63.8455 249.259 66.1847 249.285C68.474 249.312 70.3229 251.154 70.3283 253.411Z" fill="#EBE9E5"/>
<path d="M93.8703 276.974C93.8543 279.191 91.934 281.115 89.7107 281.147C87.3608 281.181 85.4512 279.197 85.5226 276.799C85.5939 274.489 87.4143 272.772 89.7535 272.816C92.0374 272.859 93.881 274.722 93.865 276.974H93.8703Z" fill="#EBE9E5"/>
<path d="M7.3832 190.416C9.64576 190.498 11.4287 192.416 11.3681 194.705C11.3075 197.01 9.46034 198.754 7.13716 198.699C4.8746 198.645 3.02034 196.7 3.10235 194.464C3.18437 192.236 5.19018 190.341 7.37786 190.416H7.3832Z" fill="#EBE9E5"/>
<path d="M172.195 363.242C169.956 363.275 168.613 362.501 168.014 360.037C167.556 358.158 168.706 356.207 170.598 355.461C172.555 354.686 174.693 355.488 175.708 357.367C176.64 359.1 176.219 361.439 174.606 362.49C173.93 362.932 173.008 363.003 172.195 363.236V363.242Z" fill="#EBE9E5"/>
<path d="M101.535 261.437C103.646 261.493 105.26 263.263 105.14 265.404C105.032 267.447 103.411 268.919 101.328 268.871C99.3012 268.821 97.7037 267.214 97.6858 265.203C97.6698 263.133 99.4527 261.389 101.53 261.437H101.535Z" fill="#EBE9E5"/>
<path d="M152.23 312.313C152.198 314.361 150.627 315.914 148.571 315.936C146.423 315.959 144.727 314.269 144.777 312.16C144.82 310.182 146.483 308.531 148.468 308.504C150.584 308.47 152.269 310.182 152.235 312.313H152.23Z" fill="#EBE9E5"/>
<path d="M172.028 332.033C174.142 332.012 175.822 333.729 175.777 335.865C175.734 337.913 174.164 339.456 172.097 339.467C170.059 339.477 168.412 337.94 168.319 335.931C168.226 333.859 169.943 332.049 172.028 332.033Z" fill="#EBE9E5"/>
<path d="M128.688 288.842C128.627 290.886 127.035 292.407 124.963 292.407C122.822 292.407 121.148 290.679 121.23 288.57C121.304 286.598 123.002 284.974 124.981 284.974C127.09 284.974 128.754 286.712 128.688 288.848V288.842Z" fill="#EBE9E5"/>
<path d="M30.8592 190.841C32.9703 190.868 34.6052 192.623 34.5125 194.765C34.4251 196.809 32.8169 198.301 30.7451 198.275C28.7108 198.248 27.0972 196.661 27.0598 194.65C27.0152 192.58 28.7768 190.815 30.8592 190.841Z" fill="#EBE9E5"/>
<path d="M50.6018 217.855C50.7551 215.783 52.6629 214.182 54.7293 214.393C56.7244 214.595 58.1686 216.328 58.0492 218.366C57.919 220.507 56.1574 221.984 53.9609 221.788C51.9764 221.613 50.4609 219.837 50.6018 217.855Z" fill="#EBE9E5"/>
<path d="M77.9165 245.34C75.7699 245.351 74.085 243.651 74.1438 241.537C74.2044 239.558 75.8786 237.919 77.8577 237.901C79.9669 237.885 81.6465 239.602 81.6037 241.738C81.5591 243.787 79.983 245.324 77.9165 245.334V245.34Z" fill="#EBE9E5"/>
<path d="M136.734 296.76C138.85 296.75 140.567 298.493 140.503 300.592C140.443 302.564 138.758 304.22 136.789 304.236C134.712 304.258 132.995 302.492 133.043 300.378C133.093 298.351 134.707 296.771 136.734 296.76Z" fill="#EBE9E5"/>
<path d="M116.959 277.045C116.906 279.12 115.046 280.837 112.996 280.7C111.006 280.57 109.459 278.871 109.496 276.865C109.539 274.735 111.306 273.116 113.438 273.24C115.449 273.361 117.009 275.05 116.959 277.045Z" fill="#EBE9E5"/>
<path d="M89.7374 249.7C91.852 249.738 93.5262 251.524 93.4121 253.617C93.3033 255.591 91.5631 257.209 89.6072 257.177C87.5176 257.137 85.8613 255.345 85.9593 253.226C86.0521 251.199 87.6977 249.661 89.7374 249.7Z" fill="#EBE9E5"/>
<path d="M164.045 323.98C164.067 326.05 162.262 327.826 160.207 327.773C158.222 327.717 156.603 326.055 156.585 324.05C156.564 322.007 158.108 320.378 160.135 320.291C162.246 320.204 164.024 321.882 164.045 323.98Z" fill="#EBE9E5"/>
<path d="M183.754 351.303C181.65 351.243 180.026 349.454 180.14 347.324C180.249 345.297 181.901 343.777 183.939 343.826C186.05 343.881 187.717 345.685 187.587 347.771C187.462 349.739 185.706 351.357 183.754 351.303Z" fill="#EBE9E5"/>
<path d="M22.7842 182.842C22.7789 184.913 20.9531 186.668 18.8974 186.586C16.9183 186.504 15.3208 184.821 15.3208 182.82C15.3208 180.782 16.8916 179.163 18.9188 179.104C21.0298 179.044 22.7896 180.749 22.7789 182.842H22.7842Z" fill="#EBE9E5"/>
<path d="M66.1027 226.164C68.2173 226.154 69.9343 227.897 69.8701 229.996C69.8095 231.968 68.1246 233.624 66.1562 233.64C64.0791 233.662 62.3621 231.896 62.412 229.782C62.4602 227.755 64.0737 226.175 66.1081 226.164H66.1027Z" fill="#EBE9E5"/>
<path d="M46.328 206.449C46.2728 208.524 44.4132 210.241 42.3628 210.104C40.373 209.974 38.8254 208.275 38.8628 206.269C38.9074 204.144 40.6725 202.519 42.8049 202.644C44.8179 202.765 46.3762 204.454 46.328 206.449Z" fill="#EBE9E5"/>
<path d="M7.18172 174.701C5.16342 174.662 3.53916 173.021 3.54986 171.039C3.56055 169.078 5.24009 167.382 7.20311 167.35C9.30699 167.318 10.9865 169.054 10.9206 171.192C10.8617 173.24 9.2642 174.738 7.18172 174.701Z" fill="#EBE9E5"/>
<path d="M195.525 362.948C193.508 362.91 191.884 361.27 191.895 359.285C191.906 357.324 193.585 355.63 195.548 355.596C197.652 355.564 199.331 357.303 199.266 359.439C199.205 361.487 197.607 362.985 195.525 362.948Z" fill="#EBE9E5"/>
<path d="M-0.484979 341.139C4.62851 343.624 4.23626 351.87 -0.283506 353.81C-0.402963 353.706 -0.615134 353.608 -0.620483 353.493C-0.816607 351.134 -0.731026 343.09 -0.47963 341.134L-0.484979 341.139Z" fill="#EBE9E5"/>
<path d="M183.831 327.299C182.032 327.288 180.521 325.778 180.532 323.991C180.543 322.202 182.08 320.672 183.852 320.683C185.635 320.694 187.129 322.213 187.124 324.018C187.124 325.838 185.646 327.309 183.831 327.299Z" fill="#EBE9E5"/>
<path d="M163.582 300.378C163.63 302.204 162.207 303.72 160.397 303.768C158.593 303.818 157.049 302.373 156.996 300.574C156.94 298.798 158.424 297.218 160.201 297.152C161.957 297.086 163.537 298.597 163.587 300.383L163.582 300.378Z" fill="#EBE9E5"/>
<path d="M77.9664 221.401C76.1514 221.44 74.6466 220.001 74.6074 218.186C74.5699 216.355 75.9874 214.883 77.8184 214.846C79.6513 214.814 81.1508 216.23 81.1936 218.04C81.2381 219.842 79.7815 221.358 77.9664 221.401Z" fill="#EBE9E5"/>
<path d="M210.666 347.44C210.721 349.264 209.298 350.78 207.481 350.828C205.677 350.878 204.135 349.433 204.074 347.641C204.015 345.863 205.492 344.278 207.275 344.214C209.025 344.148 210.612 345.657 210.66 347.44H210.666Z" fill="#EBE9E5"/>
<path d="M66.0582 209.646C64.2592 209.609 62.7651 208.066 62.8096 206.29C62.8524 204.504 64.4178 202.988 66.1847 203.032C67.9837 203.075 69.4333 204.602 69.4065 206.415C69.3798 208.23 67.875 209.686 66.0635 209.646H66.0582Z" fill="#EBE9E5"/>
<path d="M19.0276 162.581C17.2286 162.57 15.7185 161.062 15.7292 159.273C15.7399 157.487 17.2786 155.955 19.0508 155.965C20.8338 155.976 22.3261 157.497 22.3207 159.3C22.3207 161.121 20.8445 162.592 19.0276 162.581Z" fill="#EBE9E5"/>
<path d="M54.2443 197.865C52.4168 197.806 51.0101 196.306 51.0654 194.482C51.1206 192.656 52.6023 191.267 54.4512 191.32C56.2555 191.37 57.7229 192.913 57.6569 194.694C57.5909 196.499 56.0594 197.925 54.2443 197.865Z" fill="#EBE9E5"/>
<path d="M195.628 339.059C193.808 339.069 192.335 337.609 192.325 335.794C192.314 333.957 193.747 332.518 195.591 332.507C197.422 332.497 198.905 333.947 198.916 335.756C198.927 337.559 197.45 339.046 195.628 339.059Z" fill="#EBE9E5"/>
<path d="M7.29578 150.805C5.47361 150.821 3.99733 149.366 3.9795 147.552C3.96346 145.716 5.39338 144.271 7.22981 144.255C9.06268 144.239 10.5497 145.682 10.5675 147.492C10.5835 149.296 9.11082 150.789 7.29578 150.81V150.805Z" fill="#EBE9E5"/>
<path d="M148.55 291.992C146.729 292.008 145.251 290.553 145.241 288.734C145.23 286.897 146.658 285.453 148.494 285.442C150.327 285.431 151.811 286.869 151.827 288.684C151.843 290.488 150.365 291.981 148.55 291.997V291.992Z" fill="#EBE9E5"/>
<path d="M140.034 276.968C140.022 278.789 138.546 280.255 136.729 280.237C134.93 280.221 133.425 278.702 133.441 276.919C133.459 275.132 135.006 273.605 136.779 273.623C138.567 273.639 140.05 275.159 140.04 276.968H140.034Z" fill="#EBE9E5"/>
<path d="M116.496 253.318C116.546 255.144 115.118 256.653 113.306 256.703C111.502 256.751 109.96 255.301 109.91 253.503C109.856 251.728 111.34 250.146 113.123 250.082C114.877 250.016 116.453 251.532 116.501 253.313L116.496 253.318Z" fill="#EBE9E5"/>
<path d="M92.9485 229.914C92.9378 231.733 91.4544 233.193 89.6394 233.177C87.8404 233.161 86.3356 231.635 86.357 229.853C86.3784 228.067 87.9278 226.54 89.6929 226.562C91.4829 226.583 92.9646 228.104 92.9485 229.914Z" fill="#EBE9E5"/>
<path d="M101.432 238.377C103.259 238.377 104.741 239.836 104.741 241.64C104.741 243.445 103.259 244.927 101.442 244.932C99.6221 244.932 98.1547 243.471 98.1547 241.651C98.1547 239.814 99.59 238.382 101.432 238.382V238.377Z" fill="#EBE9E5"/>
<path d="M45.8645 182.728C45.9127 184.553 44.4845 186.062 42.6748 186.112C40.8705 186.16 39.3265 184.71 39.273 182.918C39.2177 181.142 40.7011 179.562 42.4787 179.496C44.2331 179.43 45.8093 180.941 45.8592 182.728H45.8645Z" fill="#EBE9E5"/>
<path d="M125.084 268.468C123.268 268.527 121.747 267.095 121.693 265.285C121.638 263.448 123.039 261.966 124.87 261.917C126.703 261.868 128.213 263.269 128.279 265.078C128.344 266.876 126.894 268.413 125.084 268.473V268.468Z" fill="#EBE9E5"/>
<path d="M172.142 315.528C170.327 315.565 168.822 314.128 168.783 312.313C168.745 310.482 170.163 309.01 171.994 308.973C173.827 308.939 175.326 310.357 175.369 312.165C175.413 313.969 173.957 315.483 172.142 315.528Z" fill="#EBE9E5"/>
<path d="M30.6952 167.791C32.528 167.742 34.0382 169.136 34.1095 170.946C34.1791 172.743 32.7349 174.281 30.9198 174.347C29.1048 174.407 27.5768 172.979 27.5233 171.169C27.468 169.332 28.8641 167.845 30.6952 167.797V167.791Z" fill="#EBE9E5"/>
<path d="M219.09 362.582C217.263 362.545 215.84 361.063 215.874 359.237C215.906 357.411 217.379 356.006 219.22 356.033C221.03 356.065 222.503 357.581 222.465 359.367C222.426 361.182 220.916 362.622 219.09 362.582Z" fill="#EBE9E5"/>
<path d="M-0.435031 329.816C-0.768442 327.571 -0.811232 321.096 -0.545573 318.476C-0.0481316 318.22 0.278147 318.537 0.572333 318.847C3.8066 322.186 3.44644 326.918 -0.435031 329.821V329.816Z" fill="#EBE9E5"/>
<path d="M116.077 229.766C116.137 231.38 115.03 232.632 113.443 232.735C111.764 232.851 110.346 231.619 110.286 229.989C110.227 228.398 111.618 226.96 113.221 226.966C114.747 226.966 116.022 228.218 116.077 229.771V229.766Z" fill="#EBE9E5"/>
<path d="M101.394 215.254C103.058 215.232 104.425 216.595 104.365 218.207C104.311 219.696 102.987 221.009 101.492 221.052C99.8895 221.096 98.5309 219.707 98.5702 218.045C98.6023 216.431 99.7701 215.277 101.394 215.254Z" fill="#EBE9E5"/>
<path d="M210.252 323.986C210.263 325.592 209.118 326.796 207.521 326.862C205.846 326.928 204.456 325.637 204.456 324.012C204.456 322.406 205.889 321.021 207.494 321.086C209.025 321.146 210.247 322.427 210.257 323.986H210.252Z" fill="#EBE9E5"/>
<path d="M68.9857 182.886C68.9536 184.498 67.7929 185.654 66.1669 185.681C64.4998 185.708 63.1359 184.363 63.1911 182.744C63.2393 181.246 64.5533 179.938 66.0528 179.899C67.6788 179.856 69.0196 181.224 68.9857 182.891V182.886Z" fill="#EBE9E5"/>
<path d="M4.39494 124.032C4.3789 122.426 5.51285 121.211 7.11037 121.134C8.78456 121.058 10.1735 122.338 10.1913 123.966C10.2073 125.554 8.75068 126.975 7.17456 126.922C5.64835 126.866 4.41099 125.586 4.39494 124.032Z" fill="#EBE9E5"/>
<path d="M77.8238 191.725C79.4873 191.686 80.8673 193.032 80.8281 194.644C80.7906 196.139 79.4873 197.462 77.9878 197.523C76.385 197.587 75.0103 196.203 75.0335 194.546C75.0549 192.94 76.2209 191.762 77.8238 191.73V191.725Z" fill="#EBE9E5"/>
<path d="M192.74 312.334C192.695 310.727 193.819 309.484 195.4 309.386C197.074 309.283 198.481 310.531 198.535 312.165C198.585 313.745 197.156 315.195 195.575 315.173C194.059 315.152 192.783 313.877 192.74 312.334Z" fill="#EBE9E5"/>
<path d="M160.255 279.808C158.702 279.792 157.42 278.559 157.372 277.034C157.316 275.437 158.712 274.01 160.321 274.02C161.957 274.031 163.232 275.42 163.161 277.098C163.091 278.696 161.881 279.824 160.262 279.808H160.255Z" fill="#EBE9E5"/>
<path d="M51.4843 171.033C51.4968 169.425 52.6522 168.239 54.2604 168.194C55.9239 168.146 57.3074 169.475 57.2807 171.094C57.2539 172.685 55.7705 174.079 54.1998 173.981C52.6629 173.883 51.4736 172.592 51.4843 171.033Z" fill="#EBE9E5"/>
<path d="M169.203 288.668C169.225 287.061 170.385 285.884 171.999 285.85C173.662 285.813 175.042 287.159 174.998 288.777C174.96 290.269 173.652 291.595 172.158 291.648C170.555 291.709 169.18 290.325 169.203 288.668Z" fill="#EBE9E5"/>
<path d="M124.91 238.785C126.571 238.747 127.951 240.092 127.914 241.706C127.875 243.199 126.571 244.522 125.074 244.583C123.469 244.649 122.096 243.265 122.117 241.608C122.139 240 123.307 238.822 124.91 238.79V238.785Z" fill="#EBE9E5"/>
<path d="M27.937 147.617C27.8942 146.01 29.0174 144.766 30.5971 144.669C32.2713 144.565 33.6781 145.814 33.7333 147.449C33.7815 149.029 32.3533 150.479 30.7719 150.456C29.2564 150.435 27.9815 149.159 27.937 147.617Z" fill="#EBE9E5"/>
<path d="M21.9071 135.694C21.9392 137.296 20.7999 138.534 19.2131 138.61C17.5353 138.698 16.1393 137.433 16.1107 135.803C16.084 134.202 17.4961 132.794 19.1043 132.834C20.6305 132.871 21.8803 134.141 21.9124 135.689L21.9071 135.694Z" fill="#EBE9E5"/>
<path d="M145.66 265.116C145.693 263.498 146.854 262.342 148.478 262.321C150.142 262.292 151.511 263.65 151.456 265.269C151.406 266.756 150.081 268.074 148.587 268.119C146.984 268.167 145.627 266.772 145.66 265.116Z" fill="#EBE9E5"/>
<path d="M139.624 253.361C139.651 254.964 138.506 256.19 136.914 256.266C135.236 256.343 133.846 255.073 133.824 253.443C133.807 251.836 135.224 250.441 136.827 250.49C138.355 250.534 139.598 251.809 139.619 253.361H139.624Z" fill="#EBE9E5"/>
<path d="M45.4437 159.377C45.4009 160.99 44.2331 162.134 42.6035 162.145C40.94 162.161 39.5832 160.8 39.6492 159.181C39.7133 157.683 41.0327 156.391 42.5322 156.357C44.1582 156.325 45.483 157.704 45.4384 159.371L45.4437 159.377Z" fill="#EBE9E5"/>
<path d="M92.5295 206.444C92.485 208.056 91.3136 209.201 89.6875 209.212C88.0258 209.228 86.6672 207.865 86.7385 206.246C86.8045 204.748 88.1239 203.456 89.6233 203.43C91.2476 203.398 92.5723 204.775 92.5295 206.444Z" fill="#EBE9E5"/>
<path d="M186.71 300.412C186.742 302.013 185.603 303.25 184.016 303.326C182.336 303.413 180.94 302.149 180.914 300.521C180.887 298.917 182.299 297.512 183.907 297.549C185.433 297.589 186.682 298.859 186.715 300.407L186.71 300.412Z" fill="#EBE9E5"/>
<path d="M233.789 347.652C233.733 349.258 232.551 350.393 230.927 350.398C229.264 350.398 227.918 349.025 228.005 347.406C228.085 345.903 229.417 344.627 230.909 344.611C232.535 344.595 233.849 345.979 233.789 347.652Z" fill="#EBE9E5"/>
<path d="M216.298 335.45C216.451 333.886 217.742 332.819 219.363 332.917C221.003 333.015 222.274 334.524 222.055 336.116C221.848 337.63 220.426 338.818 218.958 338.699C217.329 338.567 216.134 337.112 216.293 335.45H216.298Z" fill="#EBE9E5"/>
<path d="M239.829 359.341C239.813 357.732 240.953 356.517 242.55 356.446C244.219 356.371 245.615 357.657 245.626 359.285C245.636 360.872 244.18 362.294 242.605 362.233C241.072 362.175 239.845 360.894 239.829 359.341Z" fill="#EBE9E5"/>
<path d="M160.403 250.871C161.859 250.921 163.02 252.18 162.906 253.591C162.803 254.893 161.624 256.004 160.326 256.026C158.903 256.054 157.721 254.845 157.737 253.384C157.753 251.874 158.871 250.823 160.403 250.871Z" fill="#EBE9E5"/>
<path d="M89.6287 180.275C91.0996 180.259 92.2995 181.425 92.2835 182.852C92.2674 184.226 90.9534 185.49 89.5895 185.44C88.2647 185.392 87.1646 184.281 87.1147 182.94C87.0612 181.42 88.1239 180.291 89.634 180.28L89.6287 180.275Z" fill="#EBE9E5"/>
<path d="M77.9825 173.616C76.533 173.664 75.2885 172.499 75.2724 171.081C75.2564 169.715 76.5544 168.417 77.9165 168.434C79.2359 168.451 80.3699 169.551 80.4465 170.891C80.5339 172.407 79.4873 173.572 77.9879 173.622L77.9825 173.616Z" fill="#EBE9E5"/>
<path d="M183.77 274.396C185.243 274.364 186.459 275.513 186.459 276.942C186.459 278.303 185.155 279.589 183.793 279.562C182.468 279.535 181.351 278.434 181.285 277.093C181.208 275.563 182.249 274.428 183.765 274.396H183.77Z" fill="#EBE9E5"/>
<path d="M101.46 191.964C102.883 191.98 104.038 193.218 103.994 194.673C103.951 196.171 102.796 197.222 101.275 197.142C99.943 197.07 98.8376 195.93 98.8215 194.612C98.8037 193.244 100.096 191.947 101.46 191.958V191.964Z" fill="#EBE9E5"/>
<path d="M228.363 323.952C228.392 322.443 229.526 321.397 231.052 321.461C232.403 321.522 233.5 322.618 233.543 323.941C233.587 325.304 232.311 326.606 230.932 326.617C229.51 326.627 228.336 325.407 228.363 323.952Z" fill="#EBE9E5"/>
<path d="M136.768 227.336C138.239 227.347 139.423 228.541 139.368 229.962C139.319 231.357 137.989 232.584 136.625 232.502C135.301 232.42 134.227 231.293 134.201 229.946C134.167 228.432 135.252 227.331 136.768 227.336Z" fill="#EBE9E5"/>
<path d="M242.627 338.334C241.183 338.3 239.993 337.042 240.086 335.635C240.173 334.338 241.34 333.195 242.627 333.15C244.044 333.102 245.25 334.306 245.255 335.767C245.255 337.265 244.137 338.366 242.627 338.334Z" fill="#EBE9E5"/>
<path d="M19.3289 109.689C20.659 109.816 21.711 111.015 21.6503 112.327C21.5862 113.728 20.2543 114.937 18.8868 114.844C17.4586 114.746 16.3782 113.478 16.4816 112.017C16.5921 110.546 17.8134 109.549 19.3236 109.695L19.3289 109.689Z" fill="#EBE9E5"/>
<path d="M33.3571 124.212C33.2483 125.678 32.0038 126.697 30.5044 126.546C29.1903 126.414 28.1224 125.188 28.1883 123.892C28.2596 122.508 29.6165 121.275 30.9572 121.373C32.3854 121.483 33.4605 122.752 33.3571 124.212Z" fill="#EBE9E5"/>
<path d="M66.0047 156.74C67.4649 156.685 68.7076 157.813 68.7415 159.241C68.7736 160.604 67.4988 161.901 66.1241 161.906C64.7994 161.906 63.6601 160.827 63.5727 159.485C63.4747 157.961 64.5052 156.799 66.0047 156.74Z" fill="#EBE9E5"/>
<path d="M124.915 220.676C123.469 220.649 122.276 219.39 122.369 217.99C122.451 216.693 123.617 215.55 124.904 215.5C126.322 215.45 127.532 216.65 127.538 218.109C127.543 219.609 126.425 220.71 124.915 220.681V220.676Z" fill="#EBE9E5"/>
<path d="M42.6409 133.215C44.1083 133.247 45.2743 134.474 45.1941 135.89C45.1121 137.28 43.7535 138.484 42.402 138.37C41.0666 138.261 40.0307 137.127 40.0253 135.771C40.02 134.25 41.1147 133.183 42.6463 133.215H42.6409Z" fill="#EBE9E5"/>
<path d="M151.085 241.788C151.014 243.275 149.821 244.31 148.311 244.202C146.984 244.104 145.895 242.937 145.911 241.624C145.927 240.24 147.241 238.97 148.605 239.025C150.028 239.079 151.156 240.338 151.09 241.788H151.085Z" fill="#EBE9E5"/>
<path d="M219.09 314.803C217.644 314.776 216.451 313.517 216.544 312.117C216.626 310.82 217.792 309.675 219.079 309.627C220.497 309.577 221.708 310.775 221.713 312.236C221.718 313.734 220.6 314.835 219.09 314.808V314.803Z" fill="#EBE9E5"/>
<path d="M113.171 203.806C114.643 203.789 115.842 204.954 115.826 206.383C115.809 207.756 114.495 209.021 113.133 208.971C111.809 208.923 110.707 207.81 110.657 206.47C110.603 204.949 111.666 203.822 113.176 203.811L113.171 203.806Z" fill="#EBE9E5"/>
<path d="M9.82044 100.551C9.77052 102.049 8.61517 103.102 7.09431 103.015C5.76245 102.944 4.65703 101.8 4.64633 100.48C4.63385 99.1121 5.92648 97.8153 7.29044 97.8331C8.71323 97.8491 9.86858 99.0907 9.82044 100.546V100.551Z" fill="#EBE9E5"/>
<path d="M254.589 344.998C256.045 345.053 257.201 346.321 257.081 347.728C256.965 349.03 255.783 350.137 254.491 350.153C253.068 350.169 251.889 348.959 251.912 347.499C251.934 345.99 253.057 344.937 254.589 344.998Z" fill="#EBE9E5"/>
<path d="M171.962 267.738C170.523 267.688 169.339 266.402 169.453 265.007C169.556 263.721 170.756 262.577 172.028 262.554C173.45 262.533 174.632 263.742 174.622 265.203C174.611 266.701 173.472 267.786 171.962 267.732V267.738Z" fill="#EBE9E5"/>
<path d="M207.362 297.927C208.835 297.922 210.027 299.092 210.001 300.521C209.974 301.899 208.655 303.152 207.291 303.093C205.966 303.032 204.876 301.915 204.832 300.569C204.784 299.049 205.857 297.932 207.367 297.927H207.362Z" fill="#EBE9E5"/>
<path d="M198.164 288.885C198.076 290.362 196.862 291.393 195.35 291.261C194.025 291.147 192.952 289.954 192.99 288.647C193.034 287.268 194.375 286.003 195.716 286.08C197.139 286.162 198.246 287.432 198.158 288.885H198.164Z" fill="#EBE9E5"/>
<path d="M54.3478 150.085C52.8965 150.085 51.6876 148.871 51.7358 147.46C51.7803 146.081 53.1265 144.822 54.4672 144.898C55.792 144.975 56.8724 146.108 56.9045 147.449C56.942 148.963 55.8579 150.08 54.3478 150.085Z" fill="#EBE9E5"/>
<path d="M-0.713192 305.599C-0.670401 302.019 -0.829083 298.869 -0.604432 295.627C0.823708 296.433 1.20526 296.842 1.66348 298.052C2.23045 299.56 2.27324 301.108 1.76154 302.624C1.38534 303.741 0.855801 304.821 -0.713192 305.599Z" fill="#EBE9E5"/>
<path d="M268.749 359.389C268.699 360.767 267.597 361.825 266.219 361.82C264.876 361.815 263.726 360.68 263.705 359.346C263.683 357.946 265.019 356.654 266.394 356.752C267.724 356.85 268.797 358.049 268.749 359.389Z" fill="#EBE9E5"/>
<path d="M103.673 170.994C103.705 172.172 102.806 173.169 101.628 173.256C100.332 173.354 99.2513 172.391 99.2138 171.11C99.1799 169.933 100.08 168.94 101.252 168.853C102.55 168.755 103.636 169.721 103.673 170.994Z" fill="#EBE9E5"/>
<path d="M44.8054 112.169C44.8393 113.439 43.7749 114.508 42.5108 114.463C41.3554 114.431 40.373 113.444 40.3463 112.285C40.3142 111.041 41.4196 109.93 42.6534 109.973C43.8087 110.017 44.7787 110.999 44.8054 112.164V112.169Z" fill="#EBE9E5"/>
<path d="M171.956 239.438C173.254 239.385 174.317 240.386 174.306 241.661C174.301 242.828 173.352 243.81 172.179 243.858C170.881 243.913 169.834 242.91 169.845 241.624C169.858 240.441 170.772 239.488 171.956 239.438Z" fill="#EBE9E5"/>
<path d="M115.439 182.765C115.465 184.035 114.403 185.098 113.139 185.054C111.981 185.017 111.006 184.03 110.979 182.868C110.951 181.621 112.058 180.521 113.29 180.569C114.447 180.619 115.417 181.6 115.444 182.765H115.439Z" fill="#EBE9E5"/>
<path d="M221.39 288.798C221.347 289.965 220.37 290.907 219.194 290.925C217.901 290.941 216.881 289.904 216.931 288.613C216.979 287.316 218.06 286.39 219.368 286.511C220.534 286.614 221.435 287.633 221.385 288.798H221.39Z" fill="#EBE9E5"/>
<path d="M124.997 192.373C126.288 192.389 127.292 193.458 127.21 194.726C127.133 195.904 126.158 196.803 124.963 196.793C123.667 196.782 122.674 195.718 122.761 194.427C122.843 193.244 123.808 192.357 124.997 192.368V192.373Z" fill="#EBE9E5"/>
<path d="M162.519 229.973C162.475 231.145 161.51 232.092 160.342 232.121C159.083 232.148 158.015 231.057 158.064 229.798C158.108 228.665 159.139 227.652 160.255 227.63C161.505 227.604 162.567 228.703 162.519 229.973Z" fill="#EBE9E5"/>
<path d="M268.476 335.865C268.426 337.037 267.451 337.974 266.272 337.985C264.981 338.001 263.962 336.955 264.02 335.669C264.076 334.378 265.16 333.451 266.468 333.571C267.636 333.679 268.529 334.693 268.481 335.865H268.476Z" fill="#EBE9E5"/>
<path d="M30.8592 102.676C29.5612 102.698 28.5432 101.668 28.586 100.377C28.6287 99.1887 29.5666 98.2731 30.7558 98.2517C32.0484 98.2303 33.0897 99.2653 33.0451 100.535C33.0077 101.697 32.0324 102.655 30.8592 102.676Z" fill="#EBE9E5"/>
<path d="M68.3492 135.819C68.3207 136.991 67.3668 137.955 66.2007 137.994C64.9402 138.037 63.8562 136.959 63.8883 135.705C63.9221 134.572 64.9295 133.548 66.0581 133.509C67.3026 133.466 68.3813 134.556 68.3545 135.824L68.3492 135.819Z" fill="#EBE9E5"/>
<path d="M254.507 326.241C253.248 326.262 252.178 325.168 252.233 323.914C252.283 322.781 253.314 321.768 254.43 321.75C255.68 321.729 256.737 322.829 256.687 324.105C256.644 325.277 255.674 326.225 254.507 326.241Z" fill="#EBE9E5"/>
<path d="M150.759 218.056C150.791 219.233 149.89 220.229 148.714 220.316C147.416 220.414 146.337 219.451 146.298 218.17C146.266 216.992 147.164 216 148.338 215.915C149.636 215.815 150.72 216.78 150.759 218.056Z" fill="#EBE9E5"/>
<path d="M244.932 312.263C244.922 313.43 243.968 314.406 242.802 314.454C241.509 314.509 240.457 313.501 240.473 312.215C240.484 311.032 241.411 310.084 242.589 310.034C243.886 309.986 244.945 310.989 244.932 312.263Z" fill="#EBE9E5"/>
<path d="M136.816 204.099C138.077 204.139 139.079 205.272 138.97 206.542C138.872 207.707 137.857 208.617 136.697 208.59C135.433 208.558 134.423 207.423 134.537 206.166C134.641 205.004 135.682 204.067 136.816 204.105V204.099Z" fill="#EBE9E5"/>
<path d="M9.49776 76.9119C9.50845 78.0839 8.58132 79.0708 7.40993 79.1403C6.11194 79.2168 5.04931 78.2371 5.03861 76.951C5.02791 75.7629 5.93186 74.7975 7.11574 74.7333C8.41372 74.6567 9.48706 75.6365 9.49776 76.9172V76.9119Z" fill="#EBE9E5"/>
<path d="M209.608 276.984C209.592 278.162 208.649 279.126 207.476 279.175C206.217 279.224 205.121 278.157 205.144 276.902C205.165 275.77 206.162 274.74 207.296 274.69C208.54 274.637 209.63 275.714 209.608 276.984Z" fill="#EBE9E5"/>
<path d="M195.548 267.389C194.255 267.349 193.278 266.272 193.389 264.986C193.487 263.814 194.478 262.935 195.668 262.964C196.955 262.996 197.941 264.091 197.827 265.362C197.723 266.544 196.741 267.415 195.543 267.383L195.548 267.389Z" fill="#EBE9E5"/>
<path d="M80.1256 147.438C80.1737 148.614 79.2911 149.617 78.1019 149.72C76.8057 149.831 75.7092 148.881 75.6646 147.606C75.6218 146.43 76.5151 145.422 77.6776 145.324C78.9756 145.214 80.0649 146.163 80.1202 147.444L80.1256 147.438Z" fill="#EBE9E5"/>
<path d="M21.258 88.7592C21.2259 89.9313 20.2774 90.8896 19.1042 90.9288C17.8455 90.9662 16.7597 89.8868 16.7989 88.6345C16.831 87.4998 17.8455 86.4756 18.9687 86.4382C20.2114 86.3937 21.2901 87.4892 21.258 88.7592Z" fill="#EBE9E5"/>
<path d="M231.025 302.706C229.77 302.76 228.665 301.693 228.681 300.444C228.697 299.311 229.693 298.28 230.829 298.226C231.968 298.171 233.02 299.092 233.134 300.253C233.265 301.529 232.295 302.651 231.02 302.712L231.025 302.706Z" fill="#EBE9E5"/>
<path d="M54.255 121.788C55.553 121.743 56.605 122.757 56.5889 124.027C56.5711 125.188 55.6119 126.163 54.4405 126.207C53.1478 126.255 52.1012 125.236 52.1226 123.95C52.144 122.768 53.0712 121.825 54.255 121.783V121.788Z" fill="#EBE9E5"/>
<path d="M89.6126 157.034C90.7519 157 91.7878 157.95 91.8805 159.109C91.9839 160.385 90.9908 161.496 89.7214 161.53C88.5589 161.562 87.5462 160.647 87.4428 159.48C87.3322 158.249 88.3735 157.072 89.6073 157.034H89.6126Z" fill="#EBE9E5"/>
<path d="M186.061 253.493C186.022 254.665 185.057 255.618 183.891 255.645C182.631 255.673 181.557 254.588 181.606 253.334C181.65 252.201 182.675 251.182 183.793 251.154C185.036 251.122 186.104 252.228 186.061 253.493Z" fill="#EBE9E5"/>
<path d="M280.242 347.477C280.274 348.747 279.211 349.814 277.945 349.771C276.79 349.739 275.809 348.753 275.781 347.591C275.749 346.35 276.856 345.238 278.088 345.281C279.243 345.325 280.213 346.305 280.247 347.472L280.242 347.477Z" fill="#EBE9E5"/>
<path d="M292.023 359.325C292.013 360.489 291.059 361.466 289.891 361.515C288.6 361.569 287.546 360.561 287.564 359.275C287.575 358.092 288.502 357.144 289.679 357.096C290.977 357.046 292.034 358.049 292.023 359.325Z" fill="#EBE9E5"/>
<path d="M-0.665038 272.679C0.632947 273.274 0.948528 274.184 1.23737 275.034C1.66349 276.286 1.65279 277.59 1.24271 278.848C0.959226 279.715 0.588373 280.576 -0.310232 281.039C-0.490309 280.788 -0.65434 280.668 -0.65434 280.543C-0.670387 278.053 -0.665038 275.558 -0.665038 272.679Z" fill="#EBE9E5"/>
<path d="M126.955 171.06C126.942 172.161 126.06 173.044 124.968 173.039C123.89 173.039 122.979 172.118 122.984 171.049C122.989 170.009 123.961 169.038 124.992 169.044C126.054 169.044 126.96 169.981 126.955 171.06Z" fill="#EBE9E5"/>
<path d="M291.756 335.778C291.75 336.878 290.863 337.76 289.771 337.755C288.693 337.755 287.782 336.834 287.787 335.767C287.792 334.725 288.762 333.756 289.793 333.761C290.857 333.761 291.761 334.698 291.756 335.778Z" fill="#EBE9E5"/>
<path d="M244.667 288.689C244.672 289.785 243.793 290.684 242.709 290.69C241.628 290.695 240.708 289.795 240.696 288.723C240.685 287.681 241.639 286.707 242.682 286.696C243.739 286.678 244.661 287.605 244.667 288.689Z" fill="#EBE9E5"/>
<path d="M77.8951 121.978C78.9524 121.978 79.8688 122.91 79.8635 123.99C79.8635 125.09 78.9809 125.972 77.8898 125.972C76.8111 125.972 75.8947 125.062 75.8947 123.99C75.8947 122.947 76.8646 121.978 77.8951 121.973V121.978Z" fill="#EBE9E5"/>
<path d="M56.3215 100.437C56.3322 101.533 55.4496 102.438 54.3691 102.443C53.2905 102.454 52.3687 101.554 52.3526 100.48C52.3419 99.4398 53.2851 98.4637 54.3317 98.4476C55.389 98.4316 56.3161 99.3579 56.3215 100.437Z" fill="#EBE9E5"/>
<path d="M266.137 314.22C265.046 314.16 264.184 313.212 264.25 312.144C264.309 311.109 265.34 310.166 266.344 310.225C267.401 310.286 268.274 311.272 268.214 312.345C268.159 313.435 267.215 314.285 266.137 314.226V314.22Z" fill="#EBE9E5"/>
<path d="M9.23562 53.4915C9.18213 54.5816 8.2443 55.4313 7.16384 55.3761C6.07446 55.3173 5.2133 54.3732 5.27213 53.3009C5.33275 52.2642 6.35795 51.3219 7.35996 51.3771C8.41903 51.4359 9.29089 52.4174 9.23562 53.4915Z" fill="#EBE9E5"/>
<path d="M103.411 147.552C103.395 148.653 102.502 149.524 101.405 149.503C100.326 149.487 99.4206 148.561 99.442 147.492C99.4634 146.462 100.457 145.491 101.471 145.509C102.534 145.531 103.427 146.468 103.411 147.552Z" fill="#EBE9E5"/>
<path d="M148.648 192.569C149.7 192.646 150.566 193.649 150.497 194.71C150.425 195.79 149.466 196.639 148.391 196.563C147.302 196.486 146.451 195.528 146.528 194.459C146.603 193.43 147.649 192.493 148.642 192.569H148.648Z" fill="#EBE9E5"/>
<path d="M219.236 267.164C218.163 267.209 217.204 266.331 217.154 265.264C217.106 264.245 218.044 263.231 219.074 263.171C220.121 263.11 221.08 264.01 221.123 265.094C221.167 266.184 220.317 267.121 219.236 267.164Z" fill="#EBE9E5"/>
<path d="M197.581 241.64C197.581 242.736 196.703 243.63 195.612 243.635C194.534 243.635 193.612 242.73 193.612 241.662C193.612 240.621 194.566 239.65 195.602 239.64C196.659 239.629 197.581 240.561 197.581 241.645V241.64Z" fill="#EBE9E5"/>
<path d="M32.7795 76.8477C32.8222 77.9308 31.9664 78.8748 30.886 78.9176C29.818 78.9621 28.8534 78.0839 28.8035 77.0152C28.7607 75.9963 29.6878 74.9827 30.7237 74.9239C31.7703 74.8634 32.7295 75.7683 32.7741 76.8477H32.7795Z" fill="#EBE9E5"/>
<path d="M172.115 220.099C171.034 220.12 170.097 219.239 170.07 218.165C170.041 217.13 170.979 216.143 172.022 216.105C173.074 216.066 174.017 216.982 174.039 218.067C174.065 219.162 173.199 220.078 172.115 220.099Z" fill="#EBE9E5"/>
<path d="M254.398 302.455C253.307 302.416 252.451 301.5 252.495 300.412C252.533 299.316 253.428 298.494 254.546 298.52C255.641 298.547 256.507 299.463 256.47 300.542C256.432 301.611 255.478 302.492 254.403 302.455H254.398Z" fill="#EBE9E5"/>
<path d="M89.6661 133.797C90.7626 133.787 91.6559 134.665 91.6666 135.75C91.679 136.806 90.7519 137.721 89.6661 137.727C88.566 137.727 87.6924 136.856 87.6924 135.76C87.6924 134.642 88.5375 133.803 89.6608 133.797H89.6661Z" fill="#EBE9E5"/>
<path d="M21.0352 65.1696C21.0352 66.2313 20.1134 67.1415 19.0276 67.1415C17.9329 67.1415 17.0539 66.258 17.0664 65.1643C17.0717 64.0527 17.9275 63.212 19.0508 63.212C20.1402 63.212 21.0352 64.0902 21.0405 65.175L21.0352 65.1696Z" fill="#EBE9E5"/>
<path d="M115.21 159.295C115.21 160.358 114.289 161.268 113.203 161.268C112.108 161.268 111.229 160.385 111.242 159.289C111.247 158.178 112.103 157.339 113.226 157.339C114.315 157.339 115.21 158.217 115.216 159.3L115.21 159.295Z" fill="#EBE9E5"/>
<path d="M280.017 323.893C280.083 324.928 279.19 325.909 278.12 325.973C277.018 326.039 276.103 325.222 276.043 324.121C275.982 323.02 276.8 322.11 277.902 322.046C278.986 321.985 279.947 322.824 280.017 323.893Z" fill="#EBE9E5"/>
<path d="M185.842 229.771C185.908 230.806 185.015 231.788 183.945 231.854C182.845 231.918 181.928 231.102 181.868 230.001C181.809 228.9 182.625 227.99 183.727 227.924C184.811 227.864 185.772 228.703 185.842 229.771Z" fill="#EBE9E5"/>
<path d="M66.1134 110.268C67.2099 110.258 68.1085 111.129 68.1192 112.213C68.1299 113.27 67.2099 114.191 66.1295 114.196C65.0276 114.207 64.1504 113.336 64.1504 112.235C64.1504 111.118 64.9902 110.279 66.1134 110.263V110.268Z" fill="#EBE9E5"/>
<path d="M232.922 276.958C232.922 278.019 231.99 278.924 230.904 278.919C229.809 278.914 228.936 278.03 228.948 276.929C228.959 275.823 229.815 274.984 230.938 274.984C232.027 274.984 232.922 275.868 232.922 276.952V276.958Z" fill="#EBE9E5"/>
<path d="M160.337 208.323C159.237 208.35 158.342 207.495 158.326 206.399C158.31 205.282 159.139 204.422 160.255 204.393C161.346 204.367 162.268 205.227 162.3 206.306C162.334 207.347 161.407 208.296 160.337 208.323Z" fill="#EBE9E5"/>
<path d="M303.561 347.472C303.598 348.512 302.682 349.472 301.614 349.504C300.512 349.542 299.613 348.697 299.585 347.597C299.558 346.48 300.376 345.614 301.5 345.575C302.589 345.537 303.522 346.392 303.561 347.472Z" fill="#EBE9E5"/>
<path d="M209.38 253.427C209.38 254.49 208.448 255.393 207.362 255.388C206.265 255.383 205.394 254.501 205.404 253.4C205.415 252.294 206.273 251.455 207.394 251.455C208.485 251.455 209.38 252.337 209.38 253.422V253.427Z" fill="#EBE9E5"/>
<path d="M44.5826 88.6719C44.5986 89.7229 43.6768 90.6563 42.5982 90.667C41.4963 90.6777 40.6137 89.8102 40.6084 88.7147C40.6084 87.5925 41.4375 86.7535 42.5661 86.7374C43.6608 86.7214 44.5665 87.5871 44.5826 88.6719Z" fill="#EBE9E5"/>
<path d="M138.758 182.706C138.824 183.741 137.929 184.723 136.861 184.787C135.759 184.853 134.842 184.035 134.784 182.934C134.723 181.833 135.541 180.923 136.641 180.859C137.727 180.798 138.686 181.637 138.758 182.706Z" fill="#EBE9E5"/>
<path d="M315.234 359.237C315.271 360.288 314.333 361.248 313.281 361.22C312.333 361.193 311.498 360.359 311.461 359.389C311.416 358.37 312.131 357.547 313.133 357.444C314.23 357.335 315.189 358.152 315.234 359.237Z" fill="#EBE9E5"/>
<path d="M209.084 229.875C209.084 230.78 208.36 231.542 207.46 231.587C206.474 231.635 205.613 230.753 205.682 229.766C205.743 228.906 206.588 228.131 207.439 228.165C208.31 228.191 209.079 228.993 209.084 229.88V229.875Z" fill="#EBE9E5"/>
<path d="M44.2723 65.2783C44.2117 66.1885 43.4379 66.8957 42.5322 66.8743C41.655 66.8529 40.8758 66.062 40.8705 65.1856C40.858 64.2148 41.819 63.3385 42.7568 63.4578C43.6447 63.5718 44.3312 64.3948 44.2723 65.2783Z" fill="#EBE9E5"/>
<path d="M20.7357 41.6067C20.7517 42.5045 20.0314 43.2847 19.1328 43.3381C18.1451 43.3987 17.2732 42.533 17.3267 41.5408C17.3766 40.6805 18.211 39.8949 19.0668 39.9109C19.9387 39.927 20.7178 40.7232 20.7357 41.6067Z" fill="#EBE9E5"/>
<path d="M138.437 159.524C138.305 160.429 137.486 161.078 136.588 160.985C135.584 160.887 134.882 159.911 135.099 158.93C135.29 158.064 136.228 157.421 137.051 157.59C137.939 157.77 138.562 158.636 138.437 159.519V159.524Z" fill="#EBE9E5"/>
<path d="M66.0742 90.4105C65.197 90.3891 64.4178 89.5982 64.4125 88.7147C64.4018 87.8543 65.1863 87.0153 66.0421 86.9726C67.0066 86.9227 67.8803 87.8276 67.8197 88.8073C67.7591 89.7175 66.9853 90.4318 66.0813 90.4051L66.0742 90.4105Z" fill="#EBE9E5"/>
<path d="M230.893 255.128C230.016 255.11 229.231 254.332 229.214 253.448C229.198 252.588 229.971 251.749 230.829 251.694C231.794 251.635 232.676 252.533 232.617 253.514C232.562 254.424 231.799 255.144 230.893 255.128Z" fill="#EBE9E5"/>
<path d="M161.995 182.815C161.995 183.72 161.269 184.482 160.371 184.525C159.383 184.575 158.522 183.691 158.593 182.706C158.652 181.844 159.497 181.071 160.347 181.103C161.221 181.132 161.99 181.931 161.995 182.82V182.815Z" fill="#EBE9E5"/>
<path d="M326.785 347.662C326.721 348.567 325.935 349.276 325.036 349.248C324.152 349.221 323.384 348.43 323.384 347.548C323.384 346.578 324.343 345.707 325.281 345.831C326.176 345.951 326.851 346.774 326.785 347.662Z" fill="#EBE9E5"/>
<path d="M114.888 135.994C114.758 136.899 113.939 137.547 113.041 137.454C112.037 137.356 111.332 136.38 111.552 135.4C111.743 134.533 112.68 133.89 113.504 134.059C114.392 134.239 115.014 135.107 114.888 135.988V135.994Z" fill="#EBE9E5"/>
<path d="M89.5413 110.512C90.4025 110.443 91.2476 111.161 91.3457 112.044C91.4544 113.058 90.6699 113.941 89.6554 113.941C88.7782 113.941 87.9812 113.172 87.9545 112.29C87.9277 111.423 88.6801 110.584 89.5413 110.512Z" fill="#EBE9E5"/>
<path d="M277.968 302.188C277.089 302.166 276.31 301.376 276.305 300.492C276.294 299.632 277.079 298.793 277.935 298.75C278.899 298.7 279.773 299.605 279.707 300.585C279.646 301.495 278.872 302.209 277.968 302.183V302.188Z" fill="#EBE9E5"/>
<path d="M256.159 277.056C256.099 277.961 255.325 278.678 254.425 278.657C253.547 278.636 252.768 277.85 252.758 276.968C252.747 275.998 253.701 275.121 254.639 275.235C255.526 275.344 256.213 276.161 256.159 277.056Z" fill="#EBE9E5"/>
<path d="M301.587 322.284C302.453 322.3 303.243 323.097 303.254 323.98C303.272 324.988 302.388 325.806 301.391 325.706C300.501 325.619 299.799 324.803 299.847 323.914C299.897 323.054 300.729 322.268 301.582 322.284H301.587Z" fill="#EBE9E5"/>
<path d="M185.537 206.346C185.537 207.249 184.811 208.013 183.913 208.056C182.925 208.106 182.064 207.222 182.135 206.235C182.196 205.375 183.041 204.602 183.891 204.634C184.763 204.661 185.532 205.462 185.537 206.351V206.346Z" fill="#EBE9E5"/>
<path d="M54.2604 78.6076C53.3333 78.5578 52.6361 77.8168 52.6522 76.9012C52.6736 75.8716 53.5294 75.1359 54.5653 75.2606C55.4657 75.3639 56.1254 76.1762 56.0434 77.0811C55.9613 77.9753 55.1661 78.6557 54.2604 78.6076Z" fill="#EBE9E5"/>
<path d="M79.5961 100.557C79.5479 101.446 78.7616 102.16 77.8577 102.142C76.9412 102.121 76.1995 101.39 76.1942 100.485C76.1835 99.4505 77.0179 98.6935 78.0592 98.7861C78.9471 98.8627 79.646 99.6678 79.6014 100.557H79.5961Z" fill="#EBE9E5"/>
<path d="M124.87 145.846C125.781 145.793 126.571 146.452 126.677 147.351C126.78 148.26 126.142 149.067 125.215 149.181C124.189 149.312 123.296 148.561 123.278 147.563C123.262 146.642 123.95 145.901 124.87 145.841V145.846Z" fill="#EBE9E5"/>
<path d="M150.229 171.153C150.179 172.042 149.395 172.756 148.489 172.738C147.574 172.717 146.833 171.986 146.827 171.081C146.817 170.047 147.649 169.289 148.692 169.382C149.58 169.459 150.277 170.266 150.235 171.153H150.229Z" fill="#EBE9E5"/>
<path d="M173.771 194.684C173.723 195.578 172.942 196.285 172.033 196.269C171.116 196.253 170.375 195.517 170.369 194.612C170.359 193.577 171.193 192.82 172.234 192.913C173.122 192.988 173.821 193.795 173.777 194.684H173.771Z" fill="#EBE9E5"/>
<path d="M101.574 122.317C102.462 122.381 103.183 123.177 103.151 124.061C103.117 124.953 102.338 125.684 101.432 125.678C100.412 125.673 99.6275 124.789 99.7523 123.788C99.8682 122.867 100.637 122.246 101.574 122.317Z" fill="#EBE9E5"/>
<path d="M197.319 218.202C197.276 219.096 196.497 219.81 195.586 219.8C194.669 219.789 193.922 219.053 193.911 218.154C193.895 217.124 194.73 216.355 195.766 216.437C196.654 216.508 197.363 217.315 197.319 218.197V218.202Z" fill="#EBE9E5"/>
<path d="M220.862 241.613C220.884 242.5 220.142 243.291 219.247 243.334C218.322 243.379 217.541 242.709 217.466 241.809C217.379 240.785 218.158 239.951 219.183 239.962C220.087 239.973 220.839 240.714 220.862 241.619V241.613Z" fill="#EBE9E5"/>
<path d="M242.736 263.491C243.636 263.504 244.388 264.255 244.404 265.155C244.42 266.042 243.679 266.828 242.785 266.865C241.755 266.909 240.937 266.087 241.003 265.073C241.061 264.152 241.803 263.475 242.73 263.491H242.736Z" fill="#EBE9E5"/>
<path d="M266.251 287.022C267.157 287.022 267.914 287.758 267.946 288.652C267.973 289.539 267.249 290.341 266.354 290.39C265.318 290.444 264.495 289.644 264.545 288.631C264.587 287.71 265.318 287.022 266.246 287.022H266.251Z" fill="#EBE9E5"/>
<path d="M289.821 310.553C290.72 310.564 291.472 311.315 291.494 312.215C291.512 313.104 290.77 313.887 289.875 313.925C288.844 313.969 288.026 313.146 288.092 312.133C288.152 311.212 288.894 310.537 289.821 310.553Z" fill="#EBE9E5"/>
<path d="M315.032 335.87C314.982 336.759 314.198 337.472 313.292 337.456C312.376 337.434 311.634 336.704 311.629 335.799C311.618 334.764 312.452 334.007 313.494 334.1C314.383 334.174 315.08 334.981 315.038 335.87H315.032Z" fill="#EBE9E5"/>
<path d="M7.28513 31.5567C6.36869 31.5567 5.60559 30.8495 5.56637 29.95C5.52893 28.9257 6.34195 28.1295 7.37249 28.1901C8.2604 28.2382 8.99676 29.0291 8.97536 29.9126C8.95218 30.7997 8.18373 31.5514 7.27978 31.5514L7.28513 31.5567Z" fill="#EBE9E5"/>
<path d="M32.5174 53.4861C32.4728 54.3786 31.6936 55.0929 30.7825 55.0822C29.8679 55.0715 29.1208 54.3358 29.1101 53.4363C29.0923 52.4067 29.9267 51.6389 30.9626 51.7209C31.8523 51.7904 32.5601 52.5973 32.5174 53.4808V53.4861Z" fill="#EBE9E5"/>
<path d="M337.003 357.623C337.891 357.689 338.612 358.486 338.58 359.367C338.546 360.261 337.767 360.992 336.863 360.986C335.843 360.981 335.056 360.098 335.183 359.095C335.297 358.174 336.066 357.552 337.003 357.623Z" fill="#EBE9E5"/>
<path d="M-0.681132 250.13C0.490264 250.598 0.67569 251.437 0.84507 252.249C1.17313 253.842 0.900341 254.914 -0.180124 256.566C-0.670434 256.61 -0.697178 256.266 -0.702527 255.922C-0.718574 254.054 -0.741752 252.185 -0.68648 250.124L-0.681132 250.13Z" fill="#EBE9E5"/>
<path d="M195.7 193.064C196.463 193.12 197.117 193.882 197.074 194.678C197.03 195.517 196.349 196.116 195.509 196.057C194.703 196.002 194.031 195.25 194.108 194.488C194.184 193.713 194.969 193.016 195.7 193.064Z" fill="#EBE9E5"/>
<path d="M267.7 265.105C267.745 265.949 267.139 266.619 266.306 266.653C265.514 266.68 264.773 266.015 264.73 265.24C264.691 264.494 265.4 263.716 266.169 263.666C266.927 263.618 267.663 264.303 267.7 265.105Z" fill="#EBE9E5"/>
<path d="M232.427 229.925C232.398 230.692 231.656 231.396 230.888 231.38C230.093 231.357 229.438 230.66 229.46 229.853C229.476 229.004 230.103 228.419 230.97 228.437C231.799 228.459 232.453 229.128 232.427 229.925Z" fill="#EBE9E5"/>
<path d="M91.1656 88.7378C91.1388 89.5056 90.3971 90.2092 89.6287 90.1931C88.8317 90.17 88.1774 89.4735 88.2005 88.6666C88.2166 87.8169 88.8424 87.2326 89.7107 87.2505C90.538 87.2718 91.1923 87.9416 91.1656 88.7378Z" fill="#EBE9E5"/>
<path d="M30.7718 28.3539C31.5403 28.3254 32.2499 29.0237 32.2713 29.8306C32.2927 30.675 31.6776 31.3287 30.8378 31.3394C30.048 31.3501 29.317 30.6696 29.3009 29.8947C29.2831 29.143 30.0141 28.3807 30.7718 28.3539Z" fill="#EBE9E5"/>
<path d="M279.516 276.984C279.489 277.752 278.747 278.456 277.979 278.44C277.182 278.418 276.528 277.72 276.551 276.913C276.567 276.064 277.193 275.481 278.061 275.497C278.888 275.518 279.543 276.188 279.516 276.984Z" fill="#EBE9E5"/>
<path d="M126.446 124.016C126.436 124.861 125.792 125.482 124.952 125.466C124.146 125.445 123.453 124.741 123.481 123.961C123.508 123.199 124.261 122.463 125.008 122.479C125.776 122.49 126.457 123.225 126.446 124.016Z" fill="#EBE9E5"/>
<path d="M160.196 157.834C161.007 157.786 161.749 158.402 161.809 159.186C161.865 159.927 161.182 160.702 160.408 160.771C159.613 160.843 158.893 160.216 158.837 159.398C158.778 158.538 159.345 157.889 160.196 157.834Z" fill="#EBE9E5"/>
<path d="M55.8133 53.3062C55.8686 54.1452 55.2642 54.831 54.4404 54.8755C53.6488 54.9129 52.8964 54.2539 52.8429 53.4861C52.793 52.7451 53.4919 51.9596 54.2604 51.8883C55.0181 51.8242 55.7598 52.5046 55.8133 53.3062Z" fill="#EBE9E5"/>
<path d="M255.974 253.4C255.974 254.163 255.259 254.888 254.491 254.898C253.683 254.909 253.012 254.25 253.007 253.427C253.002 252.572 253.603 251.966 254.464 251.961C255.275 251.95 255.969 252.615 255.974 253.4Z" fill="#EBE9E5"/>
<path d="M77.9772 78.4046C77.1873 78.4438 76.4349 77.7847 76.385 77.0098C76.3368 76.2635 77.034 75.4851 77.8078 75.4191C78.5655 75.3532 79.3072 76.0355 79.3572 76.8406C79.4106 77.6867 78.8116 78.3672 77.9772 78.4046Z" fill="#EBE9E5"/>
<path d="M19.0615 16.6544C19.8727 16.6598 20.5556 17.3349 20.5449 18.1186C20.5324 18.8882 19.7978 19.5953 19.0276 19.59C18.2324 19.59 17.5674 18.8935 17.5781 18.0866C17.5888 17.2316 18.2003 16.642 19.0615 16.6473V16.6544Z" fill="#EBE9E5"/>
<path d="M336.834 334.256C337.603 334.23 338.312 334.928 338.334 335.733C338.355 336.579 337.74 337.233 336.9 337.244C336.11 337.254 335.379 336.574 335.363 335.799C335.345 335.047 336.076 334.285 336.834 334.256Z" fill="#EBE9E5"/>
<path d="M183.733 181.365C184.546 181.311 185.287 181.931 185.352 182.712C185.412 183.453 184.726 184.231 183.955 184.302C183.16 184.379 182.435 183.746 182.381 182.934C182.321 182.079 182.887 181.42 183.733 181.365Z" fill="#EBE9E5"/>
<path d="M207.285 204.901C208.104 204.851 208.835 205.473 208.888 206.258C208.943 206.999 208.257 207.772 207.481 207.838C206.692 207.91 205.971 207.272 205.918 206.46C205.862 205.603 206.435 204.949 207.285 204.901Z" fill="#EBE9E5"/>
<path d="M324.997 322.552C325.81 322.503 326.552 323.118 326.613 323.904C326.666 324.645 325.985 325.418 325.211 325.489C324.414 325.56 323.696 324.933 323.64 324.116C323.58 323.255 324.147 322.607 324.997 322.552Z" fill="#EBE9E5"/>
<path d="M67.6182 65.2783C67.5469 66.0514 66.7784 66.7229 66.0153 66.6677C65.229 66.6071 64.5979 65.8608 64.6514 65.0663C64.712 64.2255 65.3663 63.6698 66.2328 63.725C67.0512 63.7802 67.6895 64.4981 67.6128 65.2836L67.6182 65.2783Z" fill="#EBE9E5"/>
<path d="M242.643 243.117C241.837 243.085 241.154 242.365 241.199 241.592C241.242 240.822 242.01 240.098 242.752 240.131C243.52 240.163 244.187 240.904 244.169 241.701C244.148 242.545 243.488 243.156 242.648 243.122L242.643 243.117Z" fill="#EBE9E5"/>
<path d="M350.149 347.509C350.165 348.273 349.45 349.004 348.676 349.025C347.876 349.046 347.193 348.387 347.177 347.57C347.161 346.715 347.755 346.104 348.616 346.088C349.434 346.072 350.128 346.72 350.144 347.509H350.149Z" fill="#EBE9E5"/>
<path d="M44.0816 41.7047C44.037 42.4671 43.2739 43.1653 42.5161 43.1315C41.7209 43.0941 41.0827 42.3798 41.1147 41.5729C41.1486 40.7339 41.7905 40.1514 42.6534 40.1888C43.4754 40.228 44.1244 40.9138 44.0816 41.7047Z" fill="#EBE9E5"/>
<path d="M219.122 216.601C219.891 216.579 220.595 217.281 220.611 218.083C220.627 218.927 220.007 219.575 219.172 219.586C218.375 219.598 217.657 218.911 217.644 218.138C217.633 217.386 218.37 216.622 219.122 216.601Z" fill="#EBE9E5"/>
<path d="M289.848 290.182C289.051 290.21 288.317 289.546 288.277 288.771C288.24 288.025 288.948 287.246 289.716 287.197C290.481 287.147 291.205 287.834 291.249 288.641C291.292 289.486 290.682 290.155 289.853 290.182H289.848Z" fill="#EBE9E5"/>
<path d="M148.484 146.01C149.254 145.983 149.962 146.68 149.983 147.487C150.006 148.331 149.39 148.985 148.55 148.995C147.76 149.008 147.029 148.326 147.013 147.552C146.997 146.801 147.726 146.037 148.484 146.01Z" fill="#EBE9E5"/>
<path d="M136.811 137.248C136.016 137.285 135.317 136.631 135.295 135.814C135.269 134.959 135.857 134.332 136.713 134.305C137.526 134.284 138.234 134.921 138.267 135.705C138.294 136.462 137.592 137.203 136.816 137.242L136.811 137.248Z" fill="#EBE9E5"/>
<path d="M172.033 169.541C172.801 169.512 173.509 170.21 173.532 171.017C173.554 171.862 172.937 172.515 172.097 172.526C171.302 172.537 170.576 171.856 170.56 171.081C170.544 170.335 171.275 169.567 172.033 169.541Z" fill="#EBE9E5"/>
<path d="M314.792 312.313C314.759 313.152 314.087 313.757 313.249 313.713C312.447 313.67 311.766 312.929 311.825 312.165C311.885 311.392 312.654 310.683 313.401 310.727C314.164 310.77 314.829 311.527 314.797 312.318L314.792 312.313Z" fill="#EBE9E5"/>
<path d="M303.058 300.449C303.074 301.212 302.361 301.942 301.587 301.963C300.785 301.987 300.104 301.328 300.088 300.51C300.07 299.653 300.665 299.044 301.526 299.028C302.339 299.01 303.037 299.658 303.053 300.449H303.058Z" fill="#EBE9E5"/>
<path d="M99.9377 100.361C100.009 99.5877 100.801 98.8894 101.53 98.9393C102.293 98.9927 102.947 99.7551 102.904 100.551C102.86 101.39 102.184 101.985 101.339 101.93C100.533 101.875 99.8628 101.128 99.9377 100.366V100.361Z" fill="#EBE9E5"/>
<path d="M114.718 112.185C114.747 112.944 114.037 113.685 113.263 113.717C112.461 113.749 111.775 113.095 111.753 112.279C111.727 111.423 112.32 110.796 113.176 110.774C113.994 110.753 114.697 111.396 114.725 112.18L114.718 112.185Z" fill="#EBE9E5"/>
<mask id="mask0_32_160" style="mask-type:luminance" maskUnits="userSpaceOnUse" x="358" y="357" width="4" height="5">
<path d="M358.871 357.896H361.838V361.088H358.871V357.896Z" fill="white"/>
</mask>
<g mask="url(#mask0_32_160)">
<path d="M360.447 360.698C359.782 360.725 359.139 360.114 359.08 359.406C359.019 358.681 359.554 358.038 360.273 357.978C361.118 357.907 361.827 358.55 361.788 359.357C361.761 360.032 361.123 360.669 360.447 360.698Z" fill="#EBE9E5"/>
</g>
<path d="M8.64196 6.44231C8.58134 7.1281 7.927 7.72127 7.24592 7.72127C6.46677 7.72127 5.83917 6.94819 5.94258 6.11989C6.02995 5.42163 6.71816 4.9104 7.43134 5.00837C8.1677 5.10634 8.70793 5.74404 8.64196 6.44231Z" fill="#EBE9E5"/>
<path d="M55.6065 29.868C55.5958 30.5485 54.9254 31.1488 54.2336 31.0936C53.6488 31.0508 53.1425 30.4897 53.1371 29.8787C53.1318 29.1377 53.7255 28.6033 54.4779 28.6853C55.0894 28.7512 55.6119 29.2962 55.6065 29.868Z" fill="#EBE9E5"/>
<path d="M148.386 122.807C149.138 122.741 149.782 123.286 149.776 123.984C149.776 124.561 149.27 125.117 148.664 125.215C147.983 125.318 147.318 124.731 147.307 124.016C147.302 123.368 147.749 122.867 148.386 122.812V122.807Z" fill="#EBE9E5"/>
<path d="M30.8004 5.1384C31.4155 5.1384 31.9825 5.61935 32.0484 6.20183C32.1251 6.87694 31.5189 7.56451 30.8271 7.58589C30.1335 7.60726 29.5559 6.95887 29.6058 6.22855C29.6539 5.5855 30.146 5.1384 30.8004 5.1384Z" fill="#EBE9E5"/>
<path d="M102.692 76.9279C102.682 77.6101 102.009 78.2086 101.318 78.1552C100.735 78.1107 100.227 77.5496 100.221 76.9404C100.216 76.1976 100.811 75.665 101.564 75.7469C102.173 75.811 102.698 76.3561 102.692 76.9279Z" fill="#EBE9E5"/>
<path d="M76.6898 53.2902C76.7397 52.6525 77.2407 52.2 77.8897 52.2C78.61 52.2 79.2252 52.8538 79.1378 53.5182C79.0629 54.1007 78.4835 54.6297 77.9058 54.6458C77.2193 54.6689 76.6363 54.0134 76.6898 53.2848V53.2902Z" fill="#EBE9E5"/>
<path d="M266.121 242.876C265.536 242.834 265.03 242.267 265.024 241.661C265.024 240.915 265.613 240.386 266.37 240.468C266.982 240.534 267.504 241.079 267.499 241.651C267.488 242.326 266.812 242.932 266.121 242.876Z" fill="#EBE9E5"/>
<path d="M314.59 288.728C314.569 289.404 313.88 289.997 313.189 289.933C312.6 289.872 312.108 289.316 312.115 288.7C312.115 287.954 312.72 287.437 313.477 287.53C314.094 287.599 314.606 288.155 314.59 288.728Z" fill="#EBE9E5"/>
<path d="M173.329 147.547C173.302 148.222 172.61 148.815 171.922 148.746C171.329 148.685 170.849 148.124 170.854 147.508C170.86 146.762 171.466 146.25 172.224 146.343C172.839 146.418 173.352 146.974 173.329 147.547Z" fill="#EBE9E5"/>
<path d="M196.85 170.941C196.91 171.627 196.301 172.293 195.602 172.298C195.029 172.303 194.468 171.78 194.407 171.179C194.343 170.526 194.741 169.993 195.368 169.883C196.097 169.758 196.791 170.253 196.85 170.941Z" fill="#EBE9E5"/>
<mask id="mask1_32_160" style="mask-type:luminance" maskUnits="userSpaceOnUse" x="358" y="334" width="4" height="4">
<path d="M358.871 334.183H361.838V337.375H358.871V334.183Z" fill="white"/>
</mask>
<g mask="url(#mask1_32_160)">
<path d="M360.278 334.584C361.02 334.518 361.674 335.074 361.669 335.762C361.669 336.339 361.157 336.895 360.551 336.987C359.87 337.09 359.205 336.503 359.199 335.788C359.194 335.14 359.642 334.638 360.278 334.584Z" fill="#EBE9E5"/>
</g>
<path d="M335.668 312.127C335.716 311.49 336.219 311.037 336.868 311.037C337.586 311.037 338.203 311.691 338.111 312.355C338.034 312.94 337.456 313.467 336.879 313.485C336.19 313.506 335.607 312.847 335.663 312.122L335.668 312.127Z" fill="#EBE9E5"/>
<path d="M124.968 99.2599C125.585 99.2599 126.152 99.7337 126.218 100.318C126.295 100.998 125.694 101.679 125.002 101.707C124.314 101.734 123.726 101.08 123.781 100.355C123.824 99.7177 124.321 99.2599 124.974 99.2599H124.968Z" fill="#EBE9E5"/>
<path d="M289.777 263.977C290.394 263.977 290.961 264.457 291.025 265.039C291.102 265.716 290.497 266.402 289.804 266.423C289.112 266.446 288.534 265.798 288.582 265.068C288.632 264.425 289.123 263.977 289.777 263.977Z" fill="#EBE9E5"/>
<path d="M242.561 219.342C241.972 219.287 241.482 218.726 241.482 218.115C241.482 217.368 242.081 216.852 242.839 216.939C243.451 217.008 243.968 217.564 243.957 218.132C243.941 218.808 243.254 219.406 242.561 219.342Z" fill="#EBE9E5"/>
<path d="M219.019 193.397C219.761 193.332 220.415 193.887 220.41 194.575C220.41 195.152 219.896 195.708 219.292 195.8C218.611 195.904 217.945 195.316 217.94 194.602C217.933 193.953 218.381 193.451 219.019 193.397Z" fill="#EBE9E5"/>
<path d="M114.413 88.8073C114.371 89.4397 113.852 89.9153 113.213 89.9153C112.506 89.9153 111.883 89.2437 111.971 88.574C112.047 87.9968 112.641 87.4411 113.197 87.4232C113.857 87.4019 114.469 88.0948 114.413 88.8073Z" fill="#EBE9E5"/>
<path d="M161.499 135.869C161.455 136.501 160.943 136.975 160.299 136.98C159.59 136.98 158.964 136.316 159.051 135.645C159.126 135.067 159.716 134.512 160.278 134.49C160.938 134.469 161.547 135.155 161.499 135.869Z" fill="#EBE9E5"/>
<path d="M348.639 325.227C348.033 325.227 347.46 324.727 347.402 324.137C347.33 323.467 347.951 322.758 348.628 322.737C349.288 322.715 349.892 323.407 349.842 324.121C349.8 324.748 349.283 325.227 348.644 325.227H348.639Z" fill="#EBE9E5"/>
<path d="M43.782 18.2113C43.7375 18.8436 43.2257 19.3174 42.5821 19.3246C41.8725 19.3246 41.2467 18.6584 41.334 17.9886C41.4089 17.4115 41.9991 16.8557 42.5607 16.8325C43.2204 16.8112 43.8302 17.4987 43.782 18.2113Z" fill="#EBE9E5"/>
<path d="M66.2596 40.3848C66.9478 40.4667 67.4488 41.1917 67.308 41.9006C67.1814 42.517 66.6144 42.9142 65.9708 42.8376C65.3717 42.7663 64.8422 42.1839 64.86 41.6174C64.8814 40.9405 65.5999 40.3099 66.2596 40.3848Z" fill="#EBE9E5"/>
<path d="M230.938 205.086C231.494 205.086 232.061 205.631 232.125 206.235C232.202 206.971 231.64 207.587 230.899 207.577C230.3 207.566 229.722 207.037 229.677 206.46C229.629 205.783 230.262 205.092 230.933 205.086H230.938Z" fill="#EBE9E5"/>
<path d="M255.685 229.885C255.685 230.523 255.216 231.041 254.578 231.09C253.863 231.145 253.182 230.539 253.203 229.869C253.226 229.194 253.945 228.562 254.605 228.633C255.177 228.697 255.68 229.287 255.685 229.885Z" fill="#EBE9E5"/>
<path d="M207.389 181.555C207.945 181.55 208.517 182.095 208.583 182.701C208.665 183.436 208.104 184.051 207.362 184.04C206.763 184.035 206.185 183.506 206.141 182.929C206.087 182.254 206.718 181.561 207.394 181.55L207.389 181.555Z" fill="#EBE9E5"/>
<path d="M301.674 278.151C300.96 278.21 300.278 277.617 300.294 276.942C300.305 276.379 300.845 275.786 301.423 275.698C302.072 275.6 302.758 276.233 302.769 276.942C302.78 277.579 302.306 278.096 301.674 278.157V278.151Z" fill="#EBE9E5"/>
<path d="M325.232 299.229C325.919 299.311 326.422 300.036 326.279 300.743C326.16 301.36 325.587 301.757 324.944 301.68C324.343 301.611 323.815 301.027 323.831 300.46C323.852 299.785 324.573 299.153 325.232 299.229Z" fill="#EBE9E5"/>
<path d="M185.041 159.398C184.997 160.03 184.485 160.504 183.841 160.511C183.133 160.511 182.506 159.845 182.593 159.175C182.67 158.598 183.258 158.042 183.82 158.019C184.48 157.998 185.089 158.685 185.041 159.398Z" fill="#EBE9E5"/>
<path d="M278.022 252.146C278.578 252.146 279.145 252.691 279.211 253.297C279.288 254.033 278.726 254.647 277.984 254.636C277.384 254.626 276.806 254.097 276.763 253.52C276.713 252.844 277.346 252.151 278.017 252.146H278.022Z" fill="#EBE9E5"/>
<path d="M137.955 112.333C137.913 112.965 137.406 113.439 136.763 113.444C136.053 113.45 135.427 112.785 135.507 112.11C135.579 111.531 136.174 110.975 136.729 110.949C137.388 110.922 138 111.613 137.955 112.327V112.333Z" fill="#EBE9E5"/>
<path d="M-0.572305 232.36C-0.805871 230.632 -0.736336 229.107 -0.632926 227.445C0.495679 227.962 0.402966 228.9 0.431493 229.705C0.463586 230.626 0.513508 231.613 -0.572305 232.36Z" fill="#EBE9E5"/>
<path d="M90.866 65.2783C90.8214 65.9106 90.3044 66.3844 89.6661 66.3844C88.9583 66.3844 88.336 65.7147 88.4234 65.0431C88.5 64.466 89.0938 63.9102 89.65 63.8942C90.3097 63.8728 90.9213 64.564 90.866 65.2783Z" fill="#EBE9E5"/>
<path d="M172.997 123.897C172.905 124.627 172.322 125.085 171.885 124.866C171.575 124.709 171.263 124.321 171.182 123.984C171.072 123.516 171.715 122.915 172.126 123.095C172.507 123.259 172.78 123.683 172.997 123.897Z" fill="#EBE9E5"/>
<path d="M290.699 241.466C290.659 242.233 290.153 242.709 289.673 242.518C289.347 242.392 289.008 242.032 288.894 241.706C288.741 241.264 289.335 240.616 289.777 240.751C290.169 240.872 290.469 241.275 290.704 241.466H290.699Z" fill="#EBE9E5"/>
<path d="M360.421 313.146C359.907 313.146 359.451 312.678 359.499 312.193C359.549 311.691 360.071 311.212 360.529 311.321C360.961 311.419 361.26 311.696 361.309 312.17C361.364 312.694 360.95 313.146 360.421 313.146Z" fill="#EBE9E5"/>
<path d="M102.359 53.2617C102.293 54.0134 101.749 54.4765 101.291 54.2753C100.974 54.1345 100.647 53.764 100.549 53.4309C100.417 52.9678 101.029 52.3515 101.46 52.51C101.847 52.6525 102.136 53.0658 102.359 53.267V53.2617Z" fill="#EBE9E5"/>
<path d="M78.7901 29.6169C78.8115 30.4024 78.3908 30.7943 77.8416 30.7729C77.3388 30.7515 77.0821 30.4238 76.9787 30.0052C76.8646 29.542 77.3495 28.8865 77.8131 28.9792C78.2053 29.0558 78.5441 29.4494 78.7848 29.6169H78.7901Z" fill="#EBE9E5"/>
<path d="M195.302 146.632C195.994 146.539 196.497 146.997 196.507 147.503C196.518 147.987 196.251 148.283 195.814 148.413C195.373 148.545 194.637 148.092 194.719 147.677C194.801 147.259 195.143 146.899 195.302 146.632Z" fill="#EBE9E5"/>
<path d="M149.427 100.247C149.427 101.02 148.976 101.424 148.441 101.369C147.956 101.319 147.694 101.004 147.612 100.573C147.519 100.104 148.033 99.4612 148.478 99.5752C148.871 99.6803 149.193 100.072 149.427 100.252V100.247Z" fill="#EBE9E5"/>
<path d="M314.219 264.93C314.241 265.716 313.822 266.108 313.271 266.087C312.768 266.063 312.513 265.737 312.41 265.317C312.294 264.854 312.78 264.2 313.242 264.293C313.636 264.369 313.973 264.761 314.214 264.93H314.219Z" fill="#EBE9E5"/>
<path d="M55.2856 6.23923C55.1928 6.96956 54.6098 7.42735 54.173 7.21003C53.8628 7.0515 53.5508 6.66496 53.4687 6.32651C53.36 5.85803 54.0036 5.25952 54.4137 5.43943C54.7952 5.60153 55.0663 6.02725 55.2856 6.23923Z" fill="#EBE9E5"/>
<path d="M337.772 288.493C337.772 289.268 337.319 289.671 336.786 289.616C336.301 289.567 336.039 289.25 335.957 288.821C335.864 288.353 336.376 287.71 336.823 287.824C337.216 287.927 337.538 288.319 337.772 288.499V288.493Z" fill="#EBE9E5"/>
<path d="M361.298 288.427C361.343 289.208 360.932 289.621 360.394 289.616C359.891 289.616 359.624 289.284 359.499 288.88C359.363 288.451 359.859 287.747 360.307 287.829C360.704 287.9 361.054 288.271 361.298 288.433V288.427Z" fill="#EBE9E5"/>
<path d="M219.183 171.96C218.664 171.97 218.206 171.518 218.24 171.028C218.266 170.526 218.817 169.981 219.236 170.155C219.564 170.287 219.901 170.641 220.023 170.973C220.197 171.452 219.711 171.949 219.188 171.96H219.183Z" fill="#EBE9E5"/>
<path d="M266.251 219.02C265.739 219.02 265.286 218.551 265.329 218.067C265.379 217.564 265.901 217.085 266.36 217.194C266.791 217.292 267.091 217.571 267.139 218.045C267.194 218.567 266.78 219.02 266.251 219.02Z" fill="#EBE9E5"/>
<path d="M125.024 75.665C125.411 76.2742 125.776 76.6233 125.853 77.0259C125.929 77.4569 125.548 77.774 125.079 77.8275C124.56 77.8934 123.972 77.4356 124.097 76.9724C124.205 76.5699 124.592 76.2421 125.024 75.6596V75.665Z" fill="#EBE9E5"/>
<path d="M243.565 194.263C243.652 195.027 243.244 195.478 242.714 195.49C242.219 195.501 241.935 195.2 241.792 194.792C241.639 194.356 242.087 193.643 242.545 193.702C242.948 193.757 243.308 194.117 243.565 194.263Z" fill="#EBE9E5"/>
<path d="M231.847 182.63C231.799 183.387 231.248 183.844 230.742 183.704C230.3 183.583 229.995 183.289 230.021 182.765C230.053 182.209 230.572 181.757 231.089 181.965C231.428 182.095 231.667 182.466 231.847 182.63Z" fill="#EBE9E5"/>
<path d="M324.806 277.818C324.66 277.611 324.311 277.328 324.229 276.984C324.098 276.445 324.605 276.003 325.172 276.063C325.669 276.113 325.947 276.413 326.001 276.886C326.061 277.405 325.548 277.873 324.806 277.818Z" fill="#EBE9E5"/>
<path d="M161.232 112.071C161.134 112.828 160.572 113.243 160.076 113.095C159.624 112.96 159.356 112.637 159.399 112.132C159.443 111.597 160.005 111.161 160.501 111.385C160.834 111.531 161.062 111.907 161.232 112.071Z" fill="#EBE9E5"/>
<path d="M114.119 65.1749C114.114 65.6915 113.574 66.1653 113.062 66.046C112.614 65.9427 112.299 65.6701 112.31 65.1464C112.326 64.6352 112.614 64.352 113.089 64.2861C113.645 64.2041 114.125 64.6406 114.114 65.1749H114.119Z" fill="#EBE9E5"/>
<path d="M90.5772 41.5194C90.6432 42.0414 90.185 42.5437 89.6394 42.5223C89.1544 42.4992 88.8317 42.2373 88.7729 41.7421C88.7122 41.2522 88.9476 40.9085 89.4219 40.7731C89.9229 40.6306 90.5112 41.0171 90.5719 41.5194H90.5772Z" fill="#EBE9E5"/>
<path d="M278.125 231.025C277.706 230.639 277.319 230.425 277.161 230.105C276.927 229.618 277.362 229.046 277.902 228.998C278.464 228.948 279.015 229.38 278.894 229.891C278.813 230.245 278.469 230.534 278.125 231.025Z" fill="#EBE9E5"/>
<path d="M65.8299 18.9808C65.6819 18.7742 65.3342 18.4892 65.2522 18.1472C65.1203 17.6074 65.6284 17.1657 66.1954 17.2262C66.6911 17.2743 66.9692 17.5754 67.0245 18.0492C67.0833 18.5658 66.5716 19.0342 65.8299 18.9808Z" fill="#EBE9E5"/>
<path d="M302.496 253.292C302.377 254.049 301.81 254.43 301.309 254.271C300.845 254.125 300.61 253.787 300.66 253.292C300.708 252.757 301.291 252.342 301.789 252.577C302.115 252.736 302.334 253.117 302.496 253.292Z" fill="#EBE9E5"/>
<path d="M208.321 159.165C208.202 159.922 207.635 160.303 207.134 160.146C206.67 159.998 206.435 159.66 206.485 159.165C206.533 158.63 207.118 158.217 207.613 158.45C207.94 158.609 208.159 158.99 208.321 159.165Z" fill="#EBE9E5"/>
<path d="M136.887 87.5551C137.226 88.0396 137.558 88.3281 137.64 88.6773C137.754 89.1796 137.176 89.6356 136.636 89.5822C136.124 89.5323 135.671 88.9177 135.907 88.46C136.069 88.1375 136.463 87.9309 136.893 87.5497L136.887 87.5551Z" fill="#EBE9E5"/>
<path d="M183.852 134.62C184.239 135.057 184.604 135.308 184.731 135.65C184.899 136.125 184.355 136.647 183.815 136.642C183.264 136.642 182.779 136.125 182.964 135.612C183.084 135.279 183.46 135.035 183.847 134.615L183.852 134.62Z" fill="#EBE9E5"/>
<path d="M254.17 205.478C254.943 205.43 255.423 205.87 255.373 206.399C255.325 206.896 255.015 207.167 254.54 207.233C254 207.309 253.465 206.83 253.597 206.306C253.683 205.963 254.022 205.679 254.17 205.483V205.478Z" fill="#EBE9E5"/>
<path d="M349.577 300.319C349.479 301.076 348.917 301.49 348.42 301.344C347.969 301.206 347.701 300.886 347.744 300.378C347.789 299.844 348.35 299.409 348.846 299.632C349.177 299.78 349.407 300.155 349.577 300.319Z" fill="#EBE9E5"/>
<path d="M124.059 29.9286C124.43 29.6062 124.642 29.2695 124.87 29.2642C125.127 29.2517 125.493 29.4761 125.641 29.7041C125.837 30.0159 125.362 30.6411 124.992 30.5609C124.713 30.5004 124.483 30.2278 124.059 29.9339V29.9286Z" fill="#EBE9E5"/>
<path d="M184.702 89.0585C184.223 89.1849 183.923 89.3417 183.645 89.3096C183.258 89.2722 183.078 88.9552 183.16 88.5633C183.253 88.1162 183.831 87.8009 184.141 88.0609C184.365 88.2515 184.458 88.5953 184.702 89.0585Z" fill="#EBE9E5"/>
<path d="M161.21 88.6167C160.85 88.9498 160.638 89.3043 160.408 89.315C160.151 89.3257 159.781 89.0923 159.64 88.8518C159.438 88.5134 159.896 87.8988 160.289 87.9861C160.567 88.0449 160.795 88.3228 161.21 88.6167Z" fill="#EBE9E5"/>
<path d="M173.024 77.0205C172.582 77.2984 172.332 77.5549 172.049 77.6155C171.662 77.6974 171.302 77.1416 171.432 76.7212C171.553 76.3347 171.874 76.1815 172.218 76.324C172.473 76.4273 172.659 76.6999 173.024 77.0258V77.0205Z" fill="#EBE9E5"/>
<path d="M147.601 76.9938C147.972 76.6732 148.184 76.3347 148.414 76.3294C148.669 76.3187 149.035 76.5414 149.183 76.7711C149.379 77.0811 148.905 77.7081 148.534 77.6262C148.256 77.5656 148.026 77.2931 147.601 76.9991V76.9938Z" fill="#EBE9E5"/>
<path d="M160.278 64.1935C160.577 64.58 160.856 64.7991 160.932 65.077C161.03 65.419 160.861 65.7414 160.44 65.8233C159.989 65.9053 159.481 65.5223 159.602 65.1251C159.688 64.8365 159.966 64.6085 160.278 64.1988V64.1935Z" fill="#EBE9E5"/>
<path d="M137.672 65.1411C137.296 65.4475 137.068 65.7895 136.834 65.7895C136.577 65.7895 136.212 65.5294 136.092 65.2836C135.912 64.9131 136.381 64.3573 136.784 64.4606C137.057 64.5319 137.274 64.8258 137.672 65.1358V65.1411Z" fill="#EBE9E5"/>
<path d="M149.575 53.2724C149.04 53.6607 148.767 53.9706 148.441 54.0419C148.298 54.074 147.901 53.6162 147.895 53.3775C147.895 53.1691 148.255 52.8146 148.502 52.7772C148.74 52.7398 149.035 53.0052 149.575 53.2724Z" fill="#EBE9E5"/>
<path d="M125.111 52.51C125.379 52.925 125.641 53.1637 125.678 53.4363C125.733 53.8228 125.106 54.2432 124.79 54.0312C124.566 53.878 124.348 53.5022 124.369 53.251C124.391 53.0283 124.756 52.8431 125.111 52.51Z" fill="#EBE9E5"/>
<path d="M137.672 41.4909C137.324 41.8561 137.133 42.2266 136.903 42.2498C136.649 42.2765 136.265 42.0592 136.108 41.8294C135.878 41.4963 136.294 40.8871 136.713 40.9352C136.986 40.969 137.237 41.2237 137.672 41.4909Z" fill="#EBE9E5"/>
<path d="M114.13 41.7688C113.706 42.0146 113.422 42.3139 113.192 42.2711C112.93 42.2266 112.609 41.9167 112.522 41.6548C112.397 41.279 112.985 40.7891 113.345 40.9583C113.602 41.0777 113.775 41.3876 114.13 41.7688Z" fill="#EBE9E5"/>
<path d="M301.51 230.812C301.205 230.398 300.927 230.169 300.856 229.891C300.758 229.51 301.368 229.025 301.701 229.216C301.94 229.358 302.186 229.718 302.175 229.973C302.17 230.208 301.826 230.43 301.51 230.806V230.812Z" fill="#EBE9E5"/>
<path d="M325.052 230.812C324.748 230.398 324.469 230.169 324.398 229.891C324.3 229.51 324.912 229.025 325.243 229.216C325.484 229.358 325.728 229.718 325.717 229.973C325.712 230.208 325.368 230.43 325.052 230.806V230.812Z" fill="#EBE9E5"/>
<path d="M277.968 183.746C277.662 183.333 277.384 183.103 277.314 182.826C277.216 182.444 277.826 181.96 278.159 182.15C278.398 182.291 278.644 182.651 278.633 182.907C278.628 183.141 278.284 183.365 277.968 183.741V183.746Z" fill="#EBE9E5"/>
<path d="M254.639 183.752C254.239 183.387 253.929 183.217 253.804 182.961C253.629 182.598 254.093 182.008 254.474 182.122C254.737 182.199 255.047 182.521 255.095 182.776C255.145 183.005 254.861 183.299 254.633 183.746L254.639 183.752Z" fill="#EBE9E5"/>
<path d="M265.318 171.115C265.689 170.793 265.901 170.456 266.131 170.451C266.386 170.438 266.752 170.663 266.9 170.891C267.096 171.203 266.622 171.83 266.251 171.748C265.973 171.687 265.744 171.415 265.318 171.121V171.115Z" fill="#EBE9E5"/>
<path d="M102.484 29.7433C101.951 30.1299 101.678 30.4398 101.35 30.5111C101.209 30.5431 100.811 30.0853 100.806 29.8467C100.806 29.64 101.164 29.2856 101.41 29.2464C101.651 29.209 101.945 29.4761 102.484 29.7433Z" fill="#EBE9E5"/>
<path d="M313.265 242.577C312.998 242.18 312.688 241.923 312.693 241.672C312.704 241.444 313.014 241.1 313.26 241.024C313.706 240.894 314.164 241.362 314.002 241.743C313.886 242.011 313.597 242.212 313.265 242.577Z" fill="#EBE9E5"/>
<path d="M337.833 241.597C337.435 241.934 337.226 242.212 336.955 242.315C336.567 242.458 336.098 241.984 336.24 241.558C336.322 241.319 336.683 241.042 336.921 241.034C337.168 241.029 337.422 241.33 337.833 241.603V241.597Z" fill="#EBE9E5"/>
<path d="M243.657 171.076C243.237 171.388 243.008 171.66 242.725 171.742C242.349 171.851 241.956 171.317 242.049 170.891C242.137 170.483 242.457 170.324 242.802 170.433C243.069 170.515 243.276 170.777 243.657 171.076Z" fill="#EBE9E5"/>
<path d="M114.13 18.0812C113.754 18.3858 113.526 18.7296 113.29 18.7296C113.035 18.7296 112.67 18.4678 112.548 18.2237C112.37 17.8532 112.837 17.2957 113.242 17.4008C113.515 17.4702 113.732 17.7659 114.13 18.0759V18.0812Z" fill="#EBE9E5"/>
<path d="M89.8355 19.0342C89.4379 18.6691 89.1259 18.5016 89.0011 18.2451C88.8264 17.8799 89.2899 17.2903 89.6715 17.4061C89.9336 17.4827 90.2438 17.8034 90.2937 18.0599C90.3419 18.2879 90.0584 18.5818 89.8302 19.0289L89.8355 19.0342Z" fill="#EBE9E5"/>
<path d="M254.594 158.315C254.845 158.762 255.139 159.051 255.107 159.295C255.074 159.541 254.753 159.868 254.496 159.932C254.054 160.048 253.624 159.524 253.809 159.138C253.934 158.876 254.223 158.691 254.599 158.31L254.594 158.315Z" fill="#EBE9E5"/>
<path d="M230.883 160.216C230.578 159.802 230.3 159.573 230.228 159.295C230.13 158.913 230.742 158.429 231.073 158.62C231.314 158.762 231.558 159.12 231.548 159.377C231.542 159.612 231.198 159.834 230.883 160.21V160.216Z" fill="#EBE9E5"/>
<path d="M325.27 252.44C325.5 252.909 325.773 253.215 325.728 253.454C325.685 253.699 325.347 254.009 325.09 254.07C324.655 254.163 324.252 253.612 324.448 253.236C324.583 252.98 324.878 252.811 325.27 252.445V252.44Z" fill="#EBE9E5"/>
<path d="M349.559 253.389C349.183 253.694 348.955 254.038 348.721 254.038C348.464 254.038 348.099 253.776 347.979 253.53C347.799 253.16 348.268 252.604 348.671 252.707C348.944 252.779 349.161 253.072 349.561 253.384L349.559 253.389Z" fill="#EBE9E5"/>
<path d="M242.632 148.452C242.365 148.053 242.055 147.796 242.06 147.547C242.071 147.317 242.381 146.974 242.627 146.899C243.074 146.767 243.533 147.235 243.369 147.617C243.254 147.884 242.966 148.087 242.632 148.452Z" fill="#EBE9E5"/>
<path d="M219.281 148.445C218.937 148.103 218.653 147.928 218.534 147.677C218.37 147.328 218.55 147.018 218.931 146.904C219.374 146.767 219.919 147.095 219.843 147.481C219.787 147.764 219.543 148.016 219.276 148.445H219.281Z" fill="#EBE9E5"/>
<path d="M102.398 6.22321C102.015 6.58303 101.824 6.8716 101.564 6.9856C101.182 7.15482 100.679 6.71484 100.801 6.28377C100.87 6.03795 101.204 5.72801 101.448 5.70663C101.694 5.67813 101.972 5.97205 102.404 6.22321H102.398Z" fill="#EBE9E5"/>
<path d="M77.863 5.43942C78.1946 5.80993 78.5013 6.00587 78.5762 6.27307C78.6921 6.67029 78.1839 7.14946 77.8024 6.99805C77.5581 6.90008 77.28 6.5456 77.2622 6.29444C77.2515 6.06465 77.5795 5.82062 77.863 5.44477V5.43942Z" fill="#EBE9E5"/>
<path d="M230.904 134.79C231.205 135.176 231.483 135.395 231.558 135.673C231.656 136.015 231.489 136.337 231.068 136.419C230.615 136.501 230.109 136.12 230.228 135.721C230.316 135.433 230.594 135.205 230.904 134.795V134.79Z" fill="#EBE9E5"/>
<path d="M302.47 206.274C302.109 206.606 301.897 206.96 301.667 206.971C301.412 206.982 301.041 206.748 300.899 206.508C300.697 206.171 301.156 205.555 301.548 205.642C301.826 205.703 302.056 205.98 302.47 206.274Z" fill="#EBE9E5"/>
<path d="M335.946 265.24C336.317 264.92 336.529 264.581 336.757 264.576C337.014 264.565 337.38 264.79 337.528 265.018C337.724 265.328 337.25 265.955 336.879 265.873C336.601 265.814 336.371 265.541 335.946 265.248V265.24Z" fill="#EBE9E5"/>
<path d="M361.375 265.126C360.977 265.465 360.77 265.743 360.497 265.846C360.11 265.989 359.642 265.513 359.782 265.089C359.864 264.848 360.225 264.571 360.464 264.565C360.71 264.56 360.966 264.859 361.375 265.132V265.126Z" fill="#EBE9E5"/>
<path d="M207.553 136.692C207.155 136.327 206.845 136.158 206.718 135.901C206.544 135.536 207.007 134.948 207.389 135.062C207.651 135.139 207.963 135.459 208.011 135.716C208.061 135.946 207.777 136.239 207.547 136.687L207.553 136.692Z" fill="#EBE9E5"/>
<path d="M219.09 124.921C218.823 124.524 218.513 124.267 218.518 124.016C218.529 123.788 218.839 123.444 219.085 123.368C219.531 123.238 219.989 123.706 219.827 124.088C219.711 124.355 219.422 124.556 219.09 124.921Z" fill="#EBE9E5"/>
<path d="M194.691 124.054C195.061 123.733 195.275 123.395 195.504 123.389C195.76 123.379 196.126 123.603 196.272 123.831C196.468 124.141 195.994 124.768 195.623 124.686C195.345 124.627 195.117 124.355 194.691 124.061V124.054Z" fill="#EBE9E5"/>
<path d="M348.623 275.976C348.923 276.363 349.201 276.582 349.276 276.86C349.375 277.202 349.206 277.524 348.785 277.606C348.332 277.688 347.826 277.307 347.945 276.908C348.033 276.619 348.311 276.391 348.623 275.976Z" fill="#EBE9E5"/>
<path d="M207.51 111.253C207.759 111.7 208.055 111.989 208.022 112.235C207.989 112.481 207.667 112.807 207.412 112.873C206.97 112.987 206.538 112.465 206.724 112.076C206.85 111.814 207.139 111.629 207.515 111.248L207.51 111.253Z" fill="#EBE9E5"/>
<path d="M184.011 113.161C183.613 112.796 183.301 112.627 183.176 112.372C183.002 112.007 183.465 111.417 183.847 111.531C184.109 111.608 184.419 111.93 184.469 112.185C184.517 112.415 184.234 112.709 184.005 113.156L184.011 113.161Z" fill="#EBE9E5"/>
<path d="M290.741 218.138C290.322 218.448 290.092 218.72 289.809 218.802C289.433 218.911 289.04 218.376 289.133 217.953C289.221 217.543 289.543 217.386 289.88 217.495C290.148 217.577 290.354 217.837 290.736 218.138H290.741Z" fill="#EBE9E5"/>
<path d="M314.285 218.207C313.843 218.485 313.592 218.742 313.308 218.802C312.921 218.884 312.561 218.328 312.693 217.908C312.813 217.521 313.133 217.368 313.478 217.511C313.734 217.614 313.92 217.887 314.285 218.213V218.207Z" fill="#EBE9E5"/>
<path d="M290.741 194.607C290.322 194.917 290.092 195.189 289.809 195.271C289.433 195.38 289.04 194.847 289.133 194.422C289.221 194.014 289.543 193.855 289.886 193.964C290.153 194.046 290.36 194.308 290.741 194.607Z" fill="#EBE9E5"/>
<path d="M196.659 100.339C196.126 100.726 195.853 101.036 195.525 101.107C195.384 101.139 194.987 100.683 194.981 100.443C194.981 100.236 195.34 99.8816 195.586 99.8424C195.826 99.805 196.121 100.072 196.659 100.339Z" fill="#EBE9E5"/>
<path d="M267.199 194.472C266.818 194.83 266.627 195.12 266.365 195.234C265.983 195.403 265.482 194.961 265.602 194.53C265.673 194.286 266.005 193.975 266.251 193.953C266.497 193.927 266.775 194.22 267.205 194.472H267.199Z" fill="#EBE9E5"/>
<path d="M173.03 100.411C172.632 100.747 172.425 101.025 172.152 101.128C171.765 101.271 171.296 100.797 171.437 100.371C171.519 100.133 171.88 99.8549 172.12 99.8477C172.364 99.8424 172.621 100.143 173.03 100.416V100.411Z" fill="#EBE9E5"/>
<path d="M278.933 206.486C278.507 206.732 278.223 207.031 277.995 206.989C277.733 206.944 277.412 206.634 277.325 206.372C277.198 205.996 277.788 205.505 278.147 205.674C278.403 205.795 278.578 206.105 278.933 206.486Z" fill="#EBE9E5"/>
<path d="M-0.572327 207.587V204.716C0.137286 205.941 0.0392238 206.764 -0.572327 207.587Z" fill="#EBE9E5"/>
<path d="M243.096 100.257C243.003 100.509 242.948 100.655 242.894 100.803C242.687 100.721 242.479 100.639 242.277 100.557C242.349 100.411 242.404 100.159 242.502 100.143C242.682 100.11 242.889 100.213 243.101 100.263L243.096 100.257Z" fill="#EBE9E5"/>
<path d="M219.57 77.0757C219.363 77.147 219.172 77.2503 218.976 77.2557C218.905 77.2557 218.741 76.9279 218.762 76.9012C218.926 76.748 219.128 76.634 219.318 76.5093C219.384 76.6625 219.456 76.8139 219.564 77.0704L219.57 77.0757Z" fill="#EBE9E5"/>
<path d="M125.384 6.13056C125.291 6.38172 125.236 6.52957 125.182 6.67563C124.974 6.5937 124.767 6.51176 124.565 6.42982C124.637 6.28375 124.69 6.03259 124.79 6.01656C124.968 5.98449 125.177 6.08781 125.389 6.1359L125.384 6.13056Z" fill="#EBE9E5"/>
<path d="M195.143 77.0437C195.275 76.8192 195.357 76.6785 195.443 76.5414C195.618 76.6554 195.826 76.748 195.956 76.9012C195.994 76.951 195.808 77.2931 195.766 77.2877C195.553 77.2503 195.357 77.1363 195.143 77.049V77.0437Z" fill="#EBE9E5"/>
<path d="M359.946 241.765C360.077 241.542 360.159 241.4 360.246 241.264C360.421 241.378 360.627 241.471 360.759 241.624C360.797 241.672 360.611 242.016 360.567 242.011C360.355 241.973 360.159 241.857 359.946 241.77V241.765Z" fill="#EBE9E5"/>
<path d="M266.659 147.399C266.534 147.634 266.458 147.77 266.381 147.907C266.196 147.786 265.994 147.677 265.843 147.524C265.814 147.497 266.01 147.143 266.081 147.148C266.278 147.171 266.458 147.301 266.654 147.399H266.659Z" fill="#EBE9E5"/>
<path d="M196.022 53.6001C195.798 53.6376 195.586 53.7088 195.384 53.6821C195.313 53.6714 195.204 53.3223 195.225 53.3062C195.405 53.1851 195.612 53.1156 195.814 53.0284C195.869 53.1851 195.924 53.3383 196.017 53.5948L196.022 53.6001Z" fill="#EBE9E5"/>
<path d="M289.896 147.018C290.007 147.241 290.174 147.47 290.132 147.531C290.007 147.682 289.798 147.78 289.608 147.857C289.581 147.868 289.358 147.558 289.39 147.508C289.515 147.323 289.711 147.187 289.896 147.018Z" fill="#EBE9E5"/>
<path d="M289.319 171.169C289.451 170.946 289.531 170.804 289.618 170.668C289.793 170.782 290 170.875 290.132 171.028C290.169 171.076 289.984 171.42 289.941 171.415C289.729 171.377 289.531 171.261 289.319 171.174V171.169Z" fill="#EBE9E5"/>
<path d="M313.44 170.549C313.549 170.772 313.718 171.001 313.674 171.06C313.549 171.213 313.342 171.311 313.15 171.388C313.123 171.399 312.9 171.087 312.932 171.039C313.057 170.853 313.255 170.716 313.44 170.549Z" fill="#EBE9E5"/>
<path d="M172.468 53.1976C172.375 53.4469 172.322 53.5948 172.266 53.7409C172.06 53.6607 171.853 53.5788 171.651 53.4968C171.721 53.349 171.776 53.0978 171.874 53.0818C172.054 53.0497 172.261 53.153 172.473 53.2029L172.468 53.1976Z" fill="#EBE9E5"/>
<path d="M148.059 6.45298C148.189 6.22853 148.271 6.08781 148.359 5.95065C148.534 6.06466 148.74 6.15728 148.871 6.31047C148.91 6.36035 148.724 6.70236 148.68 6.69701C148.468 6.65961 148.271 6.5456 148.059 6.45832V6.45298Z" fill="#EBE9E5"/>
<path d="M243.106 124.196C242.884 124.234 242.67 124.305 242.468 124.278C242.399 124.267 242.288 123.918 242.311 123.902C242.49 123.781 242.698 123.712 242.9 123.624C242.953 123.781 243.008 123.934 243.101 124.191L243.106 124.196Z" fill="#EBE9E5"/>
<path d="M219.564 100.665C219.34 100.705 219.128 100.776 218.926 100.747C218.855 100.737 218.746 100.387 218.767 100.371C218.947 100.252 219.154 100.181 219.358 100.094C219.411 100.252 219.466 100.404 219.559 100.66L219.564 100.665Z" fill="#EBE9E5"/>
<path d="M172.484 29.7487C172.359 29.982 172.282 30.1192 172.206 30.2546C172.022 30.1352 171.819 30.0266 171.667 29.8734C171.639 29.8467 171.842 29.4922 171.906 29.4975C172.102 29.5189 172.282 29.6561 172.479 29.7487H172.484Z" fill="#EBE9E5"/>
<path d="M266.354 123.487C266.463 123.712 266.632 123.94 266.59 124C266.463 124.153 266.256 124.251 266.065 124.326C266.039 124.339 265.814 124.027 265.848 123.979C265.973 123.794 266.169 123.656 266.354 123.487Z" fill="#EBE9E5"/>
<path d="M337.287 218.262C337.08 218.334 336.889 218.437 336.693 218.442C336.622 218.442 336.458 218.115 336.479 218.088C336.643 217.935 336.845 217.821 337.036 217.696C337.102 217.849 337.173 218.001 337.282 218.257L337.287 218.262Z" fill="#EBE9E5"/>
<path d="M360.529 217.609C360.638 217.837 360.808 218.061 360.765 218.12C360.638 218.273 360.431 218.371 360.241 218.448C360.214 218.458 359.989 218.148 360.023 218.099C360.148 217.913 360.344 217.778 360.529 217.609Z" fill="#EBE9E5"/>
<path d="M337.271 194.384C337.178 194.634 337.123 194.782 337.069 194.929C336.863 194.847 336.654 194.765 336.453 194.684C336.524 194.536 336.579 194.286 336.677 194.268C336.855 194.236 337.064 194.34 337.276 194.39L337.271 194.384Z" fill="#EBE9E5"/>
<path d="M313.44 194.078C313.549 194.302 313.718 194.53 313.674 194.591C313.549 194.742 313.342 194.842 313.15 194.917C313.123 194.929 312.9 194.618 312.932 194.57C313.057 194.384 313.255 194.247 313.44 194.078Z" fill="#EBE9E5"/>
<path d="M148.926 29.6667C148.833 29.9179 148.778 30.064 148.724 30.2118C148.517 30.1299 148.311 30.0479 148.107 29.966C148.179 29.8199 148.234 29.5688 148.332 29.5527C148.512 29.5189 148.719 29.6222 148.931 29.6721L148.926 29.6667Z" fill="#EBE9E5"/>
<path d="M160.125 42.0645C160.069 41.8454 159.989 41.6441 159.989 41.4428C159.989 41.393 160.337 41.2683 160.371 41.311C160.49 41.4535 160.577 41.6441 160.593 41.8294C160.593 41.8846 160.331 41.9665 160.119 42.0699L160.125 42.0645Z" fill="#EBE9E5"/>
<path d="M230.763 111.827C231.002 111.925 231.15 111.989 231.291 112.05C231.193 112.229 231.107 112.425 230.975 112.584C230.954 112.611 230.626 112.481 230.626 112.42C230.62 112.229 230.702 112.039 230.758 111.832L230.763 111.827Z" fill="#EBE9E5"/>
<path d="M254.3 112.661C254.245 112.441 254.164 112.24 254.164 112.039C254.164 111.989 254.512 111.864 254.546 111.907C254.665 112.05 254.753 112.24 254.769 112.425C254.769 112.481 254.507 112.563 254.294 112.666L254.3 112.661Z" fill="#EBE9E5"/>
<path d="M348.48 205.947C348.721 206.045 348.867 206.111 349.01 206.171C348.912 206.351 348.824 206.547 348.692 206.704C348.671 206.732 348.345 206.6 348.345 206.542C348.338 206.351 348.42 206.16 348.475 205.952L348.48 205.947Z" fill="#EBE9E5"/>
<path d="M349.079 229.723C348.971 229.925 348.894 230.181 348.83 230.174C348.65 230.163 348.454 230.065 348.306 229.957C348.273 229.935 348.404 229.581 348.454 229.581C348.655 229.581 348.862 229.668 349.079 229.723Z" fill="#EBE9E5"/>
<path d="M324.938 182.418C325.177 182.516 325.325 182.58 325.466 182.64C325.368 182.82 325.281 183.016 325.15 183.175C325.129 183.201 324.801 183.071 324.801 183.011C324.796 182.82 324.878 182.63 324.933 182.423L324.938 182.418Z" fill="#EBE9E5"/>
<path d="M160.877 18.0545C160.556 18.2611 160.387 18.3965 160.191 18.4785C160.162 18.4891 159.966 18.2611 159.961 18.1365C159.955 18.0046 160.103 17.7481 160.146 17.7606C160.347 17.798 160.533 17.9013 160.882 18.0545H160.877Z" fill="#EBE9E5"/>
<path d="M137.192 17.9458C137.084 18.1471 137.007 18.4036 136.943 18.3965C136.763 18.3858 136.566 18.2879 136.418 18.1792C136.386 18.1578 136.517 17.8033 136.566 17.8033C136.768 17.8033 136.969 17.8906 137.192 17.9458Z" fill="#EBE9E5"/>
<path d="M207.809 88.7806C207.613 88.8946 207.417 89.005 207.226 89.1083C207.155 88.9658 206.991 88.7485 207.036 88.6933C207.155 88.5472 207.351 88.4493 207.537 88.378C207.569 88.3673 207.69 88.5953 207.809 88.7752V88.7806Z" fill="#EBE9E5"/>
<path d="M277.842 159.72C277.788 159.503 277.706 159.3 277.706 159.099C277.706 159.051 278.056 158.924 278.088 158.969C278.207 159.109 278.295 159.3 278.311 159.485C278.311 159.54 278.049 159.622 277.836 159.726L277.842 159.72Z" fill="#EBE9E5"/>
<path d="M301.45 158.887C301.69 159.006 301.831 159.077 301.974 159.149C301.837 159.318 301.717 159.508 301.553 159.649C301.521 159.676 301.222 159.491 301.227 159.437C301.254 159.252 301.368 159.077 301.45 158.892V158.887Z" fill="#EBE9E5"/>
<path d="M325.537 206.192C325.429 206.394 325.352 206.65 325.286 206.645C325.108 206.634 324.91 206.536 324.764 206.426C324.731 206.404 324.862 206.05 324.91 206.05C325.113 206.05 325.32 206.137 325.537 206.192Z" fill="#EBE9E5"/>
<path d="M231.362 88.5365C231.253 88.7378 231.177 88.9926 231.113 88.9872C230.933 88.9765 230.736 88.8786 230.588 88.7699C230.556 88.7485 230.686 88.394 230.736 88.394C230.938 88.394 231.139 88.4813 231.362 88.5365Z" fill="#EBE9E5"/>
<path d="M301.995 182.662C301.887 182.863 301.81 183.119 301.744 183.114C301.564 183.103 301.368 183.005 301.222 182.897C301.188 182.875 301.32 182.521 301.368 182.521C301.569 182.521 301.778 182.608 301.995 182.662Z" fill="#EBE9E5"/>
<path d="M255.052 135.71C254.731 135.917 254.562 136.054 254.366 136.136C254.337 136.147 254.141 135.917 254.136 135.792C254.13 135.662 254.278 135.406 254.321 135.417C254.523 135.454 254.708 135.557 255.058 135.71H255.052Z" fill="#EBE9E5"/>
<path d="M184.278 41.4749C184.169 41.6762 184.093 41.9327 184.027 41.9274C183.847 41.9167 183.651 41.8187 183.504 41.71C183.471 41.6887 183.602 41.3342 183.651 41.3342C183.852 41.3342 184.054 41.4215 184.278 41.4749Z" fill="#EBE9E5"/>
<path d="M278.443 135.842C278.247 135.956 278.049 136.065 277.858 136.168C277.788 136.027 277.624 135.808 277.667 135.755C277.788 135.607 277.984 135.509 278.17 135.438C278.202 135.427 278.321 135.657 278.443 135.835V135.842Z" fill="#EBE9E5"/>
<path d="M207.28 64.7599C207.521 64.881 207.661 64.9505 207.804 65.0218C207.667 65.191 207.547 65.3816 207.383 65.5223C207.351 65.5508 207.052 65.3655 207.057 65.3103C207.084 65.1251 207.198 64.9505 207.28 64.7652V64.7599Z" fill="#EBE9E5"/>
<path d="M184.267 65.2515C184.071 65.3655 183.875 65.4742 183.683 65.5775C183.613 65.4368 183.449 65.2177 183.492 65.1643C183.613 65.0164 183.809 64.9184 183.995 64.8472C184.027 64.8365 184.146 65.0663 184.267 65.2444V65.2515Z" fill="#EBE9E5"/>
</g>
<defs>
<clipPath id="clip0_32_160">
<rect width="368" height="362" fill="white"/>
</clipPath>
</defs>
</svg>
