<svg width="52" height="61" viewBox="0 0 52 61" fill="none" xmlns="http://www.w3.org/2000/svg">
<g clip-path="url(#clip0_9_21)">
<path d="M25.48 38.6989V46.1344L11.9756 35.2304L0 24.3264L3.80133 25.5793C4.49259 25.8072 5.15763 26.1087 5.78505 26.4789L14.5911 31.6741C15.9 32.4463 17.2991 33.0522 18.7563 33.4781L22.7258 34.6382C22.8629 34.6783 22.9958 34.7318 23.1226 34.798C24.571 35.5538 25.48 37.058 25.48 38.6989Z" fill="url(#paint0_linear_9_21)"/>
<path d="M10.055 23.7726L0 23.5286L5.08192 25.0138C5.93697 25.2637 6.75577 25.6251 7.51742 26.0888L14.6698 30.4437C15.2504 30.7972 15.8645 31.0914 16.5032 31.3222L22.1676 33.3688L11.6436 24.3814C11.199 24.0016 10.6382 23.7868 10.055 23.7726Z" fill="url(#paint1_linear_9_21)"/>
<path d="M26.8897 34.524L30.68 31.3714L28.6 37.8302L26.52 46.1344V35.3139C26.52 35.0084 26.6556 34.7188 26.8897 34.524Z" fill="url(#paint2_linear_9_21)"/>
<path d="M51.9999 23.5286H40.5139C39.8813 23.5286 39.2714 23.765 38.8026 24.192L33.2175 29.2788C32.5588 29.8788 32.0675 30.6415 31.7924 31.4912L29.7727 37.7297L27.3331 46.1344L40.0731 33.962L51.9999 23.5286Z" fill="url(#paint3_linear_9_21)"/>
<path d="M25.1349 11.609L21.84 14.5324L22.8194 12.2286C23.3266 11.0356 23.6997 9.78938 23.9317 8.51309L25.48 0V10.8403C25.48 11.1345 25.3543 11.4144 25.1349 11.609Z" fill="url(#paint4_linear_9_21)"/>
<path d="M0 22.6059H11.4861C12.1186 22.6059 12.7286 22.3694 13.1973 21.9424L18.7824 16.8556C19.4411 16.2557 19.9324 15.493 20.2075 14.6432L22.2272 8.40477L24.6668 0L11.9268 12.1724L0 22.6059Z" fill="url(#paint5_linear_9_21)"/>
<path d="M38.6806 22.1549L29.1469 12.5588L28.8842 12.3076L30.6961 12.6325C32.2862 12.9176 33.8445 13.3594 35.3485 13.9515C36.8146 14.5288 38.2221 15.2461 39.5518 16.0938L44.5438 19.276C46.182 20.3204 47.9334 21.1732 49.7639 21.8181L52 22.6059H39.7627C39.3568 22.6059 38.9675 22.4436 38.6806 22.1549Z" fill="url(#paint6_linear_9_21)"/>
<path d="M26.7619 9.94679L26.52 0L39.9167 11.0518L52 21.8524L47.8846 19.8848C47.1278 19.5229 46.4095 19.0847 45.7407 18.5769L45.4558 18.3606C40.4392 14.5513 34.5677 12.0412 28.3588 11.0518L27.6216 10.9343C27.1356 10.8568 26.774 10.4414 26.7619 9.94679Z" fill="url(#paint7_linear_9_21)"/>
<path d="M25.2676 29.4953C24.558 29.4953 23.9034 29.4276 23.3039 29.2923C22.7043 29.1693 22.1537 28.9909 21.6521 28.7571L21.3401 25.3247H21.9274C22.2333 26.0506 22.5453 26.6534 22.8634 27.1332C23.1937 27.613 23.5853 27.9698 24.038 28.2035C24.4907 28.425 25.0535 28.5357 25.7264 28.5357C26.485 28.5357 27.0907 28.345 27.5434 27.9636C27.9961 27.5822 28.2224 27.0409 28.2224 26.3397C28.2224 25.8476 28.1123 25.4478 27.8921 25.1402C27.6719 24.8326 27.3293 24.5681 26.8643 24.3467C26.4116 24.1129 25.8243 23.873 25.1024 23.627C24.3683 23.3686 23.7443 23.0918 23.2304 22.7966C22.7166 22.5013 22.325 22.1384 22.0559 21.7078C21.7989 21.2772 21.6704 20.742 21.6704 20.1023C21.6704 19.3642 21.854 18.7306 22.221 18.2016C22.6003 17.6726 23.1142 17.2727 23.7627 17.0021C24.4234 16.7191 25.1636 16.5776 25.9834 16.5776C26.6319 16.5776 27.2559 16.633 27.8554 16.7437C28.4549 16.8544 28.9871 17.0328 29.4521 17.2789L29.5989 20.2684H29.0483C28.7424 19.4441 28.4182 18.8413 28.0756 18.4599C27.733 18.0662 27.366 17.814 26.9744 17.7033C26.5829 17.5926 26.1608 17.5372 25.7081 17.5372C24.925 17.5372 24.3316 17.7218 23.9279 18.0908C23.5241 18.4476 23.3222 18.8905 23.3222 19.4195C23.3222 19.8747 23.414 20.2499 23.5975 20.5452C23.781 20.8405 24.093 21.0988 24.5335 21.3203C24.974 21.5417 25.5796 21.7755 26.3504 22.0215C27.0723 22.2552 27.7024 22.5321 28.2408 22.8519C28.7914 23.1595 29.2135 23.5532 29.5071 24.033C29.813 24.5005 29.966 25.091 29.966 25.8045C29.966 26.555 29.758 27.207 29.342 27.7606C28.926 28.3142 28.3631 28.7448 27.6535 29.0524C26.9439 29.3477 26.1486 29.4953 25.2676 29.4953Z" fill="black"/>
<path d="M5.63512 58.2771C5.63512 58.0085 5.57339 57.7824 5.44991 57.5979C5.33041 57.4138 5.17508 57.2575 4.98393 57.1293C4.79275 57.0053 4.58165 56.9012 4.35065 56.8172C4.12363 56.7331 3.90457 56.6567 3.69348 56.589C3.3868 56.4886 3.07415 56.3686 2.75552 56.2282C2.44088 56.0841 2.15411 55.9119 1.89523 55.712C1.63236 55.5074 1.41729 55.267 1.25001 54.9907C1.08671 54.7103 1.00506 54.3823 1.00506 54.0055C1.00506 53.6293 1.08671 53.293 1.25001 52.9967C1.41729 52.7004 1.63435 52.4498 1.9012 52.2457C2.16805 52.0412 2.47075 51.8874 2.80929 51.7834C3.14783 51.6752 3.48836 51.6209 3.83089 51.6209C4.20926 51.6209 4.57369 51.685 4.92418 51.8131C5.27469 51.9372 5.58532 52.1135 5.85617 52.3416C6.12698 52.5702 6.34406 52.8465 6.50735 53.171C6.67064 53.495 6.75628 53.8574 6.76424 54.2582H5.62916C5.5973 54.0055 5.53556 53.7774 5.44395 53.5734C5.35234 53.3648 5.23085 53.1869 5.07951 53.0387C4.92816 52.8906 4.74694 52.7763 4.53585 52.6963C4.32875 52.6123 4.09376 52.5702 3.83089 52.5702C3.6198 52.5702 3.41269 52.6 3.20957 52.6599C3.01042 52.7204 2.83319 52.8101 2.67786 52.9306C2.51854 53.0505 2.39109 53.1987 2.29551 53.375C2.2039 53.5513 2.1581 53.7554 2.1581 53.9876C2.16208 54.2398 2.22581 54.454 2.34927 54.6304C2.47274 54.8026 2.63006 54.9487 2.82124 55.0692C3.00844 55.1891 3.21156 55.2891 3.43061 55.3696C3.65365 55.4495 3.86275 55.5198 4.05791 55.5797C4.38052 55.6797 4.70313 55.8017 5.02574 55.9462C5.34836 56.0862 5.64308 56.2666 5.90996 56.4865C6.17281 56.6911 6.38387 56.9412 6.54319 57.2375C6.70653 57.5338 6.78815 57.8762 6.78815 58.2648C6.78815 58.6574 6.70051 58.9998 6.52529 59.292C6.354 59.5842 6.13096 59.8267 5.85617 60.0189C5.58134 60.2152 5.27066 60.3634 4.92418 60.4633C4.57767 60.5597 4.23116 60.6074 3.88466 60.6074C3.47045 60.6074 3.0622 60.5376 2.65993 60.3972C2.26165 60.2572 1.91514 60.0548 1.62041 59.7908C1.35754 59.5622 1.14845 59.2961 0.993114 58.9916C0.841769 58.683 0.760119 58.3406 0.748169 57.9644H1.87731C1.91315 58.2366 1.98683 58.479 2.09835 58.6912C2.20987 58.8994 2.35326 59.0757 2.5285 59.2197C2.70375 59.3679 2.90488 59.4801 3.1319 59.5565C3.36291 59.6283 3.61383 59.6647 3.88466 59.6647C4.09973 59.6647 4.31082 59.6385 4.51793 59.5862C4.72902 59.5304 4.91621 59.4443 5.07951 59.3279C5.24283 59.2161 5.37625 59.0736 5.47979 58.9014C5.58333 58.7251 5.63512 58.517 5.63512 58.2771Z" fill="black"/>
<path d="M18.0908 52.6902H15.4023V60.4874H14.327V52.6902H11.6385V51.7413H18.0908V52.6902Z" fill="black"/>
<path d="M27.5174 58.2227H24.6139L23.9149 60.4874H22.8097L25.6176 51.7413H26.5436L29.3037 60.4874H28.2044L27.5174 58.2227ZM24.9126 57.2554H27.2246L26.0776 53.4591L24.9126 57.2554Z" fill="black"/>
<path d="M34.5066 51.7413H39.7639V52.7081H37.6789V59.5263H39.7639V60.4874H34.5066V59.5263H36.5438V52.7081H34.5066V51.7413Z" fill="black"/>
<path d="M51.0967 60.4874H49.9733L46.5978 53.9517L46.58 60.4874H45.4628V51.7413H46.5859L49.9614 58.2647L49.9793 51.7413H51.0967V60.4874Z" fill="black"/>
</g>
<defs>
<linearGradient id="paint0_linear_9_21" x1="-2.8028" y1="23.3001" x2="30.9688" y2="45.1514" gradientUnits="userSpaceOnUse">
<stop stop-color="#DCBC92"/>
<stop offset="0.565" stop-color="#B98A58"/>
<stop offset="0.95" stop-color="#DCBC92"/>
</linearGradient>
<linearGradient id="paint1_linear_9_21" x1="-2.43844" y1="23.0655" x2="13.8666" y2="43.4068" gradientUnits="userSpaceOnUse">
<stop stop-color="#DCBC92"/>
<stop offset="0.565" stop-color="#B98A58"/>
<stop offset="0.95" stop-color="#DCBC92"/>
</linearGradient>
<linearGradient id="paint2_linear_9_21" x1="30.5473" y1="31.75" x2="25.1978" y2="32.5789" gradientUnits="userSpaceOnUse">
<stop stop-color="#58595A"/>
<stop offset="0.452323" stop-color="#0A0A0B"/>
<stop offset="1" stop-color="#5F5F5F"/>
</linearGradient>
<linearGradient id="paint3_linear_9_21" x1="51.2128" y1="24.1082" x2="27.3319" y2="38.4395" gradientUnits="userSpaceOnUse">
<stop stop-color="#58595A"/>
<stop offset="0.452323" stop-color="#0A0A0B"/>
<stop offset="1" stop-color="#5F5F5F"/>
</linearGradient>
<linearGradient id="paint4_linear_9_21" x1="21.9561" y1="14.1597" x2="26.66" y2="13.5117" gradientUnits="userSpaceOnUse">
<stop stop-color="#58595A"/>
<stop offset="0.452323" stop-color="#0A0A0B"/>
<stop offset="1" stop-color="#5F5F5F"/>
</linearGradient>
<linearGradient id="paint5_linear_9_21" x1="0.787239" y1="22.0262" x2="24.6681" y2="7.69499" gradientUnits="userSpaceOnUse">
<stop stop-color="#58595A"/>
<stop offset="0.452323" stop-color="#0A0A0B"/>
<stop offset="1" stop-color="#5F5F5F"/>
</linearGradient>
<linearGradient id="paint6_linear_9_21" x1="26.3414" y1="11.823" x2="43.4187" y2="33.051" gradientUnits="userSpaceOnUse">
<stop stop-color="#DCBC92"/>
<stop offset="0.565" stop-color="#B98A58"/>
<stop offset="0.95" stop-color="#DCBC92"/>
</linearGradient>
<linearGradient id="paint7_linear_9_21" x1="23.7172" y1="-1.02835" x2="57.529" y2="20.8048" gradientUnits="userSpaceOnUse">
<stop stop-color="#DCBC92"/>
<stop offset="0.565" stop-color="#B98A58"/>
<stop offset="0.95" stop-color="#DCBC92"/>
</linearGradient>
<clipPath id="clip0_9_21">
<rect width="52" height="61" fill="white"/>
</clipPath>
</defs>
</svg>
