<?xml version="1.0" standalone="no"?>
<!DOCTYPE svg PUBLIC "-//W3C//DTD SVG 20010904//EN"
 "http://www.w3.org/TR/2001/REC-SVG-20010904/DTD/svg10.dtd">
<svg version="1.0" xmlns="http://www.w3.org/2000/svg"
 width="1040.000000pt" height="1040.000000pt" viewBox="0 0 1040.000000 1040.000000"
 preserveAspectRatio="xMidYMid meet">
<metadata>
Created by potrace 1.14, written by Peter Selinger 2001-2017
</metadata>
<g transform="translate(0.000000,1040.000000) scale(0.100000,-0.100000)"
fill="#000000" stroke="none">
<path d="M4862 9713 c-33 -32 -110 -105 -171 -163 -62 -58 -140 -132 -174
-165 -53 -51 -236 -225 -420 -399 -92 -86 -349 -330 -397 -376 -26 -25 -116
-110 -200 -190 -84 -80 -172 -163 -195 -185 -23 -22 -106 -101 -185 -175 -78
-74 -173 -165 -211 -201 -38 -36 -113 -107 -166 -157 -54 -50 -132 -124 -174
-164 -126 -121 -212 -201 -265 -245 -28 -24 -62 -53 -76 -65 -13 -13 -53 -48
-88 -78 -35 -30 -77 -66 -92 -80 -44 -39 -57 -51 -138 -119 -41 -35 -82 -71
-91 -80 -8 -9 -30 -27 -48 -41 -17 -14 -52 -44 -76 -67 -25 -24 -47 -43 -50
-43 -2 0 -17 -12 -33 -27 -16 -16 -38 -35 -48 -44 -11 -8 -57 -49 -104 -90
-47 -41 -112 -96 -144 -124 -32 -27 -71 -61 -86 -75 -35 -32 -69 -62 -150
-130 -36 -30 -67 -58 -70 -61 -3 -3 -39 -34 -80 -69 -41 -35 -77 -67 -80 -70
-3 -3 -36 -32 -75 -65 -38 -33 -75 -64 -81 -70 -6 -5 -40 -35 -75 -65 -35 -30
-77 -67 -92 -82 -16 -16 -31 -28 -33 -28 -3 0 -18 -14 -34 -30 -16 -17 -32
-30 -35 -30 -3 0 -13 -8 -24 -17 -34 -33 -85 -78 -251 -221 -14 -12 -48 -42
-75 -67 -28 -25 -53 -45 -57 -45 -5 0 -8 -5 -8 -10 0 -7 389 -10 1167 -10
1256 0 1227 -1 1340 52 27 12 50 25 53 28 3 3 14 13 26 21 22 15 115 95 176
151 50 47 196 179 221 201 12 10 45 39 73 65 28 26 88 81 134 122 46 41 94 84
106 96 13 12 53 48 89 80 36 32 83 75 104 94 21 19 73 67 117 105 81 72 237
226 264 261 35 44 115 182 125 214 1 3 7 19 14 35 13 30 61 171 66 190 1 6 5
17 8 25 5 14 30 89 32 100 1 3 4 12 8 20 3 8 24 74 47 145 23 72 44 137 47
145 3 8 7 20 8 25 4 16 105 327 117 357 5 15 10 30 9 33 0 2 8 29 18 57 10 29
28 85 40 123 13 39 25 77 28 85 4 8 7 20 9 27 2 14 39 138 57 193 6 19 12 40
13 45 1 6 21 73 44 150 23 77 43 145 44 150 11 45 30 110 47 161 11 33 21 69
24 80 2 10 20 73 40 139 20 66 38 129 40 140 2 11 4 20 5 20 2 0 70 228 76
255 3 14 12 45 20 70 9 25 17 52 19 60 2 8 9 35 16 60 7 25 13 50 15 55 1 6 5
18 9 28 11 27 1 21 -63 -40z"/>
<path d="M5306 9678 c1 -51 5 -212 9 -358 3 -146 8 -328 10 -405 11 -382 17
-631 16 -642 -2 -22 -1 -35 3 -143 2 -58 5 -161 6 -230 2 -69 8 -138 13 -155
24 -71 97 -128 177 -138 19 -3 35 -6 35 -7 0 -1 11 -3 25 -5 66 -7 116 -15
226 -36 65 -12 128 -23 139 -25 11 -1 20 -3 20 -4 0 -1 9 -3 20 -5 19 -3 44
-8 98 -20 20 -4 54 -12 126 -29 165 -38 490 -129 596 -166 33 -12 67 -23 75
-25 97 -23 566 -208 780 -307 113 -53 433 -214 488 -247 29 -17 55 -31 57 -31
2 0 68 -38 146 -85 79 -47 144 -85 146 -85 2 0 9 -4 16 -10 7 -5 89 -60 182
-122 94 -61 172 -115 173 -120 2 -4 8 -8 13 -8 7 0 65 -41 119 -83 8 -7 31
-23 50 -37 19 -13 37 -27 40 -30 3 -3 21 -17 40 -30 19 -13 37 -27 40 -31 16
-21 260 -163 400 -232 91 -45 167 -82 170 -83 3 0 48 -21 100 -46 282 -135
353 -168 360 -168 4 0 13 -7 20 -15 7 -9 15 -14 17 -11 6 5 95 -36 120 -55 15
-11 14 -9 -2 11 -11 14 -28 31 -38 38 -10 8 -39 33 -65 57 -26 23 -59 53 -75
66 -15 13 -45 40 -65 59 -21 19 -67 60 -102 90 -35 30 -70 62 -79 70 -9 9 -52
47 -95 85 -44 39 -88 77 -97 85 -9 8 -34 31 -55 50 -22 19 -75 67 -119 105
-44 39 -85 75 -91 80 -6 6 -41 37 -79 70 -37 33 -80 71 -95 85 -25 22 -54 48
-204 181 -62 55 -160 142 -172 153 -10 10 -82 72 -141 123 -23 21 -170 153
-214 193 -15 14 -49 43 -74 65 -26 22 -64 56 -85 75 -20 19 -51 46 -67 60 -44
37 -172 150 -210 187 -18 17 -33 30 -33 29 0 -2 -19 15 -42 37 -24 21 -90 78
-148 125 -58 47 -112 93 -122 101 -9 9 -31 27 -49 41 -18 14 -37 30 -43 35 -6
6 -47 39 -91 75 -44 35 -82 67 -85 70 -3 3 -27 23 -55 45 -75 60 -86 69 -99
80 -12 11 -157 129 -190 155 -11 8 -30 25 -43 37 -12 12 -29 26 -37 30 -13 8
-78 61 -145 119 -20 16 -110 91 -201 164 -91 74 -166 138 -168 142 -2 5 -10 8
-18 8 -8 0 -14 3 -14 8 0 4 -23 25 -51 47 -28 22 -61 49 -73 60 -13 11 -40 34
-60 50 -21 17 -46 37 -56 45 -34 29 -95 78 -160 130 -36 29 -71 60 -77 68 -7
9 -13 13 -13 8 0 -4 -10 3 -23 16 -13 13 -38 34 -56 48 -32 25 -58 46 -96 78
-17 14 -126 103 -199 162 -10 8 -23 20 -30 25 -6 6 -36 30 -66 55 -30 25 -68
57 -85 72 -16 16 -34 28 -39 28 -5 0 -16 8 -25 18 -21 23 -144 122 -152 122
-3 0 -5 -42 -3 -92z"/>
<path d="M5072 9658 c-6 -40 -14 -85 -17 -100 -3 -16 -7 -38 -9 -50 -2 -13 -7
-34 -10 -48 -7 -32 -15 -75 -22 -125 -2 -22 -11 -71 -19 -110 -8 -38 -17 -83
-20 -100 -2 -16 -7 -39 -9 -50 -2 -11 -7 -40 -11 -65 -9 -57 -13 -79 -20 -110
-4 -14 -7 -34 -9 -45 -3 -23 -17 -101 -22 -128 -2 -10 -5 -26 -8 -35 -3 -9 -7
-33 -10 -52 -3 -19 -8 -46 -11 -60 -3 -14 -7 -41 -10 -60 -3 -19 -7 -46 -10
-60 -6 -28 -6 -30 -29 -150 -16 -89 -27 -151 -32 -185 -1 -11 -3 -21 -4 -22
-3 -4 -5 -11 -15 -68 -4 -27 -10 -57 -12 -65 -3 -8 -6 -24 -8 -35 -2 -11 -4
-20 -5 -20 -1 0 -3 -7 -5 -15 -18 -88 -118 -402 -150 -475 -7 -16 -40 -93 -73
-170 -33 -77 -68 -158 -78 -180 -9 -22 -18 -45 -20 -52 -1 -7 -10 -27 -19 -45
-9 -18 -21 -44 -27 -58 l-9 -25 23 21 c13 11 31 27 40 35 10 8 33 28 51 44 18
17 59 53 90 80 32 28 73 64 91 80 40 36 141 125 176 155 188 161 236 211 246
258 9 43 13 2162 4 2162 -4 0 -12 -33 -18 -72z"/>
<path d="M5790 7332 c0 -17 1988 -1990 2020 -2006 20 -9 47 -19 60 -23 33 -9
2500 -13 2500 -5 0 4 -35 18 -78 31 -42 14 -90 30 -107 37 -34 14 -64 25 -82
31 -7 1 -19 5 -25 6 -7 2 -20 7 -28 10 -23 9 -184 68 -195 71 -5 2 -19 7 -30
11 -11 5 -42 17 -70 27 -27 11 -66 26 -85 35 -19 8 -44 19 -55 24 -11 5 -56
25 -100 45 -44 21 -82 38 -85 38 -8 2 -253 129 -275 143 -11 7 -28 16 -37 19
-10 3 -18 11 -18 16 0 5 -4 7 -9 3 -5 -3 -13 0 -16 5 -4 6 -17 16 -28 21 -12
5 -42 23 -67 39 -25 16 -52 33 -60 37 -8 3 -55 33 -104 65 -49 32 -93 58 -97
58 -5 0 -9 5 -9 10 0 6 -5 10 -11 10 -6 0 -30 14 -54 30 -24 17 -46 30 -50 30
-3 0 -11 5 -18 10 -16 13 -208 137 -332 213 -10 7 -41 27 -67 45 -26 17 -50
32 -52 32 -2 0 -60 36 -128 80 -67 44 -130 83 -138 87 -8 3 -30 17 -47 30 -18
13 -33 21 -33 17 0 -4 -8 0 -17 8 -10 8 -25 18 -33 21 -8 4 -37 20 -65 36 -50
30 -298 154 -367 185 -138 59 -247 104 -273 112 -9 2 -155 56 -195 71 -8 3
-19 7 -25 8 -5 1 -31 10 -57 18 -26 9 -57 19 -70 21 -13 3 -45 12 -73 21 -27
9 -59 18 -70 21 -11 2 -58 13 -105 25 -47 11 -94 23 -105 24 -11 2 -54 11 -95
20 -41 8 -88 17 -105 20 -27 4 -206 36 -280 50 -16 3 -36 8 -42 10 -7 2 -13 1
-13 -3z"/>
<path d="M5068 6485 c-2 -2 -25 -6 -53 -9 -27 -4 -58 -9 -67 -12 -22 -6 -58
-15 -83 -19 -35 -6 -164 -62 -222 -97 -62 -38 -183 -147 -183 -165 0 -7 -4
-13 -9 -13 -8 0 -81 -130 -83 -147 0 -5 -2 -12 -3 -18 -36 -125 -38 -323 -5
-409 5 -14 7 -26 5 -26 -3 0 12 -31 33 -70 43 -80 112 -155 191 -209 47 -32
225 -123 296 -151 11 -4 36 -15 57 -24 20 -9 40 -16 44 -16 20 0 264 -96 364
-143 166 -78 267 -184 286 -300 6 -40 6 -174 0 -206 -34 -165 -148 -276 -326
-318 -92 -22 -212 -22 -370 1 -36 5 -138 48 -185 78 -36 22 -132 112 -160 150
-36 46 -102 162 -151 264 -31 66 -58 121 -60 122 -2 3 -72 5 -101 3 -13 -1
-12 -64 2 -196 4 -33 8 -76 10 -95 2 -19 4 -35 4 -35 1 0 4 -34 6 -75 3 -41 7
-95 10 -120 3 -25 8 -70 11 -100 3 -30 8 -58 12 -61 7 -6 124 -52 162 -64 29
-9 90 -25 110 -29 14 -3 36 -8 50 -11 14 -4 41 -9 60 -11 19 -2 41 -7 49 -9
45 -17 325 -24 436 -12 90 10 210 34 230 46 6 3 15 6 20 7 51 7 212 91 277
145 67 56 136 129 144 152 3 9 9 17 13 17 9 0 70 128 76 160 2 12 6 29 9 38
19 62 22 231 7 296 -6 22 -8 43 -5 47 2 4 0 10 -5 13 -4 3 -11 20 -15 38 -10
49 -80 160 -139 221 -68 70 -147 122 -282 187 -60 29 -118 56 -127 61 -10 5
-26 9 -36 9 -10 0 -22 4 -28 9 -5 5 -67 28 -139 51 -71 23 -134 46 -139 51 -6
5 -17 9 -25 9 -27 0 -215 99 -251 133 -46 42 -98 117 -105 153 -8 39 -13 59
-15 59 -5 0 -1 145 4 170 4 17 8 36 8 43 1 6 5 12 10 12 4 0 8 6 8 13 0 6 16
33 35 59 58 80 164 138 280 155 81 12 295 6 320 -9 6 -3 28 -9 50 -13 132 -23
267 -161 364 -370 71 -152 60 -139 118 -140 l53 -1 -5 90 c-4 79 -13 255 -20
381 -1 22 -3 60 -4 85 -1 44 -2 45 -49 63 -26 11 -56 23 -67 27 -27 12 -96 33
-115 36 -8 1 -26 5 -40 8 -41 10 -132 26 -180 32 -50 6 -367 14 -372 9z"/>
<path d="M31 5099 c8 -5 23 -9 35 -9 11 0 24 -3 28 -7 3 -4 12 -8 19 -9 7 -1
62 -16 122 -34 61 -17 115 -33 120 -34 6 -2 17 -6 25 -9 13 -5 53 -15 85 -22
10 -3 191 -56 250 -74 25 -8 55 -17 130 -37 121 -33 298 -90 342 -110 17 -8
34 -14 37 -14 14 0 202 -93 219 -107 9 -9 17 -13 17 -9 0 4 12 -1 28 -12 24
-17 299 -184 552 -336 47 -28 87 -54 88 -58 2 -5 8 -6 13 -2 5 3 9 0 9 -5 0
-6 4 -11 10 -11 5 0 34 -16 64 -35 30 -19 59 -35 65 -35 5 0 11 -3 13 -8 2 -5
205 -131 333 -205 20 -12 83 -51 120 -75 11 -6 27 -15 35 -19 8 -4 45 -26 83
-50 37 -24 70 -43 73 -43 3 0 31 -16 62 -36 31 -21 58 -36 59 -35 2 0 36 -14
75 -32 40 -19 90 -40 111 -47 22 -6 51 -18 65 -26 15 -8 34 -14 43 -14 9 0 19
-3 23 -7 3 -4 12 -8 19 -9 12 -3 136 -48 167 -61 8 -3 21 -7 28 -9 8 -1 21 -6
30 -10 9 -4 24 -8 32 -10 8 -2 23 -7 35 -13 17 -8 102 -39 230 -83 17 -5 39
-14 50 -18 27 -11 59 -21 63 -20 1 0 16 -7 32 -15 17 -9 30 -13 30 -11 0 3 25
-6 55 -20 31 -13 62 -24 70 -24 9 0 23 -4 33 -9 34 -19 152 -59 152 -52 0 3
-8 13 -18 21 -164 139 -234 198 -268 228 -23 20 -61 53 -85 72 -24 19 -54 45
-67 58 -13 12 -25 22 -28 22 -3 0 -16 10 -29 23 -21 19 -77 68 -139 120 -94
78 -167 140 -195 166 -14 13 -41 35 -60 50 -19 14 -44 35 -56 46 -27 25 -58
52 -170 145 -49 41 -92 77 -95 80 -3 3 -34 30 -70 59 -36 30 -69 60 -75 66 -5
6 -23 21 -40 34 -16 12 -52 42 -80 66 -124 106 -151 130 -169 144 -36 30 -190
161 -300 254 -11 10 -30 26 -41 35 -11 9 -45 38 -76 65 -31 26 -61 47 -67 47
-6 0 -12 5 -14 10 -2 6 -37 24 -78 41 -95 39 -83 38 -783 53 -110 2 -201 7
-204 9 -2 3 -17 1 -33 -3 -16 -4 -31 -5 -35 -2 -3 3 -65 7 -138 8 -73 1 -269
5 -437 9 -168 4 -358 8 -424 10 -70 2 -113 -1 -105 -6z"/>
<path d="M8038 5105 c-1 -2 -16 -6 -33 -9 -62 -11 -120 -31 -135 -46 -3 -3
-21 -13 -40 -23 -19 -10 -58 -39 -86 -65 -170 -156 -230 -209 -255 -227 -16
-11 -29 -26 -29 -32 0 -7 -4 -13 -8 -13 -4 0 -28 -18 -52 -40 -25 -23 -63 -57
-85 -77 -40 -35 -178 -160 -220 -198 -13 -11 -57 -51 -100 -90 -42 -38 -92
-83 -110 -100 -18 -16 -66 -59 -106 -95 -155 -139 -248 -237 -301 -320 -49
-77 -63 -102 -97 -180 -9 -21 -86 -251 -95 -285 -2 -5 -6 -17 -9 -25 -3 -8
-20 -60 -37 -115 -17 -55 -34 -107 -37 -115 -3 -8 -7 -19 -8 -25 -2 -5 -28
-86 -60 -180 -31 -93 -58 -177 -60 -185 -2 -8 -11 -35 -20 -60 -9 -25 -18 -52
-20 -60 -2 -8 -4 -16 -5 -17 -2 -2 -3 -6 -4 -10 0 -5 -7 -28 -15 -53 -15 -49
-18 -61 -20 -73 0 -4 -7 -20 -16 -37 -8 -16 -15 -38 -15 -50 0 -11 -5 -20 -11
-20 -5 0 -8 -4 -5 -8 3 -4 -11 -60 -30 -123 -20 -62 -37 -121 -39 -129 -2 -8
-19 -69 -39 -135 -20 -66 -39 -129 -41 -141 -3 -11 -21 -74 -41 -140 -20 -65
-38 -126 -39 -134 -2 -8 -20 -69 -40 -135 -20 -66 -38 -127 -39 -135 -2 -8 -6
-22 -9 -30 -6 -14 -114 -389 -122 -420 -2 -8 -11 -37 -19 -65 -8 -27 -14 -51
-12 -53 3 -2 53 43 112 100 146 140 180 173 340 323 75 72 156 148 179 170 42
40 336 319 385 365 14 14 102 97 195 185 92 88 182 174 200 190 17 17 105 100
195 185 180 171 199 189 390 370 73 69 160 152 195 185 60 58 266 253 344 325
21 19 62 56 92 82 30 25 65 55 78 67 13 12 28 21 33 21 4 0 8 6 8 13 0 7 12
20 28 29 15 10 43 32 62 50 19 18 64 58 100 88 36 30 67 57 70 60 3 3 36 32
75 65 38 33 79 69 91 80 12 11 45 40 74 64 29 25 58 50 64 56 6 6 45 39 86 75
41 35 80 69 86 74 6 6 33 30 60 53 27 22 63 54 81 70 35 31 107 93 139 120 54
45 230 199 244 213 3 3 37 32 75 64 39 33 79 68 90 78 11 10 32 29 46 41 70
60 155 134 175 152 12 11 44 38 70 60 26 22 57 49 70 60 12 11 48 43 80 70 32
28 83 72 114 100 30 27 63 56 73 65 10 8 37 32 60 52 23 21 45 38 50 38 4 0 7
4 7 9 0 9 -2343 15 -2352 6z"/>
<path d="M76 4883 c34 -32 92 -85 129 -118 37 -33 79 -71 94 -85 14 -14 67
-61 116 -105 50 -44 97 -87 105 -95 8 -8 58 -53 110 -99 52 -47 104 -94 116
-105 11 -12 47 -43 78 -71 32 -27 75 -66 95 -85 21 -19 75 -69 121 -110 46
-41 109 -98 139 -126 94 -86 221 -200 271 -244 12 -10 61 -55 110 -100 49 -45
97 -89 108 -98 45 -40 167 -150 202 -182 20 -19 67 -62 105 -95 37 -33 82 -73
100 -90 17 -16 67 -61 110 -100 43 -38 92 -83 110 -100 59 -54 100 -89 150
-130 28 -22 57 -45 65 -52 8 -7 53 -43 99 -80 46 -37 95 -77 110 -88 23 -17
85 -66 138 -110 15 -12 16 -13 113 -90 77 -62 115 -93 134 -110 6 -6 35 -28
64 -50 28 -21 52 -43 52 -47 0 -4 6 -8 13 -8 7 0 23 -10 37 -23 22 -20 176
-145 281 -229 19 -14 45 -36 59 -47 31 -26 25 -21 150 -120 58 -46 107 -87
108 -92 2 -5 10 -9 18 -9 7 0 19 -9 26 -20 7 -11 18 -20 25 -20 6 0 18 -8 25
-17 7 -10 40 -38 73 -63 33 -25 62 -48 65 -51 3 -3 73 -59 155 -125 83 -65
152 -121 155 -124 3 -3 50 -41 105 -84 55 -44 102 -82 105 -85 3 -4 23 -19 45
-36 22 -16 42 -31 45 -35 3 -3 61 -50 130 -104 69 -55 127 -102 130 -105 9
-11 117 -91 121 -91 8 0 2 1582 -5 1610 -4 14 -9 36 -12 50 -10 45 -7 37 -47
140 -68 179 -249 373 -419 448 -47 20 -151 54 -178 58 -8 1 -28 7 -45 14 -16
6 -30 11 -30 10 0 -1 -7 1 -15 3 -8 3 -42 13 -75 22 -33 9 -73 20 -90 25 -24
7 -106 31 -250 74 -28 8 -101 29 -110 31 -5 1 -17 4 -25 7 -8 3 -55 18 -105
33 -107 33 -297 102 -380 140 -64 29 -270 130 -295 145 -14 8 -156 91 -225
130 -16 10 -81 47 -144 84 -62 36 -118 66 -122 66 -5 0 -9 4 -9 9 0 5 -8 12
-17 15 -10 3 -27 12 -38 19 -46 28 -277 163 -303 176 -15 8 -28 18 -30 23 -2
4 -9 8 -16 8 -6 0 -27 11 -46 23 -19 13 -55 35 -80 49 -25 14 -85 49 -135 78
-49 29 -101 60 -115 67 -14 8 -41 25 -62 36 -20 12 -67 40 -105 61 -37 22 -71
44 -75 50 -4 6 -8 7 -8 3 0 -5 -12 1 -26 12 -15 12 -33 21 -40 21 -8 0 -14 3
-14 8 0 4 -10 12 -23 18 -62 31 -114 61 -131 77 -11 9 -24 17 -28 17 -5 0 -27
12 -51 27 -53 33 -172 93 -257 127 -36 15 -74 31 -85 36 -11 4 -175 58 -365
120 -190 61 -352 115 -360 119 -9 5 -31 12 -50 16 l-35 7 61 -59z"/>
<path d="M6022 3458 c-54 -46 -117 -98 -140 -116 -23 -19 -51 -43 -64 -54 -13
-11 -36 -29 -51 -41 -15 -12 -38 -31 -51 -42 -12 -11 -42 -36 -66 -55 -24 -19
-48 -40 -54 -45 -6 -6 -60 -51 -121 -100 -124 -101 -130 -107 -153 -155 -14
-32 -16 -134 -17 -1108 0 -590 3 -1076 7 -1078 4 -3 9 2 9 10 2 19 0 13 23
106 10 41 20 82 23 90 4 8 8 26 10 40 2 14 13 58 24 98 11 40 22 82 25 93 2
10 6 27 9 36 2 10 11 45 19 78 8 33 28 114 45 180 18 66 34 129 36 140 2 11
16 65 30 120 15 55 28 107 30 115 2 8 8 35 14 60 7 25 14 56 17 69 3 14 14 58
26 100 11 41 21 80 22 86 1 5 5 19 9 30 3 11 8 31 11 45 5 32 24 103 41 155 7
22 59 182 115 355 56 173 104 322 107 330 4 8 7 18 8 23 2 4 3 8 5 10 1 1 3 9
5 17 3 15 37 122 103 320 19 58 35 110 36 115 1 6 5 16 9 23 5 6 5 12 0 12 -4
0 -1 5 7 10 9 6 10 10 3 10 -6 0 -56 -37 -111 -82z"/>
</g>
</svg>
